<?xml version="1.0" standalone="no"?>
<!DOCTYPE svg PUBLIC "-//W3C//DTD SVG 1.1//EN" "http://www.w3.org/Graphics/SVG/1.1/DTD/svg11.dtd" >
<svg>
<metadata>
Created by FontForge 20090622 at Fri May 19 05:28:12 2017
 By deploy user
&#194;&#169; 2015 Apple Inc. All rights reserved.
</metadata>
<defs>
<font id="SFCompactDisplay-Medium" horiz-adv-x="1800" >
  <font-face 
    font-family="SF Compact Display"
    font-weight="500"
    font-stretch="normal"
    units-per-em="2048"
    panose-1="2 11 5 4 3 2 2 6 2 4"
    ascent="1638"
    descent="-410"
    x-height="1054"
    cap-height="1365"
    bbox="-450 -504 2097 1950"
    underline-thickness="50"
    underline-position="-50"
    unicode-range="U+0020-U+1F189"
  />
<missing-glyph horiz-adv-x="2048" 
d="M100 -494v266h1848v-266h-1848zM100 -58v265h1848v-265h-1848zM100 377v266h1848v-266h-1848zM100 813v266h1848v-266h-1848zM100 1249v265h1848v-265h-1848zM100 1684v266h1848v-266h-1848z" />
    <glyph glyph-name=".notdef" horiz-adv-x="2048" 
d="M100 -494v266h1848v-266h-1848zM100 -58v265h1848v-265h-1848zM100 377v266h1848v-266h-1848zM100 813v266h1848v-266h-1848zM100 1249v265h1848v-265h-1848zM100 1684v266h1848v-266h-1848z" />
    <glyph glyph-name=".null" horiz-adv-x="0" 
 />
    <glyph glyph-name="nonmarkingreturn" horiz-adv-x="0" 
 />
    <glyph glyph-name="space" unicode=" " horiz-adv-x="408" 
 />
    <glyph glyph-name="exclam" unicode="!" horiz-adv-x="530" 
d="M152 1365h226l-25 -956h-176zM138 103q0 52 37 87t90 35t90 -35t37 -87t-37 -87t-90 -35t-90 35t-37 87z" />
    <glyph glyph-name="quotedbl" unicode="&#x22;" horiz-adv-x="810" 
d="M137 1365h191l-24 -445h-143zM484 1365h191l-24 -445h-143z" />
    <glyph glyph-name="numbersign" unicode="#" horiz-adv-x="1203" 
d="M1149 840h-215l-62 -302h204l-31 -156h-205l-77 -382h-158l77 382h-268l-78 -382h-158l76 382h-201l31 156h203l61 302h-192l30 154h194l74 371h160l-76 -371h270l74 371h158l-75 -371h214zM501 847l-65 -317h283l65 317h-283z" />
    <glyph glyph-name="dollar" unicode="$" horiz-adv-x="1158" 
d="M301 1018q0 -128 162 -189q30 -11 52 -17v411q-96 -12 -155 -64.5t-59 -140.5zM890 376q0 78 -47.5 129t-162.5 86q-5 1 -15 3.5t-15 3.5v-442q109 9 174.5 66.5t65.5 153.5zM650 -129h-137v126q-208 16 -317.5 124.5t-111.5 258.5h184q6 -89 69.5 -148.5t177.5 -74.5
v472l-78 20q-65 16 -119.5 43t-101 69t-73 104t-26.5 139q0 112 53.5 195.5t141 127.5t201.5 55v131h138v-131q172 -16 283.5 -115.5t116.5 -256.5h-181q-3 82 -62 141t-158 72v-444l80 -20q168 -42 256 -128t88 -241q0 -174 -116.5 -274.5t-307.5 -116.5v-128z" />
    <glyph glyph-name="percent" unicode="%" horiz-adv-x="1518" 
d="M215 1036v-8q0 -101 37.5 -161t104.5 -60t105 59.5t38 158.5v9q0 100 -37 159t-105 59q-69 0 -106 -60t-37 -156zM75 1018v28q0 142 76.5 237t206.5 95t206.5 -95t76.5 -240v-28q0 -142 -77 -238.5t-209 -96.5q-130 0 -205 96t-75 242zM1018 344v-8q0 -100 37.5 -160.5
t104.5 -60.5q66 0 104 59.5t38 159.5v8q0 99 -37 158.5t-104 59.5q-69 0 -106 -60t-37 -156zM877 326v28q0 141 76.5 236.5t206.5 95.5t206.5 -95t76.5 -240v-27q0 -142 -76.5 -239t-208.5 -97q-130 0 -205.5 96t-75.5 242zM324 0h-167l534 695l510 670h166l-529 -690z" />
    <glyph glyph-name="ampersand" unicode="&#x26;" horiz-adv-x="1316" 
d="M1087 0l-118 127q-91 -80 -203.5 -117t-225.5 -37q-202 0 -332 104.5t-130 280.5q0 126 69 215t194 158l53 27q-81 85 -124.5 157t-43.5 156q0 130 101 218t255 88q150 0 252 -85t102 -222q0 -61 -22 -113t-64.5 -94.5t-88.5 -74.5t-111 -66l312 -339q59 111 59 343v49
h178v-54q0 -300 -112 -467l241 -254h-241zM454 623q-89 -49 -135.5 -108t-46.5 -143q0 -115 83 -178t203 -63q80 0 162 29.5t137 87.5l-361 397l-19 -9.5t-23 -12.5zM548 827q104 53 156 105.5t52 129.5q0 75 -49 121.5t-124 46.5q-77 0 -125.5 -47.5t-48.5 -122.5
q0 -52 30.5 -103.5t108.5 -129.5z" />
    <glyph glyph-name="quotesingle" unicode="'" horiz-adv-x="418" 
d="M114 1365h191l-24 -445h-143z" />
    <glyph glyph-name="parenleft" unicode="(" horiz-adv-x="635" 
d="M391 1363h174q-35 -40 -71 -104t-75.5 -161.5t-64 -237t-24.5 -292.5q0 -124 17.5 -240.5t38.5 -194.5t59.5 -166t59 -125.5l58.5 -103.5h-182q-46 56 -85.5 125t-80 170.5t-64.5 239.5t-24 293q0 127 17 238t40.5 187.5t62.5 152t69 119t75 100.5z" />
    <glyph glyph-name="parenright" unicode=")" horiz-adv-x="635" 
d="M69 1363h173q45 -57 75 -100t70 -119t63.5 -152.5t40.5 -187.5t17 -238q0 -155 -24.5 -293t-66 -239.5t-81 -170t-85.5 -125.5h-180q39 67 58.5 103.5t58.5 125.5t59.5 166t38 194t17.5 241q0 153 -24.5 292.5t-64 237t-75 161.5t-70.5 104z" />
    <glyph glyph-name="asterisk" unicode="*" horiz-adv-x="930" 
d="M534 737h-137l19 235l-194 -135l-70 121l211 100l-211 99l70 123l195 -140l-20 239h137l-21 -238l196 139l69 -122l-212 -100l212 -100l-69 -121l-195 135z" />
    <glyph glyph-name="plus" unicode="+" horiz-adv-x="1114" 
d="M641 463v-438h-169v438h-403v169h403v417h169v-417h405v-169h-405z" />
    <glyph glyph-name="comma" unicode="," horiz-adv-x="437" 
d="M174 -238h-149l108 424h207z" />
    <glyph glyph-name="hyphen" unicode="&#x2011;" horiz-adv-x="787" 
d="M708 470h-630v180h630v-180z" />
    <glyph glyph-name="hyphen" unicode="-" horiz-adv-x="787" 
d="M708 470h-630v180h630v-180z" />
    <glyph glyph-name="period" unicode="." horiz-adv-x="499" 
d="M122 108q0 53 37.5 91t90.5 38t91 -38t38 -91t-38 -90.5t-91 -37.5q-52 0 -90 38t-38 90z" />
    <glyph glyph-name="slash" unicode="/" horiz-adv-x="689" 
d="M190 -302h-180l490 1739h179z" />
    <glyph glyph-name="zero" unicode="0" horiz-adv-x="1167" 
d="M296 732v-100q0 -232 76.5 -358.5t211.5 -126.5q134 0 210.5 126.5t76.5 358.5v100q0 232 -76.5 359t-210.5 127q-135 0 -211.5 -127t-76.5 -359zM91 630v103q0 305 129.5 482.5t364.5 177.5q236 0 363.5 -177t127.5 -483v-103q0 -301 -128 -479.5t-365 -178.5
q-235 0 -363.5 177t-128.5 481z" />
    <glyph glyph-name="one" unicode="1" horiz-adv-x="817" 
d="M632 0h-204v1157h-5q-44 -24 -152.5 -92t-166.5 -108v201q63 45 166 108.5t168 98.5h194v-1365z" />
    <glyph glyph-name="two" unicode="2" horiz-adv-x="1118" 
d="M308 978h-199v9q0 79 28.5 151t82.5 129.5t139.5 91.5t191.5 34q196 0 316.5 -106.5t120.5 -270.5q0 -26 -4 -51.5l-7.5 -46t-16 -47t-18.5 -41t-25.5 -43t-26 -39t-32 -42l-31.5 -38.5l-37 -42.5l-36 -41.5l-349 -405v-4h609v-175h-894v129l506 574q36 41 56.5 66.5
t47 65.5t39 81t12.5 84q0 99 -66 160t-168 61q-109 0 -174.5 -68.5t-65.5 -165.5q0 -1 1 -5v-4z" />
    <glyph glyph-name="three" unicode="3" horiz-adv-x="1140" 
d="M411 619v170h134q110 0 179 62t69 160q-1 95 -66.5 154t-173.5 59q-112 0 -172 -63t-67 -147h-195q2 73 31 140t82 121t137 86t187 32q193 0 315.5 -99.5t126.5 -250.5q3 -134 -76.5 -223.5t-170.5 -103.5v-5q37 -3 76 -16.5t78 -41t70 -64.5t51 -91t21 -118
q3 -177 -140 -293t-359 -116q-218 0 -336 111t-124 280h192q13 -98 82.5 -159t191.5 -61q134 0 210.5 67.5t74.5 175.5q-2 106 -77.5 170t-208.5 64h-142z" />
    <glyph glyph-name="four" unicode="4" horiz-adv-x="1177" 
d="M647 1365h295v-917h175v-175h-175v-273h-195v273h-662v173q228 416 562 919zM282 448h465v748h-5q-248 -368 -460 -746v-2z" />
    <glyph glyph-name="five" unicode="5" horiz-adv-x="1194" 
d="M129 351h195q15 -99 89.5 -153.5t188.5 -54.5q52 0 102 20t92 56.5t67.5 95t25.5 128.5q0 134 -81.5 215.5t-203.5 81.5q-108 0 -178 -49.5t-103 -120.5h-177l71 797h776v-174h-606l-42 -404h5q31 42 111.5 79.5t182.5 37.5q122 0 224.5 -55.5t164.5 -161t62 -239.5
q0 -212 -143 -345t-360 -133q-209 0 -331 109t-132 270z" />
    <glyph glyph-name="six" unicode="6" horiz-adv-x="1145" 
d="M1033 1041h-201q-7 66 -68.5 122.5t-162.5 56.5q-137 0 -224 -135t-93 -395h1h5q32 81 121.5 140.5t213.5 59.5q85 0 163.5 -30t141.5 -84.5t100.5 -141t37.5 -191.5q0 -216 -136 -343t-342 -127q-234 0 -365 164q-138 173 -138 500q0 367 142 560t379 193q95 0 175 -31
t131.5 -81.5t82.5 -111.5t36 -125zM312 432q0 -135 81.5 -211.5t198.5 -76.5q116 0 196 75t80 214q0 70 -23.5 126.5t-63 91.5t-88 53.5t-102.5 18.5q-118 0 -198.5 -78t-80.5 -213z" />
    <glyph glyph-name="seven" unicode="7" horiz-adv-x="1087" 
d="M89 1365h890v-181l-557 -1184h-216l574 1186v4h-691v175z" />
    <glyph glyph-name="eight" unicode="8" horiz-adv-x="1189" 
d="M595 134q127 0 210.5 69.5t83.5 179.5q0 111 -83.5 181t-210.5 70t-211 -70t-84 -181q0 -110 84 -179.5t211 -69.5zM595 790q107 0 176 62t69 160q0 96 -69 156.5t-176 60.5t-176 -60.5t-69 -156.5q0 -98 69.5 -160t175.5 -62zM591 -28q-220 0 -357 111.5t-137 289.5
q0 62 18 116t46.5 91.5t66.5 66.5t75 45.5t74 25.5v4q-90 29 -157.5 107t-67.5 200q0 159 124.5 261.5t318.5 102.5q195 0 319.5 -102.5t124.5 -261.5q0 -64 -21 -119t-56 -91.5t-72 -60t-77 -36.5v-4q48 -11 94 -36t89 -65.5t69 -103.5t26 -139q0 -177 -140 -289.5
t-360 -112.5z" />
    <glyph glyph-name="nine" unicode="9" horiz-adv-x="1145" 
d="M104 339h200q10 -76 76.5 -135t175.5 -59q153 0 235 144.5t81 385.5h-9q-30 -84 -120.5 -142t-225.5 -58q-83 0 -159 29.5t-136.5 84.5t-96 142t-35.5 194t39 196.5t104 147.5t149.5 90t176.5 32q242 0 376.5 -166.5t134.5 -518.5q0 -344 -138 -537.5t-384 -193.5
q-84 0 -156 22t-122.5 58.5t-87.5 84t-56 98t-22 101.5zM847 925q0 142 -78.5 219t-199.5 77q-115 0 -197 -76t-82 -215t78.5 -214t195.5 -75q116 0 199.5 80.5t83.5 203.5z" />
    <glyph glyph-name="colon" unicode=":" horiz-adv-x="537" 
d="M137 108q0 53 38 91t91 38t90.5 -38t37.5 -91q0 -52 -38 -90t-90 -38q-53 0 -91 37.5t-38 90.5zM137 809q0 53 38 91t91 38t90.5 -38t37.5 -91t-38 -90.5t-90 -37.5q-53 0 -91 37.5t-38 90.5z" />
    <glyph glyph-name="semicolon" unicode=";" horiz-adv-x="537" 
d="M204 -254h-149l107 444h208zM139 809q0 53 37.5 91t90.5 38t91 -38t38 -91t-38 -90.5t-91 -37.5t-90.5 37.5t-37.5 90.5z" />
    <glyph glyph-name="less" unicode="&#x3c;" horiz-adv-x="1114" 
d="M118 440v151l876 514v-209l-655 -369v-10l655 -351v-208z" />
    <glyph glyph-name="equal" unicode="=" horiz-adv-x="1114" 
d="M990 274h-866v161h866v-161zM990 658h-866v163h866v-163z" />
    <glyph glyph-name="greater" unicode="&#x3e;" horiz-adv-x="1114" 
d="M995 591v-151l-877 -482v208l657 351v10l-657 369v209z" />
    <glyph glyph-name="question" unicode="?" horiz-adv-x="956" 
d="M59 1000q-1 86 23.5 155t66 113.5t98 74t115.5 41.5t122 12q111 0 202.5 -37t151 -118t59.5 -194q0 -60 -15.5 -109.5t-48 -90t-59 -64.5t-72.5 -60q-68 -53 -95 -78t-45 -64t-18 -95v-58h-191l-1 78q-2 68 25.5 128t65 98.5t96.5 83.5q44 34 64.5 51.5t45 45.5t33.5 57
t9 66q0 96 -62 144t-155 48q-108 0 -166 -63.5t-59 -164.5h-190zM326 103q0 52 37 87t90 35t90 -35t37 -87t-37 -87t-90 -35t-90 35t-37 87z" />
    <glyph glyph-name="at" unicode="@" horiz-adv-x="1682" 
d="M1254 133q-98 0 -160 41t-75 99h-10q-15 -55 -77 -97.5t-145 -42.5q-125 0 -195.5 89t-70.5 239v97q0 145 72.5 234t200.5 89q82 0 134 -39.5t68 -91.5h8v116h154v-490q0 -55 32.5 -85t84.5 -30q76 0 128.5 86t52.5 251v34q0 110 -40 208.5t-112.5 174.5t-185 120.5
t-248.5 44.5h-8q-132 0 -245.5 -45t-196.5 -127t-130 -203.5t-47 -267.5v-45q0 -155 49 -277t134 -197t194 -114t235 -39h8q203 0 314 49v-136q-99 -46 -317 -46h-9q-160 0 -296.5 48.5t-240.5 140.5t-163 237t-59 328v57q0 173 58 318t160.5 243.5t244.5 153.5t307 55h8
q172 0 313.5 -56t231.5 -151t139 -215.5t49 -253.5v-50q0 -204 -97.5 -329t-251.5 -125zM684 483q0 -109 41.5 -160t115.5 -51q71 0 113 49t42 153v81q0 94 -44.5 145t-112.5 51q-69 0 -112 -52.5t-43 -154.5v-61z" />
    <glyph glyph-name="A" unicode="A" horiz-adv-x="1220" 
d="M234 0h-212l476 1365h224l476 -1365h-218l-128 391h-490zM611 1141h-7l-193 -590h392z" />
    <glyph glyph-name="B" unicode="B" horiz-adv-x="1234" 
d="M158 0v1365h531q177 0 282 -90.5t105 -245.5q0 -116 -59 -193t-165 -108v-9q136 -17 217.5 -104.5t81.5 -231.5q0 -179 -129 -281t-347 -102h-517zM363 1196v-412h199q159 0 233.5 51.5t74.5 158.5q0 95 -58 148.5t-163 53.5h-286zM363 621v-452h225q187 0 270 52.5
t83 166.5q0 111 -71.5 172t-201.5 61h-305z" />
    <glyph glyph-name="C" unicode="C" horiz-adv-x="1258" 
d="M310 765v-172q0 -212 89 -326.5t253 -114.5q137 0 222.5 76.5t88.5 200.5h201v-11q0 -194 -145.5 -320t-367.5 -126q-259 0 -403.5 164.5t-144.5 456.5v172q0 295 144.5 461.5t403.5 166.5q223 0 368 -131.5t145 -335.5v-10h-201q-3 132 -88.5 214.5t-222.5 82.5
q-164 0 -253 -116.5t-89 -331.5z" />
    <glyph glyph-name="D" unicode="D" horiz-adv-x="1303" 
d="M158 1365h457q300 0 452 -173.5t152 -507.5q0 -335 -152 -509.5t-452 -174.5h-457v1365zM364 1188v-1011h233q203 0 306 122.5t103 382.5q0 506 -409 506h-233z" />
    <glyph glyph-name="E" unicode="E" horiz-adv-x="1107" 
d="M996 177v-177h-838v1365h838v-177h-633v-408h597v-170h-597v-433h633z" />
    <glyph glyph-name="F" unicode="F" horiz-adv-x="1042" 
d="M364 0h-206v1365h827v-178h-621v-437h569v-176h-569v-574z" />
    <glyph glyph-name="G" unicode="G" horiz-adv-x="1283" 
d="M1177 942h-203q-15 126 -98.5 198.5t-218.5 72.5q-165 0 -256.5 -111.5t-91.5 -312.5v-194q0 -212 90 -328t265 -116q142 0 229.5 79t87.5 204v117h-329v168h528v-278q0 -200 -144 -334.5t-375 -134.5q-273 0 -415.5 164t-142.5 459v195q0 279 147.5 441t407.5 162
q226 0 366.5 -125.5t152.5 -325.5z" />
    <glyph glyph-name="H" unicode="H" horiz-adv-x="1377" 
d="M1220 0h-206v615h-650v-615h-206v1365h206v-572h650v572h206v-1365z" />
    <glyph glyph-name="I" unicode="I" horiz-adv-x="521" 
d="M364 0h-206v1365h206v-1365z" />
    <glyph glyph-name="J" unicode="J" horiz-adv-x="997" 
d="M25 338h200q3 -82 55.5 -131.5t146.5 -49.5q108 0 160 65t52 197v946h207v-948q0 -215 -109 -330t-309 -115q-185 0 -294 103t-109 263z" />
    <glyph glyph-name="K" unicode="K" horiz-adv-x="1209" 
d="M1177 1365l-502 -583l527 -782h-256l-423 641l-159 -175v-466h-206v1365h206v-644h9l568 644h236z" />
    <glyph glyph-name="L" unicode="L" horiz-adv-x="999" 
d="M976 181v-181h-818v1365h206v-1184h612z" />
    <glyph glyph-name="M" unicode="M" horiz-adv-x="1600" 
d="M347 0h-185v1365h204l432 -998h5l431 998h204v-1365h-186v963h-8l-366 -830h-157l-367 830h-7v-963z" />
    <glyph glyph-name="N" unicode="N" horiz-adv-x="1368" 
d="M352 0h-194v1365h187l664 -1014h6v1014h195v-1365h-187l-665 1016h-6v-1016z" />
    <glyph glyph-name="O" unicode="O" horiz-adv-x="1326" 
d="M311 774v-194q0 -211 97 -320t255 -109t255 109t97 320v194q0 211 -97.5 325.5t-254.5 114.5q-156 0 -254 -114.5t-98 -325.5zM103 580v192q0 289 152 455t410 166t408 -165.5t150 -455.5v-192q0 -287 -151 -447.5t-411 -160.5q-259 0 -408.5 160.5t-149.5 447.5z" />
    <glyph glyph-name="P" unicode="P" horiz-adv-x="1165" 
d="M158 1365h513q201 0 322 -121t121 -314q0 -194 -121 -313.5t-323 -119.5h-307v-497h-205v1365zM363 1190v-520h192q87 0 147.5 11t108 39.5t70 80t22.5 129.5q0 124 -67.5 192t-190.5 68h-282z" />
    <glyph glyph-name="Q" unicode="Q" horiz-adv-x="1327" 
d="M104 587v190q0 288 151 452t407 164q257 0 408.5 -164.5t151.5 -451.5v-190q0 -312 -178 -477l183 -258h-220l-118 164q-104 -44 -227 -44q-256 0 -407 163.5t-151 451.5zM308 777v-191q0 -214 97.5 -327t254.5 -115q68 0 123 24l-175 243h214l104 -139q92 115 92 314
v191q0 212 -98.5 324.5t-257.5 112.5q-158 0 -256 -112.5t-98 -324.5z" />
    <glyph glyph-name="R" unicode="R" horiz-adv-x="1228" 
d="M668 1365q113 0 201 -33t142 -91t81.5 -132t27.5 -159q0 -80 -23 -147t-61 -112.5t-80 -75t-88 -46.5l277 -569h-233l-248 532h-302v-532h-204v1365h510zM362 701h272q133 0 203 62t70 178q0 122 -72 186.5t-195 64.5h-278v-491z" />
    <glyph glyph-name="S" unicode="S" horiz-adv-x="1172" 
d="M60 375h203q10 -99 93 -164t226 -65q136 0 215 60.5t79 163.5q0 80 -52.5 128t-166.5 76l-230 58q-68 17 -124 45t-103.5 70.5t-74 106t-26.5 142.5q0 125 68.5 217.5t177 137.5t239.5 45q129 0 236 -43.5t176 -134.5t71 -216h-199q-9 97 -82.5 159t-204.5 62
q-124 0 -199.5 -56.5t-75.5 -155.5q0 -144 191 -190l228 -58q65 -16 117 -37t98.5 -52.5t77 -71t48.5 -94t18 -121.5q0 -196 -144.5 -305.5t-375.5 -109.5q-107 0 -194 24.5t-143 64.5t-94 93.5t-54.5 108.5t-18.5 112z" />
    <glyph glyph-name="T" unicode="T" horiz-adv-x="1054" 
d="M629 0h-204v1186h-407v179h1018v-179h-407v-1186z" />
    <glyph glyph-name="U" unicode="U" horiz-adv-x="1341" 
d="M346 1365v-881q0 -153 88 -242t236 -89t236.5 89.5t88.5 241.5v881h204v-909q0 -216 -142 -350t-387 -134q-244 0 -386 134t-142 350v909h204z" />
    <glyph glyph-name="V" unicode="V" horiz-adv-x="1214" 
d="M721 0h-227l-480 1365h236l357 -1114h8l354 1114h231z" />
    <glyph glyph-name="W" unicode="W" horiz-adv-x="1696" 
d="M569 0h-187l-371 1365h224l247 -1037h7l261 1037h197l260 -1037h7l247 1037h224l-371 -1365h-186l-276 1030h-7z" />
    <glyph glyph-name="X" unicode="X" horiz-adv-x="1144" 
d="M1143 1365l-447 -688l438 -677h-243l-324 521h-10l-327 -521h-229l439 688l-433 677h245l324 -525h11l321 525h235z" />
    <glyph glyph-name="Y" unicode="Y" horiz-adv-x="1109" 
d="M656 0h-204v565l-457 800h232l325 -597h7l326 597h228l-457 -797v-568z" />
    <glyph glyph-name="Z" unicode="Z" horiz-adv-x="1156" 
d="M83 0v141l708 1041v6h-685v177h937v-139l-703 -1042v-7h721v-177h-978z" />
    <glyph glyph-name="bracketleft" unicode="[" horiz-adv-x="668" 
d="M127 1365h463v-150h-270v-1293h283v-150h-476v1593z" />
    <glyph glyph-name="backslash" unicode="\" horiz-adv-x="689" 
d="M679 -302h-179l-490 1739h180z" />
    <glyph glyph-name="bracketright" unicode="]" horiz-adv-x="668" 
d="M78 1365h463v-1593h-475v150h283v1293h-271v150z" />
    <glyph glyph-name="asciicircum" unicode="^" horiz-adv-x="795" 
d="M751 795h-173l-177 408h-7l-179 -408h-171l262 570h185z" />
    <glyph glyph-name="underscore" unicode="_" horiz-adv-x="846" 
d="M873 -260h-901v157h901v-157z" />
    <glyph glyph-name="grave" unicode="`" horiz-adv-x="946" 
d="M648 1188h-149l-235 278h194z" />
    <glyph glyph-name="a" unicode="a" horiz-adv-x="1067" 
d="M731 130q-88 -147 -299 -147q-154 0 -249 87.5t-95 232.5q0 142 96 223t275 82h271v103q0 96 -53.5 147t-152.5 51q-93 0 -146.5 -44t-60.5 -119h-190q8 145 109 235t294 90q179 0 290 -91t111 -258v-722h-193v130h-7zM491 142q103 0 171 58t68 149v119h-243
q-98 0 -146.5 -42t-48.5 -113q0 -82 58 -126.5t141 -44.5z" />
    <glyph glyph-name="b" unicode="b" horiz-adv-x="1182" 
d="M664 -16q-216 0 -312 176h-7v-160h-196v1437h202v-530h7q40 72 123.5 117.5t183.5 45.5q187 0 300 -129t113 -363v-100q0 -229 -112.5 -361.5t-301.5 -132.5zM623 154q113 0 181.5 87.5t68.5 245.5v80q0 158 -68.5 245.5t-181.5 87.5q-129 0 -201.5 -86t-72.5 -247v-78
q0 -162 72 -248.5t202 -86.5z" />
    <glyph glyph-name="c" unicode="c" horiz-adv-x="1052" 
d="M103 483v98q0 219 120.5 355t327.5 136q181 0 293.5 -100t119.5 -239h-194q-16 70 -72.5 119t-134.5 49q-121 0 -189 -86.5t-68 -238.5v-94q0 -150 70 -239t188 -89q90 0 144.5 43t68.5 110h193q-23 -152 -131 -238.5t-288 -86.5q-139 0 -241.5 65t-154.5 177.5
t-52 258.5z" />
    <glyph glyph-name="d" unicode="d" horiz-adv-x="1179" 
d="M519 1070q103 0 183 -45.5t119 -119.5h7v532h202v-1437h-196v160h-6q-43 -82 -123.5 -128.5t-185.5 -46.5q-198 0 -306.5 134t-108.5 362v93q0 223 111 359.5t304 136.5zM563 900q-115 0 -184.5 -85.5t-69.5 -247.5v-80q0 -161 70 -246.5t186 -85.5q124 0 194.5 86.5
t70.5 244.5v81q0 153 -72 243t-195 90z" />
    <glyph glyph-name="e" unicode="e" horiz-adv-x="1093" 
d="M557 -18q-210 0 -332 133.5t-122 363.5v111q0 219 119.5 350.5t326.5 131.5t325.5 -134.5t118.5 -357.5v-100h-689v-22q0 -141 69.5 -227t187.5 -86q86 0 143.5 40t80.5 112h195q-28 -138 -136.5 -226.5t-286.5 -88.5zM304 628h490v3q0 120 -68 200t-176 80
q-110 0 -178 -80t-68 -200v-3z" />
    <glyph glyph-name="f" unicode="f" horiz-adv-x="700" 
d="M217 0v890h-145v164h145v105q0 154 80 225t250 71q53 0 89 -6v-156q-30 4 -57 4q-86 0 -124.5 -34t-38.5 -120v-89h206v-164h-204v-890h-201z" />
    <glyph glyph-name="g" unicode="g" horiz-adv-x="1177" 
d="M568 -235q119 0 189 66.5t70 183.5v163h-7q-32 -72 -113.5 -119.5t-186.5 -47.5q-188 0 -301.5 129t-113.5 362v80q0 231 113.5 359.5t301.5 128.5q104 0 186 -47t119 -119h7v150h196v-1045q0 -80 -25 -147.5t-68.5 -114t-102.5 -79t-125.5 -47.5t-139.5 -15
q-201 0 -311.5 86t-127.5 226h202q15 -65 78.5 -109t159.5 -44zM572 902q-124 0 -193.5 -86.5t-69.5 -245.5v-63q0 -157 69.5 -244.5t193.5 -87.5q120 0 187.5 88t67.5 244v63q0 153 -69 242.5t-186 89.5z" />
    <glyph glyph-name="h" unicode="h" horiz-adv-x="1167" 
d="M149 0v1437h202v-527h7q34 64 111 112.5t194 48.5q167 0 270.5 -103t103.5 -291v-677h-202v639q0 125 -65.5 189.5t-175.5 64.5q-119 0 -181 -73t-62 -186v-634h-202z" />
    <glyph glyph-name="i" unicode="i" horiz-adv-x="514" 
d="M156 0v1054h202v-1054h-202zM134 1311q0 51 36 85t87 34t87 -34t36 -85t-36 -85t-87 -34t-87 34t-36 85z" />
    <glyph glyph-name="j" unicode="j" horiz-adv-x="514" 
d="M134 1311q0 51 36 85t87 34t87 -34t36 -85t-36 -85t-87 -34t-87 34t-36 85zM357 1054v-1080q0 -177 -79.5 -261.5t-225.5 -84.5q-67 0 -103 9v154q25 -5 63 -5q77 0 110.5 45t33.5 145v1078h201z" />
    <glyph glyph-name="k" unicode="k" horiz-adv-x="1007" 
d="M350 374v-374h-202v1437h202v-838h9l395 455h243l-406 -457l432 -597h-244l-339 474z" />
    <glyph glyph-name="l" unicode="l" horiz-adv-x="507" 
d="M153 0v1437h201v-1437h-201z" />
    <glyph glyph-name="m" unicode="m" horiz-adv-x="1749" 
d="M146 0v1054h199v-136h10q28 62 98.5 107.5t171.5 45.5q119 0 195 -45.5t106 -127.5h9q31 73 115.5 123t206.5 50q165 0 258 -95t93 -258v-718h-201v671q0 103 -55.5 163.5t-157.5 60.5q-103 0 -160.5 -65t-57.5 -173v-657h-198v657q0 116 -57 177t-158 61q-94 0 -155 -62
t-61 -174v-659h-201z" />
    <glyph glyph-name="n" unicode="n" horiz-adv-x="1163" 
d="M146 0v1054h199v-144h7q34 64 112 112.5t195 48.5q167 0 270 -103t103 -291v-677h-201v639q0 125 -66 189.5t-175 64.5q-119 0 -181 -73t-62 -186v-634h-201z" />
    <glyph glyph-name="o" unicode="o" horiz-adv-x="1132" 
d="M567 1072q218 0 339.5 -138.5t121.5 -359.5v-89q0 -226 -121 -364.5t-340 -138.5q-220 0 -342 138.5t-122 364.5v88q0 221 122.5 360t341.5 139zM566 906q-125 0 -192.5 -91t-67.5 -246v-81q0 -154 67.5 -246t192.5 -92q126 0 192.5 91.5t66.5 246.5v81q0 155 -67 246
t-192 91z" />
    <glyph glyph-name="p" unicode="p" horiz-adv-x="1172" 
d="M654 -16q-99 0 -176 43t-121 117h-7v-506h-202v1416h196v-153h7q46 78 126 123.5t183 45.5q181 0 294.5 -132t113.5 -363v-95q0 -230 -114 -363t-300 -133zM616 154q114 0 181 88.5t67 250.5v75q0 158 -66.5 246t-185.5 88q-122 0 -193 -90.5t-71 -242.5v-76
q0 -156 72 -247.5t196 -91.5z" />
    <glyph glyph-name="q" unicode="q" horiz-adv-x="1180" 
d="M104 573q0 228 111 362.5t297 134.5q220 0 317 -166h7v150h196v-1416h-202v515h-7q-35 -73 -118 -121t-195 -48q-186 0 -296 135.5t-110 370.5v83zM565 900q-120 0 -188 -88t-68 -248v-68q0 -160 68 -252t189 -92q124 0 195 93t71 251v68q0 154 -71.5 245t-195.5 91z" />
    <glyph glyph-name="r" unicode="r" horiz-adv-x="718" 
d="M146 0v1054h202v-134h7q26 59 90.5 104.5t164.5 45.5q36 0 71 -5v-181q-29 6 -90 6q-241 0 -241 -254v-636h-204z" />
    <glyph glyph-name="s" unicode="s" horiz-adv-x="1005" 
d="M105 749q0 82 33 145.5t89.5 101.5t127 57t151.5 19q182 0 283 -88.5t101 -229.5h-184q-5 68 -53.5 115.5t-152.5 47.5q-90 0 -145 -39t-55 -109q0 -32 15 -56.5t39.5 -40t58 -27t67.5 -18.5l71 -14q9 -1 13 -2q65 -12 113 -25t96 -36t78.5 -53t49 -76t18.5 -105
q0 -157 -115.5 -245.5t-312.5 -88.5q-185 0 -295 82.5t-110 223.5h197q10 -69 68 -109.5t154 -40.5q106 0 161.5 43.5t55.5 109.5q0 27 -8 48t-28.5 37t-37.5 26t-54 20.5t-58 15t-68 13.5q-7 1 -10 2q-81 17 -138.5 37t-109.5 53.5t-78.5 85t-26.5 120.5z" />
    <glyph glyph-name="t" unicode="t" horiz-adv-x="713" 
d="M217 1054v260h199v-260h207v-164h-207v-584q0 -89 36 -120.5t130 -31.5q20 0 48 2v-157q-40 -7 -98 -7q-95 0 -156.5 17.5t-97 56.5t-49.5 93.5t-14 136.5v594h-144v164h146z" />
    <glyph glyph-name="u" unicode="u" horiz-adv-x="1158" 
d="M1012 1054v-1054h-199v143h-8q-30 -69 -108 -114.5t-197 -45.5q-168 0 -268.5 95.5t-100.5 273.5v702h202v-646q0 -133 65 -190t171 -57q108 0 174.5 66t66.5 184v643h202z" />
    <glyph glyph-name="v" unicode="v" horiz-adv-x="965" 
d="M365 0l-362 1054h214l256 -829h7l276 829h205l-374 -1054h-222z" />
    <glyph glyph-name="w" unicode="w" horiz-adv-x="1503" 
d="M1467 1054l-274 -1054h-211l-228 792h-5l-228 -792h-211l-274 1054h204l182 -815h9l225 815h192l226 -815h8l182 815h203z" />
    <glyph glyph-name="x" unicode="x" horiz-adv-x="1014" 
d="M754 0l-252 385h-3l-249 -385h-224l353 528l-348 526h239l242 -386h2l242 386h228l-352 -526l356 -528h-234z" />
    <glyph glyph-name="y" unicode="y" horiz-adv-x="986" 
d="M982 1054q-365 -1044 -366 -1048l-27 -73q-21 -57 -41 -97.5t-52 -84.5t-70 -71t-93.5 -44.5t-124.5 -17.5q-60 0 -119 9v157q27 -5 80 -5q91 0 136 39.5t66 120.5l14 50l-381 1065h224l265 -848h7l267 848h215z" />
    <glyph glyph-name="z" unicode="z" horiz-adv-x="978" 
d="M96 0v136l546 743v7h-540v168h789v-141l-540 -738v-7h548v-168h-803z" />
    <glyph glyph-name="braceleft" unicode="{" horiz-adv-x="737" 
d="M260 596v-24q178 -17 178 -227v-297q0 -111 48 -159t167 -48h41v-154h-69q-187 0 -281.5 80.5t-94.5 261.5v254q0 108 -34.5 154t-131.5 46v201q97 0 131.5 46t34.5 155v223q0 179 94 256.5t282 77.5h69v-154h-41q-119 0 -167 -48t-48 -159v-264q0 -105 -44.5 -159
t-133.5 -62z" />
    <glyph glyph-name="bar" unicode="|" horiz-adv-x="676" 
d="M426 -305h-175v1742h175v-1742z" />
    <glyph glyph-name="braceright" unicode="}" horiz-adv-x="737" 
d="M477 572v24q-177 17 -177 221v264q0 111 -48.5 159t-167.5 48h-41v154h69q188 0 282 -77.5t94 -256.5v-223q0 -109 34.5 -155t131.5 -46v-201q-97 0 -131.5 -46t-34.5 -154v-254q0 -181 -94.5 -261.5t-281.5 -80.5h-69v154h41q119 0 167.5 48t48.5 159v297q0 210 177 227
z" />
    <glyph glyph-name="asciitilde" unicode="~" horiz-adv-x="1114" 
d="M764 490q-59 0 -110.5 21.5t-87.5 52.5t-68.5 62t-67.5 52.5t-71 21.5q-57 0 -88.5 -48.5t-34.5 -122.5h-168q-2 143 71 243t210 100q60 0 112 -21.5t87 -52.5t66.5 -62t66.5 -52.5t71 -21.5q58 0 88.5 48.5t33.5 122.5h169q2 -145 -71.5 -244t-207.5 -99z" />
    <glyph glyph-name="nonbreakingspace" unicode="&#xa0;" horiz-adv-x="408" 
 />
    <glyph glyph-name="exclamdown" unicode="&#xa1;" horiz-adv-x="530" 
d="M378 -276h-226l25 956h176zM392 984q0 -52 -37 -87.5t-90 -35.5t-90 35.5t-37 87.5t37 87t90 35t90 -35t37 -87z" />
    <glyph glyph-name="cent" unicode="&#xa2;" horiz-adv-x="1158" 
d="M1013 455q-5 -120 -96 -209.5t-249 -105.5v-226h-158v226q-168 19 -269.5 140t-101.5 317v169q0 191 102 311.5t269 139.5v240h158v-240q154 -17 244.5 -112t93.5 -214h-191q-5 27 -18 53.5t-38 53.5t-68.5 44t-100.5 17q-123 0 -190.5 -81t-67.5 -216v-167
q0 -133 70 -211t189 -78q105 0 160.5 42t69.5 107h192z" />
    <glyph glyph-name="sterling" unicode="&#xa3;" horiz-adv-x="1158" 
d="M1066 167v-167h-956v176q39 1 62 5.5t46.5 18.5t35 40t19 70.5t7.5 110.5v197h-189v150h189v280q0 163 110 253.5t284 90.5q175 0 277 -88.5t107 -242.5h-190q-4 71 -56 117.5t-138 46.5q-98 0 -147.5 -56.5t-49.5 -142.5v-258h296v-150h-296l-1 -205q0 -190 -72 -234
v-12h662z" />
    <glyph glyph-name="currency" unicode="&#xa4;" horiz-adv-x="1158" 
d="M957 158l-171 171q-94 -59 -205 -59q-113 0 -208 63l-174 -175l-110 110l173 174q-65 94 -65 212q0 114 61 206l-169 169l111 111l167 -168q96 66 214 66q117 0 211 -63l164 165l111 -111l-165 -165q64 -96 64 -210q0 -119 -68 -217l169 -169zM343 654q0 -98 70 -167.5
t168 -69.5t168.5 69.5t70.5 167.5t-70.5 168t-168.5 70t-168 -70t-70 -168z" />
    <glyph glyph-name="yen" unicode="&#xa5;" horiz-adv-x="1158" 
d="M969 261h-288v-261h-205v261h-287v137h287v139h-287v137h227l-397 691h232l323 -597h10l325 597h229l-398 -691h229v-137h-288v-139h288v-137z" />
    <glyph glyph-name="brokenbar" unicode="&#xa6;" horiz-adv-x="676" 
d="M426 782h-175v655h175v-655zM426 -305h-175v682h175v-682z" />
    <glyph glyph-name="section" unicode="&#xa7;" horiz-adv-x="930" 
d="M668 72q0 84 -91 127q-40 19 -169 52q-75 19 -128 40.5t-101 56t-72.5 86t-24.5 120.5q0 159 168 246v7q-162 92 -162 256q0 105 54.5 182t140 113t189.5 36q167 0 270 -89.5t103 -226.5h-178q-3 59 -56.5 108.5t-144.5 49.5q-84 0 -135.5 -45t-51.5 -118q0 -29 9 -52.5
t29.5 -41.5t39 -30t54.5 -23.5t57.5 -17t64.5 -15.5q59 -14 99 -26.5t88.5 -36.5t77.5 -54t49 -77.5t20 -108.5q0 -84 -44 -149t-108 -107v-7q67 -42 106.5 -96t39.5 -140q0 -155 -111.5 -249t-290.5 -94q-168 0 -280 85t-113 229h183q11 -72 65 -113t147 -41q105 0 156 47
t51 117zM566 380q48 20 80.5 71t32.5 108q0 74 -53.5 115t-157.5 64q-1 1 -36.5 8.5t-37.5 7.5q-46 -14 -85.5 -64.5t-39.5 -111.5q0 -75 52.5 -114t154.5 -63q2 -1 45.5 -11t44.5 -10z" />
    <glyph glyph-name="dieresis" unicode="&#xa8;" horiz-adv-x="945" 
d="M293 1198q-41 0 -69.5 29t-28.5 71q0 45 28 74t70 29q43 0 71 -29t28 -74q0 -42 -28.5 -71t-70.5 -29zM649 1198q-41 0 -69 29t-28 71q0 45 27.5 74t69.5 29q44 0 72.5 -29t28.5 -74q0 -42 -29 -71t-72 -29z" />
    <glyph glyph-name="copyright" unicode="&#xa9;" horiz-adv-x="1639" 
d="M499 632v99q0 157 90 244.5t241 87.5q137 0 219.5 -76t84.5 -177h-139q-7 48 -45.5 87.5t-118.5 39.5q-191 0 -191 -212v-94q0 -101 50.5 -151.5t140.5 -50.5q147 0 169 109h139q-4 -99 -84.5 -170t-224.5 -71q-152 0 -241.5 87.5t-89.5 247.5zM230 641
q0 -168 73.5 -300.5t209 -207.5t311.5 -75q266 0 431.5 164t165.5 419v106q0 116 -44 219t-121.5 178.5t-189.5 119.5t-242 44q-173 0 -309.5 -75t-210.5 -203t-74 -283v-106zM824 -64q-209 0 -374 92t-255.5 253.5t-90.5 362.5v103q0 142 54 268t148 218t229 145.5
t289 53.5q155 0 290 -54t228.5 -146.5t147.5 -218.5t54 -266v-103q0 -151 -53 -282t-146.5 -224.5t-228.5 -147.5t-292 -54z" />
    <glyph glyph-name="ordfeminine" unicode="&#xaa;" horiz-adv-x="641" 
d="M263 775q-90 0 -144 47t-54 129q0 81 54.5 127.5t160.5 46.5h147v51q0 87 -106 87q-90 0 -101 -59h-132q6 76 64.5 121.5t172.5 45.5q111 0 176.5 -47t65.5 -150v-390h-133v74h-7q-47 -83 -164 -83zM307 878q50 0 85 28.5t35 72.5v56h-120q-51 1 -78 -19.5t-27 -55.5
q0 -40 30.5 -61t74.5 -21z" />
    <glyph glyph-name="guillemotleft" unicode="&#xab;" horiz-adv-x="1265" 
d="M597 565l344 388h196l-339 -387v-6l339 -389h-205l-335 386v8zM113 565l344 388h196l-339 -387v-6l339 -389h-205l-335 386v8z" />
    <glyph glyph-name="logicalnot" unicode="&#xac;" horiz-adv-x="1114" 
d="M1043 95h-176v367h-798v164h974v-531z" />
    <glyph glyph-name="registered" unicode="&#xae;" horiz-adv-x="995" 
d="M497 577q-177 0 -293.5 112t-116.5 282v57q0 161 117.5 271.5t292.5 110.5q174 0 292.5 -111.5t118.5 -270.5v-57q0 -170 -116 -282t-295 -112zM497 666q139 0 230 87t91 219v56q0 123 -92 209t-229 86t-228 -85.5t-91 -209.5v-56q0 -132 90 -219t229 -87zM434 1137v-122
h63q82 0 82 62q0 60 -72 60h-73zM433 802h-87v401h192q57 0 93.5 -34.5t36.5 -86.5q0 -44 -22.5 -76.5t-57.5 -42.5l93 -161h-101l-81 149h-66v-149z" />
    <glyph glyph-name="macron" unicode="&#xaf;" horiz-adv-x="944" 
d="M751 1237h-558v128h558v-128z" />
    <glyph glyph-name="degree" unicode="&#xb0;" horiz-adv-x="544" 
d="M273 925q-96 0 -163 67t-67 163q0 95 67 162t163 67q95 0 162 -67t67 -162q0 -96 -67 -163t-162 -67zM273 1042q47 0 79.5 33.5t32.5 79.5q0 47 -32.5 80t-79.5 33q-45 0 -78.5 -33t-33.5 -80q0 -46 33 -79.5t79 -33.5z" />
    <glyph glyph-name="plusminus" unicode="&#xb1;" horiz-adv-x="1114" 
d="M639 653v-277h-169v277h-392v159h392v262h169v-262h395v-159h-395zM1036 104h-956v162h956v-162z" />
    <glyph glyph-name="twosuperior" unicode="&#xb2;" horiz-adv-x="640" 
d="M213 1156h-138v11q0 86 61.5 148.5t175.5 62.5q105 0 169.5 -55t64.5 -140q0 -43 -21.5 -87.5t-41.5 -67.5t-56 -60l-157 -153v-2h288v-121h-471v92l243 257q74 76 74 131q0 39 -27 63t-68 24q-44 0 -70 -27t-26 -65v-11z" />
    <glyph glyph-name="threesuperior" unicode="&#xb3;" horiz-adv-x="649" 
d="M237 980v115h76q43 0 69.5 24t26.5 62q0 37 -26.5 60t-68.5 23q-44 0 -71 -24t-29 -58h-134q3 84 65.5 140t170.5 56q103 0 167 -49t64 -128q0 -57 -34.5 -98.5t-88.5 -56.5v-2q63 -11 104 -51t41 -108q0 -92 -72.5 -148.5t-180.5 -56.5q-114 0 -180 59t-68 140h133
q3 -36 33.5 -59.5t78.5 -23.5q50 0 82 26.5t32 66.5t-30.5 65.5t-81.5 25.5h-78z" />
    <glyph glyph-name="acute" unicode="&#xb4;" horiz-adv-x="946" 
d="M451 1188h-149l191 278h193z" />
    <glyph glyph-name="mu" unicode="&#xb5;" horiz-adv-x="1247" 
d="M148 -362v1416h203v-649q0 -113 56.5 -178.5t160.5 -65.5q113 0 182 71t69 172v650h203v-777q0 -72 18.5 -97.5t67.5 -25.5q26 0 45 5v-158q-35 -10 -97 -10q-192 0 -213 161l-2 20h-7q-36 -89 -105.5 -139t-164.5 -50q-67 0 -123.5 30t-81.5 82h-9v-457h-202z" />
    <glyph glyph-name="paragraph" unicode="&#xb6;" horiz-adv-x="1291" 
d="M760 -210h-196v712h-20q-55 0 -113 14t-118.5 47t-108 81t-77.5 123t-30 166q0 99 30.5 176.5t77 124.5t108 77.5t118.5 42t114 11.5h215v-1575zM920 -210v1575h196v-1575h-196z" />
    <glyph glyph-name="periodcentered" unicode="&#xb7;" horiz-adv-x="607" 
d="M175 537q0 53 37.5 91t90.5 38t91 -38t38 -91t-38 -90.5t-91 -37.5t-90.5 37.5t-37.5 90.5z" />
    <glyph glyph-name="cedilla" unicode="&#xb8;" horiz-adv-x="946" 
d="M352 -235v86l59 157h131l-53 -140q96 0 151.5 -42t55.5 -121q0 -92 -63 -139t-166 -51q-85 -4 -149 15v110q44 -13 114 -13q48 0 82 16.5t34 56.5q0 18 -8 31t-19.5 19.5t-33 10t-38 4t-44.5 0.5h-53z" />
    <glyph glyph-name="onesuperior" unicode="&#xb9;" horiz-adv-x="586" 
d="M422 692h-145v531h-6l-153 -113v135l159 120h145v-673z" />
    <glyph glyph-name="ordmasculine" unicode="&#xba;" horiz-adv-x="638" 
d="M320 1261q-63 0 -97 -44t-34 -114v-62q0 -71 33 -114.5t98 -43.5q64 0 97 43.5t33 114.5v62q0 70 -34 114t-96 44zM320 1371q122 0 196.5 -71.5t74.5 -192.5v-68q0 -126 -74 -196.5t-197 -70.5q-125 0 -198.5 70t-73.5 197v68q0 119 75.5 191.5t196.5 72.5z" />
    <glyph glyph-name="guillemotright" unicode="&#xbb;" horiz-adv-x="1265" 
d="M1145 565v-8l-335 -386h-204l339 389v6l-339 387h195zM661 565v-8l-335 -386h-205l339 389v6l-339 387h196z" />
    <glyph glyph-name="onequarter" unicode="&#xbc;" horiz-adv-x="1536" 
d="M987 230h198v329h-7q-72 -110 -191 -326v-3zM1119 674h195v-444h81v-112h-81v-118h-129v118h-334v109q58 106 268 447zM412 692h-145v531h-6l-153 -113v135l159 120h145v-673zM308 0h-167l534 695l510 670h166l-529 -690z" />
    <glyph glyph-name="onehalf" unicode="&#xbd;" horiz-adv-x="1536" 
d="M1071 471h-141v11q0 41 15 78.5t44 68.5t76 49t106 18q107 0 172.5 -56t65.5 -142q0 -33 -10 -64.5t-32 -61.5t-36.5 -47t-42.5 -45l-160 -155v-2h293v-123h-479v93l247 261q22 23 36 40t27 43t13 50q0 40 -27.5 64.5t-69.5 24.5q-45 0 -71 -27.5t-26 -66.5v-11zM394 692
h-145v531h-6l-153 -113v135l159 120h145v-673zM288 0h-167l534 695l510 670h166l-529 -690z" />
    <glyph glyph-name="threequarters" unicode="&#xbe;" horiz-adv-x="1536" 
d="M1032 232h197v327h-6q-73 -111 -191 -324v-3zM1164 674h196v-442h79v-114h-79v-118h-131v118h-333v109q76 138 268 447zM266 961v116h77q44 0 70.5 24.5t26.5 62.5t-26.5 61t-69.5 23q-45 0 -72 -24t-29 -59h-136q3 85 66 141.5t173 56.5q104 0 169 -49.5t65 -129.5
q0 -57 -35 -99.5t-90 -57.5v-2q64 -10 105.5 -50.5t41.5 -109.5q0 -94 -73 -151t-183 -57q-115 0 -182 59.5t-69 141.5h134q4 -36 34.5 -60t79.5 -24q51 0 83 27t32 68q0 40 -30.5 66t-82.5 26h-79zM352 0h-167l534 695l510 670h166l-529 -690z" />
    <glyph glyph-name="questiondown" unicode="&#xbf;" horiz-adv-x="956" 
d="M898 85q1 -86 -24 -155t-66.5 -113t-98 -73.5t-115.5 -41.5t-122 -12q-82 0 -155 21.5t-131.5 63.5t-92.5 109.5t-34 153.5q0 60 15.5 109.5t48 90t59 64.5t72.5 60q53 41 75 60t45.5 48t30.5 57.5t7 71.5v58h192v-78q1 -52 -12.5 -97.5t-42 -83.5t-58.5 -66.5t-74 -61.5
q-43 -34 -64 -52t-45.5 -46t-33.5 -57t-9 -66q0 -96 62.5 -144t154.5 -48q109 0 167 63.5t58 164.5h191zM631 984q0 -52 -37 -87.5t-90 -35.5t-90 35.5t-37 87.5t37 87t90 35t90 -35t37 -87z" />
    <glyph glyph-name="Agrave" unicode="&#xc0;" horiz-adv-x="1220" 
d="M234 0h-212l476 1365h224l476 -1365h-218l-128 391h-490zM611 1141h-7l-193 -590h392zM695 1510h-149l-235 279h193z" />
    <glyph glyph-name="Aacute" unicode="&#xc1;" horiz-adv-x="1220" 
d="M234 0h-212l476 1365h224l476 -1365h-218l-128 391h-490zM611 1141h-7l-193 -590h392zM674 1510h-149l191 279h193z" />
    <glyph glyph-name="Acircumflex" unicode="&#xc2;" horiz-adv-x="1220" 
d="M234 0h-212l476 1365h224l476 -1365h-218l-128 391h-490zM611 1141h-7l-193 -590h392zM331 1510l217 291h124l217 -291h-160l-117 172h-4l-117 -172h-160z" />
    <glyph glyph-name="Atilde" unicode="&#xc3;" horiz-adv-x="1220" 
d="M234 0h-212l476 1365h224l476 -1365h-218l-128 391h-490zM611 1141h-7l-193 -590h392zM718 1480q-34 0 -63 11.5t-48.5 28t-36.5 33.5t-34.5 28.5t-34.5 11.5q-55 0 -58 -94h-115q0 83 44 142.5t126 59.5q41 0 77 -17.5t56 -39t43.5 -39t42.5 -17.5q29 0 44 29t18 67h115
q0 -80 -47 -142t-129 -62z" />
    <glyph glyph-name="Adieresis" unicode="&#xc4;" horiz-adv-x="1220" 
d="M234 0h-212l476 1365h224l476 -1365h-218l-128 391h-490zM611 1141h-7l-193 -590h392zM449 1489q-39 0 -65.5 27.5t-26.5 67.5q0 42 26.5 69.5t65.5 27.5q41 0 68 -27.5t27 -69.5q0 -40 -27 -67.5t-68 -27.5zM769 1489q-39 0 -66 27.5t-27 67.5q0 42 27 69.5t66 27.5
q41 0 67.5 -27.5t26.5 -69.5q0 -41 -27 -68t-67 -27z" />
    <glyph glyph-name="Aring" unicode="&#xc5;" horiz-adv-x="1220" 
d="M234 0h-212l476 1365h224l476 -1365h-218l-128 391h-490zM611 1141h-7l-193 -590h392zM610 1485q-83 0 -140.5 55t-57.5 138q0 82 57.5 137t140.5 55q84 0 141 -55t57 -137q0 -83 -57 -138t-141 -55zM511 1678q0 -43 28.5 -72t70.5 -29t70.5 29t28.5 72q0 42 -28.5 71
t-70.5 29t-70.5 -29t-28.5 -71z" />
    <glyph glyph-name="AE" unicode="&#xc6;" horiz-adv-x="1864" 
d="M851 1188l-316 -618h387v618h-71zM922 405h-468l-212 -405h-230l719 1365h1021v-177h-626v-408h590v-170h-590v-433h626v-177h-830v405z" />
    <glyph glyph-name="Ccedilla" unicode="&#xc7;" horiz-adv-x="1258" 
d="M624 -485q-83 0 -133 15v110q52 -13 115 -13q53 0 84.5 18.5t31.5 52.5q0 37 -31.5 52t-111.5 15h-53v86l47 125q-225 25 -347.5 187t-122.5 430v172q0 295 144.5 461.5t403.5 166.5q223 0 368 -131.5t145 -335.5v-10h-201q-3 132 -88.5 214.5t-222.5 82.5
q-164 0 -253 -116.5t-89 -331.5v-172q0 -212 89 -326.5t253 -114.5q137 0 222.5 76.5t88.5 200.5h201v-11q0 -182 -129.5 -305.5t-331.5 -137.5l-40 -107q99 0 153 -43t54 -120q0 -91 -65 -140.5t-181 -49.5z" />
    <glyph glyph-name="Egrave" unicode="&#xc8;" horiz-adv-x="1107" 
d="M656 1510h-149l-235 279h193zM996 177v-177h-838v1365h838v-177h-633v-408h597v-170h-597v-433h633z" />
    <glyph glyph-name="Eacute" unicode="&#xc9;" horiz-adv-x="1107" 
d="M635 1510h-149l191 279h193zM996 177v-177h-838v1365h838v-177h-633v-408h597v-170h-597v-433h633z" />
    <glyph glyph-name="Ecircumflex" unicode="&#xca;" horiz-adv-x="1107" 
d="M292 1510l217 291h124l217 -291h-160l-117 172h-4l-117 -172h-160zM996 177v-177h-838v1365h838v-177h-633v-408h597v-170h-597v-433h633z" />
    <glyph glyph-name="Edieresis" unicode="&#xcb;" horiz-adv-x="1107" 
d="M410 1489q-39 0 -65.5 27.5t-26.5 67.5q0 42 26.5 69.5t65.5 27.5q41 0 68 -27.5t27 -69.5q0 -40 -27.5 -67.5t-67.5 -27.5zM730 1489q-39 0 -66 27.5t-27 67.5q0 42 27 69.5t66 27.5q41 0 67.5 -27.5t26.5 -69.5q0 -41 -27 -68t-67 -27zM996 177v-177h-838v1365h838
v-177h-633v-408h597v-170h-597v-433h633z" />
    <glyph glyph-name="Igrave" unicode="&#xcc;" horiz-adv-x="521" 
d="M364 0h-206v1365h206v-1365zM345 1510h-149l-235 279h193z" />
    <glyph glyph-name="Iacute" unicode="&#xcd;" horiz-adv-x="521" 
d="M364 0h-206v1365h206v-1365zM324 1510h-149l191 279h193z" />
    <glyph glyph-name="Icircumflex" unicode="&#xce;" horiz-adv-x="521" 
d="M364 0h-206v1365h206v-1365zM-19 1510l217 291h124l217 -291h-160l-117 172h-4l-117 -172h-160z" />
    <glyph glyph-name="Idieresis" unicode="&#xcf;" horiz-adv-x="521" 
d="M364 0h-206v1365h206v-1365zM99 1489q-39 0 -65.5 27.5t-26.5 67.5q0 42 26.5 69.5t65.5 27.5q41 0 68 -27.5t27 -69.5q0 -40 -27 -67.5t-68 -27.5zM419 1489q-39 0 -66 27.5t-27 67.5q0 42 27 69.5t66 27.5q41 0 67.5 -27.5t26.5 -69.5q0 -41 -27 -68t-67 -27z" />
    <glyph glyph-name="Eth" unicode="&#xd0;" horiz-adv-x="1384" 
d="M634 0h-458v607h-99v179h99v579h458q300 0 451.5 -173t151.5 -508t-152 -509.5t-451 -174.5zM382 179h233q203 0 306 122.5t103 382.5q0 506 -409 506h-233v-404h350v-179h-350v-428z" />
    <glyph glyph-name="Ntilde" unicode="&#xd1;" horiz-adv-x="1368" 
d="M791 1480q-34 0 -63 11.5t-48.5 28t-36.5 33.5t-34.5 28.5t-34.5 11.5q-55 0 -58 -94h-115q0 83 44 142.5t126 59.5q41 0 77 -17.5t56 -39t43.5 -39t42.5 -17.5q29 0 44 29t18 67h115q0 -80 -47 -142t-129 -62zM352 0h-194v1365h187l664 -1014h6v1014h195v-1365h-187
l-665 1016h-6v-1016z" />
    <glyph glyph-name="Ograve" unicode="&#xd2;" horiz-adv-x="1326" 
d="M746 1510h-149l-235 279h193zM311 774v-194q0 -211 97 -320t255 -109t255 109t97 320v194q0 211 -97.5 325.5t-254.5 114.5q-156 0 -254 -114.5t-98 -325.5zM103 580v192q0 289 152 455t410 166t408 -165.5t150 -455.5v-192q0 -287 -151 -447.5t-411 -160.5
q-259 0 -408.5 160.5t-149.5 447.5z" />
    <glyph glyph-name="Oacute" unicode="&#xd3;" horiz-adv-x="1326" 
d="M725 1510h-149l191 279h193zM311 774v-194q0 -211 97 -320t255 -109t255 109t97 320v194q0 211 -97.5 325.5t-254.5 114.5q-156 0 -254 -114.5t-98 -325.5zM103 580v192q0 289 152 455t410 166t408 -165.5t150 -455.5v-192q0 -287 -151 -447.5t-411 -160.5
q-259 0 -408.5 160.5t-149.5 447.5z" />
    <glyph glyph-name="Ocircumflex" unicode="&#xd4;" horiz-adv-x="1326" 
d="M382 1510l217 291h124l217 -291h-160l-117 172h-4l-117 -172h-160zM311 774v-194q0 -211 97 -320t255 -109t255 109t97 320v194q0 211 -97.5 325.5t-254.5 114.5q-156 0 -254 -114.5t-98 -325.5zM103 580v192q0 289 152 455t410 166t408 -165.5t150 -455.5v-192
q0 -287 -151 -447.5t-411 -160.5q-259 0 -408.5 160.5t-149.5 447.5z" />
    <glyph glyph-name="Otilde" unicode="&#xd5;" horiz-adv-x="1326" 
d="M311 774v-194q0 -211 97 -320t255 -109t255 109t97 320v194q0 211 -97.5 325.5t-254.5 114.5q-156 0 -254 -114.5t-98 -325.5zM103 580v192q0 289 152 455t410 166t408 -165.5t150 -455.5v-192q0 -287 -151 -447.5t-411 -160.5q-259 0 -408.5 160.5t-149.5 447.5z
M769 1480q-34 0 -63 11.5t-48.5 28t-36.5 33.5t-34.5 28.5t-34.5 11.5q-55 0 -58 -94h-115q0 83 44 142.5t126 59.5q41 0 77 -17.5t56 -39t43.5 -39t42.5 -17.5q29 0 44 29t18 67h115q0 -80 -47 -142t-129 -62z" />
    <glyph glyph-name="Odieresis" unicode="&#xd6;" horiz-adv-x="1326" 
d="M501 1489q-39 0 -65.5 27.5t-26.5 67.5q0 42 26.5 69.5t65.5 27.5q41 0 68 -27.5t27 -69.5q0 -40 -27 -67.5t-68 -27.5zM821 1489q-39 0 -66 27.5t-27 67.5q0 42 27 69.5t66 27.5q41 0 67.5 -27.5t26.5 -69.5q0 -41 -27 -68t-67 -27zM311 774v-194q0 -211 97 -320
t255 -109t255 109t97 320v194q0 211 -97.5 325.5t-254.5 114.5q-156 0 -254 -114.5t-98 -325.5zM103 580v192q0 289 152 455t410 166t408 -165.5t150 -455.5v-192q0 -287 -151 -447.5t-411 -160.5q-259 0 -408.5 160.5t-149.5 447.5z" />
    <glyph glyph-name="multiply" unicode="&#xd7;" horiz-adv-x="1114" 
d="M867 72l-310 310l-311 -310l-120 121l310 310l-310 310l120 120l311 -310l310 310l120 -120l-310 -310l310 -310z" />
    <glyph glyph-name="Oslash" unicode="&#xd8;" horiz-adv-x="1324" 
d="M660 -28q-236 0 -380 136l-100 -124l-105 86l116 145q-88 148 -88 365v192q0 289 151 455t409 166q228 0 373 -133l95 118l109 -79l-116 -144q97 -154 97 -383v-192q0 -287 -151 -447.5t-410 -160.5zM308 579q0 -107 28 -186l576 714q-95 109 -251 109
q-157 0 -255 -114.5t-98 -327.5v-195zM661 148q160 0 257 109.5t97 321.5v195q0 117 -34 204l-578 -718q94 -112 258 -112z" />
    <glyph glyph-name="Ugrave" unicode="&#xd9;" horiz-adv-x="1341" 
d="M755 1510h-149l-235 279h193zM346 1365v-881q0 -153 88 -242t236 -89t236.5 89.5t88.5 241.5v881h204v-909q0 -216 -142 -350t-387 -134q-244 0 -386 134t-142 350v909h204z" />
    <glyph glyph-name="Uacute" unicode="&#xda;" horiz-adv-x="1341" 
d="M734 1510h-149l191 279h193zM346 1365v-881q0 -153 88 -242t236 -89t236.5 89.5t88.5 241.5v881h204v-909q0 -216 -142 -350t-387 -134q-244 0 -386 134t-142 350v909h204z" />
    <glyph glyph-name="Ucircumflex" unicode="&#xdb;" horiz-adv-x="1341" 
d="M391 1510l217 291h124l217 -291h-160l-117 172h-4l-117 -172h-160zM346 1365v-881q0 -153 88 -242t236 -89t236.5 89.5t88.5 241.5v881h204v-909q0 -216 -142 -350t-387 -134q-244 0 -386 134t-142 350v909h204z" />
    <glyph glyph-name="Udieresis" unicode="&#xdc;" horiz-adv-x="1341" 
d="M509 1489q-39 0 -65.5 27.5t-26.5 67.5q0 42 26.5 69.5t65.5 27.5q41 0 68 -27.5t27 -69.5q0 -40 -27 -67.5t-68 -27.5zM829 1489q-39 0 -66 27.5t-27 67.5q0 42 27 69.5t66 27.5q41 0 67.5 -27.5t26.5 -69.5q0 -41 -27 -68t-67 -27zM346 1365v-881q0 -153 88 -242
t236 -89t236.5 89.5t88.5 241.5v881h204v-909q0 -216 -142 -350t-387 -134q-244 0 -386 134t-142 350v909h204z" />
    <glyph glyph-name="Yacute" unicode="&#xdd;" horiz-adv-x="1108" 
d="M656 0h-204v565l-457 800h232l325 -597h7l326 597h228l-457 -797v-568zM618 1510h-149l191 279h193z" />
    <glyph glyph-name="Thorn" unicode="&#xde;" horiz-adv-x="1161" 
d="M158 1365h204v-252h292q206 0 325 -106t119 -295q0 -191 -119.5 -296t-325.5 -105h-290v-311h-205v1365zM363 939v-456h230q55 0 94.5 4.5t79.5 18.5t64.5 38.5t40 66.5t15.5 101q0 227 -258 227h-266z" />
    <glyph glyph-name="germandbls" unicode="&#xdf;" horiz-adv-x="1252" 
d="M358 0h-202v1045q0 186 121 290.5t320 104.5q198 0 319 -98t121 -256q0 -74 -25.5 -136.5t-65.5 -100.5t-82 -60.5t-81 -26.5v-13q70 0 137 -23.5t122.5 -67t89 -114.5t33.5 -158q0 -98 -40 -176.5t-108 -127t-153 -74t-180 -25.5t-156 19v164q50 -19 140 -19
q56 0 105.5 13t92 40t68 75.5t25.5 113.5q0 117 -89.5 183.5t-238.5 66.5h-77v188h47q89 0 162.5 66t73.5 169q0 93 -63 152t-172 59q-244 0 -244 -259v-1014z" />
    <glyph glyph-name="agrave" unicode="&#xe0;" horiz-adv-x="1067" 
d="M731 130q-88 -147 -299 -147q-154 0 -249 87.5t-95 232.5q0 142 96 223t275 82h271v103q0 96 -53.5 147t-152.5 51q-93 0 -146.5 -44t-60.5 -119h-190q8 145 109 235t294 90q179 0 290 -91t111 -258v-722h-193v130h-7zM491 142q103 0 171 58t68 149v119h-243
q-98 0 -146.5 -42t-48.5 -113q0 -82 58 -126.5t141 -44.5zM622 1188h-149l-235 278h194z" />
    <glyph glyph-name="aacute" unicode="&#xe1;" horiz-adv-x="1067" 
d="M731 130q-88 -147 -299 -147q-154 0 -249 87.5t-95 232.5q0 142 96 223t275 82h271v103q0 96 -53.5 147t-152.5 51q-93 0 -146.5 -44t-60.5 -119h-190q8 145 109 235t294 90q179 0 290 -91t111 -258v-722h-193v130h-7zM491 142q103 0 171 58t68 149v119h-243
q-98 0 -146.5 -42t-48.5 -113q0 -82 58 -126.5t141 -44.5zM597 1188h-149l191 278h193z" />
    <glyph glyph-name="acircumflex" unicode="&#xe2;" horiz-adv-x="1067" 
d="M731 130q-88 -147 -299 -147q-154 0 -249 87.5t-95 232.5q0 142 96 223t275 82h271v103q0 96 -53.5 147t-152.5 51q-93 0 -146.5 -44t-60.5 -119h-190q8 145 109 235t294 90q179 0 290 -91t111 -258v-722h-193v130h-7zM491 142q103 0 171 58t68 149v119h-243
q-98 0 -146.5 -42t-48.5 -113q0 -82 58 -126.5t141 -44.5zM255 1188l217 303h126l217 -303h-161l-117 180h-4l-117 -180h-161z" />
    <glyph glyph-name="atilde" unicode="&#xe3;" horiz-adv-x="1067" 
d="M731 130q-88 -147 -299 -147q-154 0 -249 87.5t-95 232.5q0 142 96 223t275 82h271v103q0 96 -53.5 147t-152.5 51q-93 0 -146.5 -44t-60.5 -119h-190q8 145 109 235t294 90q179 0 290 -91t111 -258v-722h-193v130h-7zM491 142q103 0 171 58t68 149v119h-243
q-98 0 -146.5 -42t-48.5 -113q0 -82 58 -126.5t141 -44.5zM644 1183q-45 0 -83.5 20t-60.5 44t-48.5 44t-49.5 20q-26 0 -41.5 -21t-19.5 -42t-5 -45h-128q0 95 50 161.5t139 66.5q45 0 84 -20t61 -43.5t49 -43.5t50 -20q34 0 51.5 33.5t21.5 76.5h128q0 -89 -53.5 -160
t-144.5 -71z" />
    <glyph glyph-name="adieresis" unicode="&#xe4;" horiz-adv-x="1067" 
d="M731 130q-88 -147 -299 -147q-154 0 -249 87.5t-95 232.5q0 142 96 223t275 82h271v103q0 96 -53.5 147t-152.5 51q-93 0 -146.5 -44t-60.5 -119h-190q8 145 109 235t294 90q179 0 290 -91t111 -258v-722h-193v130h-7zM491 142q103 0 171 58t68 149v119h-243
q-98 0 -146.5 -42t-48.5 -113q0 -82 58 -126.5t141 -44.5zM366 1198q-41 0 -69.5 29t-28.5 71q0 45 28 74t70 29q43 0 71 -29t28 -74q0 -42 -28.5 -71t-70.5 -29zM722 1198q-41 0 -69 29t-28 71q0 45 27.5 74t69.5 29q44 0 72.5 -29t28.5 -74q0 -42 -29 -71t-72 -29z" />
    <glyph glyph-name="aring" unicode="&#xe5;" horiz-adv-x="1067" 
d="M731 130q-88 -147 -299 -147q-154 0 -249 87.5t-95 232.5q0 142 96 223t275 82h271v103q0 96 -53.5 147t-152.5 51q-93 0 -146.5 -44t-60.5 -119h-190q8 145 109 235t294 90q179 0 290 -91t111 -258v-722h-193v130h-7zM491 142q103 0 171 58t68 149v119h-243
q-98 0 -146.5 -42t-48.5 -113q0 -82 58 -126.5t141 -44.5zM535 1182q-83 0 -140.5 55t-57.5 138q0 82 57.5 137t140.5 55q84 0 141 -55t57 -137q0 -83 -57 -138t-141 -55zM436 1375q0 -43 28.5 -72t70.5 -29t70.5 29t28.5 72q0 42 -28.5 71t-70.5 29t-70.5 -29t-28.5 -71z
" />
    <glyph glyph-name="ae" unicode="&#xe6;" horiz-adv-x="1727" 
d="M1197 -18q-262 0 -376 199h-3q-123 -199 -371 -199q-164 0 -261.5 87.5t-97.5 233.5q0 147 96.5 233.5t274.5 86.5h271v88q0 96 -53.5 147t-152.5 51q-93 0 -146.5 -44t-60.5 -119h-190q8 145 109 235.5t294 90.5q107 0 193 -37.5t135 -104.5h3q111 142 322 142
q215 0 330 -136t115 -364v-92h-690v-30q0 -60 15.5 -113.5t46 -96t81 -67t115.5 -24.5q97 0 150.5 42t67.5 106h201q-8 -56 -34.5 -108t-74 -100t-127.5 -77.5t-182 -29.5zM938 628h491v3q0 123 -66 200.5t-179 77.5t-179.5 -78t-66.5 -200v-3zM491 142q103 0 171 58t68 149
v128h-236q-103 0 -152.5 -43.5t-49.5 -120.5q0 -82 58 -126.5t141 -44.5z" />
    <glyph glyph-name="ccedilla" unicode="&#xe7;" horiz-adv-x="1052" 
d="M543 -468q-87 -3 -149 15v111q47 -14 115 -14q115 0 115 73q0 19 -7.5 31.5t-17.5 19.5t-29.5 10.5t-35.5 4t-44 0.5h-53v85l51 118q-181 21 -283 156.5t-102 340.5v98q0 219 120.5 355t327.5 136q181 0 293.5 -100t119.5 -239h-194q-16 70 -72.5 119t-134.5 49
q-121 0 -189 -86.5t-68 -238.5v-94q0 -150 70 -239t188 -89q90 0 144.5 43t68.5 110h193q-21 -136 -111 -221t-240 -100l-45 -101q94 0 146.5 -41.5t52.5 -121.5q0 -92 -63 -139t-167 -51z" />
    <glyph glyph-name="egrave" unicode="&#xe8;" horiz-adv-x="1093" 
d="M635 1188h-149l-235 278h194zM557 -18q-210 0 -332 133.5t-122 363.5v111q0 219 119.5 350.5t326.5 131.5t325.5 -134.5t118.5 -357.5v-100h-689v-22q0 -141 69.5 -227t187.5 -86q86 0 143.5 40t80.5 112h195q-28 -138 -136.5 -226.5t-286.5 -88.5zM304 628h490v3
q0 120 -68 200t-176 80q-110 0 -178 -80t-68 -200v-3z" />
    <glyph glyph-name="eacute" unicode="&#xe9;" horiz-adv-x="1093" 
d="M610 1188h-149l191 278h193zM557 -18q-210 0 -332 133.5t-122 363.5v111q0 219 119.5 350.5t326.5 131.5t325.5 -134.5t118.5 -357.5v-100h-689v-22q0 -141 69.5 -227t187.5 -86q86 0 143.5 40t80.5 112h195q-28 -138 -136.5 -226.5t-286.5 -88.5zM304 628h490v3
q0 120 -68 200t-176 80q-110 0 -178 -80t-68 -200v-3z" />
    <glyph glyph-name="ecircumflex" unicode="&#xea;" horiz-adv-x="1093" 
d="M268 1188l217 303h126l217 -303h-161l-117 180h-4l-117 -180h-161zM557 -18q-210 0 -332 133.5t-122 363.5v111q0 219 119.5 350.5t326.5 131.5t325.5 -134.5t118.5 -357.5v-100h-689v-22q0 -141 69.5 -227t187.5 -86q86 0 143.5 40t80.5 112h195q-28 -138 -136.5 -226.5
t-286.5 -88.5zM304 628h490v3q0 120 -68 200t-176 80q-110 0 -178 -80t-68 -200v-3z" />
    <glyph glyph-name="edieresis" unicode="&#xeb;" horiz-adv-x="1093" 
d="M557 -18q-210 0 -332 133.5t-122 363.5v111q0 219 119.5 350.5t326.5 131.5t325.5 -134.5t118.5 -357.5v-100h-689v-22q0 -141 69.5 -227t187.5 -86q86 0 143.5 40t80.5 112h195q-28 -138 -136.5 -226.5t-286.5 -88.5zM304 628h490v3q0 120 -68 200t-176 80
q-110 0 -178 -80t-68 -200v-3zM379 1198q-41 0 -69.5 29t-28.5 71q0 45 28 74t70 29q43 0 71 -29t28 -74q0 -42 -28.5 -71t-70.5 -29zM735 1198q-41 0 -69 29t-28 71q0 45 27.5 74t69.5 29q44 0 72.5 -29t28.5 -74q0 -42 -29 -71t-72 -29z" />
    <glyph glyph-name="igrave" unicode="&#xec;" horiz-adv-x="514" 
d="M341 1188h-149l-235 278h194zM156 0v1054h202v-1054h-202z" />
    <glyph glyph-name="iacute" unicode="&#xed;" horiz-adv-x="514" 
d="M316 1188h-149l191 278h193zM156 0v1054h202v-1054h-202z" />
    <glyph glyph-name="icircumflex" unicode="&#xee;" horiz-adv-x="514" 
d="M-26 1188l217 303h126l217 -303h-161l-117 180h-4l-117 -180h-161zM156 0v1054h202v-1054h-202z" />
    <glyph glyph-name="idieresis" unicode="&#xef;" horiz-adv-x="514" 
d="M156 0v1054h202v-1054h-202zM85 1198q-41 0 -69.5 29t-28.5 71q0 45 28 74t70 29q43 0 71 -29t28 -74q0 -42 -28.5 -71t-70.5 -29zM441 1198q-41 0 -69 29t-28 71q0 45 27.5 74t69.5 29q44 0 72.5 -29t28.5 -74q0 -42 -29 -71t-72 -29z" />
    <glyph glyph-name="eth" unicode="&#xf0;" horiz-adv-x="1115" 
d="M568 -18q-222 0 -343.5 138.5t-121.5 364.5v32q0 143 50.5 255.5t148 178t227.5 65.5q176 0 261 -121h11q-21 59 -22 62q-55 149 -135 250l-253 -92l-46 108l217 77q-122 134 -226 222h246q79 -63 157 -156l271 97l41 -102l-231 -86q102 -150 155 -330.5t53 -373.5v-86
q0 -226 -118.5 -364.5t-341.5 -138.5zM567 851q-125 0 -194 -88.5t-69 -245.5v-30q0 -157 69 -246t194 -89q124 0 192.5 89t68.5 246v30q0 157 -68.5 245.5t-192.5 88.5z" />
    <glyph glyph-name="ntilde" unicode="&#xf1;" horiz-adv-x="1163" 
d="M694 1183q-45 0 -83.5 20t-60.5 44t-48.5 44t-49.5 20q-26 0 -41.5 -21t-19.5 -42t-5 -45h-128q0 95 50 161.5t139 66.5q45 0 84 -20t61 -43.5t49 -43.5t50 -20q34 0 51.5 33.5t21.5 76.5h128q0 -89 -53.5 -160t-144.5 -71zM146 0v1054h199v-144h7q34 64 112 112.5
t195 48.5q167 0 270 -103t103 -291v-677h-201v639q0 125 -66 189.5t-175 64.5q-119 0 -181 -73t-62 -186v-634h-201z" />
    <glyph glyph-name="ograve" unicode="&#xf2;" horiz-adv-x="1132" 
d="M654 1188h-149l-235 278h194zM567 1072q218 0 339.5 -138.5t121.5 -359.5v-89q0 -226 -121 -364.5t-340 -138.5q-220 0 -342 138.5t-122 364.5v88q0 221 122.5 360t341.5 139zM566 906q-125 0 -192.5 -91t-67.5 -246v-81q0 -154 67.5 -246t192.5 -92q126 0 192.5 91.5
t66.5 246.5v81q0 155 -67 246t-192 91z" />
    <glyph glyph-name="oacute" unicode="&#xf3;" horiz-adv-x="1132" 
d="M629 1188h-149l191 278h193zM567 1072q218 0 339.5 -138.5t121.5 -359.5v-89q0 -226 -121 -364.5t-340 -138.5q-220 0 -342 138.5t-122 364.5v88q0 221 122.5 360t341.5 139zM566 906q-125 0 -192.5 -91t-67.5 -246v-81q0 -154 67.5 -246t192.5 -92q126 0 192.5 91.5
t66.5 246.5v81q0 155 -67 246t-192 91z" />
    <glyph glyph-name="ocircumflex" unicode="&#xf4;" horiz-adv-x="1132" 
d="M287 1188l217 303h126l217 -303h-161l-117 180h-4l-117 -180h-161zM567 1072q218 0 339.5 -138.5t121.5 -359.5v-89q0 -226 -121 -364.5t-340 -138.5q-220 0 -342 138.5t-122 364.5v88q0 221 122.5 360t341.5 139zM566 906q-125 0 -192.5 -91t-67.5 -246v-81
q0 -154 67.5 -246t192.5 -92q126 0 192.5 91.5t66.5 246.5v81q0 155 -67 246t-192 91z" />
    <glyph glyph-name="otilde" unicode="&#xf5;" horiz-adv-x="1132" 
d="M676 1183q-45 0 -83.5 20t-60.5 44t-48.5 44t-49.5 20q-26 0 -41.5 -21t-19.5 -42t-5 -45h-128q0 95 50 161.5t139 66.5q45 0 84 -20t61 -43.5t49 -43.5t50 -20q34 0 51.5 33.5t21.5 76.5h128q0 -89 -53.5 -160t-144.5 -71zM567 1072q218 0 339.5 -138.5t121.5 -359.5
v-89q0 -226 -121 -364.5t-340 -138.5q-220 0 -342 138.5t-122 364.5v88q0 221 122.5 360t341.5 139zM566 906q-125 0 -192.5 -91t-67.5 -246v-81q0 -154 67.5 -246t192.5 -92q126 0 192.5 91.5t66.5 246.5v81q0 155 -67 246t-192 91z" />
    <glyph glyph-name="odieresis" unicode="&#xf6;" horiz-adv-x="1132" 
d="M398 1198q-41 0 -69.5 29t-28.5 71q0 45 28 74t70 29q43 0 71 -29t28 -74q0 -42 -28.5 -71t-70.5 -29zM754 1198q-41 0 -69 29t-28 71q0 45 27.5 74t69.5 29q44 0 72.5 -29t28.5 -74q0 -42 -29 -71t-72 -29zM567 1072q218 0 339.5 -138.5t121.5 -359.5v-89
q0 -226 -121 -364.5t-340 -138.5q-220 0 -342 138.5t-122 364.5v88q0 221 122.5 360t341.5 139zM566 906q-125 0 -192.5 -91t-67.5 -246v-81q0 -154 67.5 -246t192.5 -92q126 0 192.5 91.5t66.5 246.5v81q0 155 -67 246t-192 91z" />
    <glyph glyph-name="divide" unicode="&#xf7;" horiz-adv-x="1114" 
d="M1033 479h-952v153h952v-153zM432 180q0 54 35.5 87.5t87.5 33.5q55 0 91 -33.5t36 -87.5q0 -52 -36 -85.5t-91 -33.5q-51 0 -87 34t-36 85zM432 936q0 54 35.5 87.5t87.5 33.5q55 0 91 -33.5t36 -87.5q0 -52 -36 -85.5t-91 -33.5q-51 0 -87 34t-36 85z" />
    <glyph glyph-name="oslash" unicode="&#xf8;" horiz-adv-x="1132" 
d="M399 213q65 -65 167 -65q127 0 194 92.5t67 247.5v82q0 109 -36 181zM305 488q0 -98 30 -169l389 534q-62 56 -158 56q-126 0 -193.5 -92t-67.5 -247v-82zM567 -18q-168 0 -279 82l-103 -139l-99 75l113 153q-96 131 -96 332v88q0 221 122.5 360t341.5 139q157 0 265 -74
l96 129l99 -77l-103 -138q104 -131 104 -338v-89q0 -226 -121 -364.5t-340 -138.5z" />
    <glyph glyph-name="ugrave" unicode="&#xf9;" horiz-adv-x="1158" 
d="M662 1188h-149l-235 278h194zM1012 1054v-1054h-199v143h-8q-30 -69 -108 -114.5t-197 -45.5q-168 0 -268.5 95.5t-100.5 273.5v702h202v-646q0 -133 65 -190t171 -57q108 0 174.5 66t66.5 184v643h202z" />
    <glyph glyph-name="uacute" unicode="&#xfa;" horiz-adv-x="1158" 
d="M637 1188h-149l191 278h193zM1012 1054v-1054h-199v143h-8q-30 -69 -108 -114.5t-197 -45.5q-168 0 -268.5 95.5t-100.5 273.5v702h202v-646q0 -133 65 -190t171 -57q108 0 174.5 66t66.5 184v643h202z" />
    <glyph glyph-name="ucircumflex" unicode="&#xfb;" horiz-adv-x="1158" 
d="M295 1188l217 303h126l217 -303h-161l-117 180h-4l-117 -180h-161zM1012 1054v-1054h-199v143h-8q-30 -69 -108 -114.5t-197 -45.5q-168 0 -268.5 95.5t-100.5 273.5v702h202v-646q0 -133 65 -190t171 -57q108 0 174.5 66t66.5 184v643h202z" />
    <glyph glyph-name="udieresis" unicode="&#xfc;" horiz-adv-x="1158" 
d="M1012 1054v-1054h-199v143h-8q-30 -69 -108 -114.5t-197 -45.5q-168 0 -268.5 95.5t-100.5 273.5v702h202v-646q0 -133 65 -190t171 -57q108 0 174.5 66t66.5 184v643h202zM406 1198q-41 0 -69.5 29t-28.5 71q0 45 28 74t70 29q43 0 71 -29t28 -74q0 -42 -28.5 -71
t-70.5 -29zM762 1198q-41 0 -69 29t-28 71q0 45 27.5 74t69.5 29q44 0 72.5 -29t28.5 -74q0 -42 -29 -71t-72 -29z" />
    <glyph glyph-name="yacute" unicode="&#xfd;" horiz-adv-x="986" 
d="M982 1054q-365 -1044 -366 -1048l-27 -73q-21 -57 -41 -97.5t-52 -84.5t-70 -71t-93.5 -44.5t-124.5 -17.5q-60 0 -119 9v157q27 -5 80 -5q91 0 136 39.5t66 120.5l14 50l-381 1065h224l265 -848h7l267 848h215zM560 1188h-149l191 278h193z" />
    <glyph glyph-name="thorn" unicode="&#xfe;" horiz-adv-x="1172" 
d="M654 -16q-99 0 -176 43t-121 117h-7v-506h-202v1799h202v-531h7q40 76 119 120t184 44q181 0 294.5 -132t113.5 -363v-95q0 -230 -114 -363t-300 -133zM616 154q114 0 181 88.5t67 250.5v75q0 158 -66.5 246t-185.5 88q-122 0 -193 -90.5t-71 -242.5v-76
q0 -156 72 -247.5t196 -91.5z" />
    <glyph glyph-name="ydieresis" unicode="&#xff;" horiz-adv-x="986" 
d="M982 1054q-365 -1044 -366 -1048l-27 -73q-21 -57 -41 -97.5t-52 -84.5t-70 -71t-93.5 -44.5t-124.5 -17.5q-60 0 -119 9v157q27 -5 80 -5q91 0 136 39.5t66 120.5l14 50l-381 1065h224l265 -848h7l267 848h215zM329 1198q-41 0 -69.5 29t-28.5 71q0 45 28 74t70 29
q43 0 71 -29t28 -74q0 -42 -28.5 -71t-70.5 -29zM685 1198q-41 0 -69 29t-28 71q0 45 27.5 74t69.5 29q44 0 72.5 -29t28.5 -74q0 -42 -29 -71t-72 -29z" />
    <glyph glyph-name="Amacron" unicode="&#x100;" horiz-adv-x="1220" 
d="M234 0h-212l476 1365h224l476 -1365h-218l-128 391h-490zM611 1141h-7l-193 -590h392zM886 1518h-552v116h552v-116z" />
    <glyph glyph-name="amacron" unicode="&#x101;" horiz-adv-x="1067" 
d="M731 130q-88 -147 -299 -147q-154 0 -249 87.5t-95 232.5q0 142 96 223t275 82h271v103q0 96 -53.5 147t-152.5 51q-93 0 -146.5 -44t-60.5 -119h-190q8 145 109 235t294 90q179 0 290 -91t111 -258v-722h-193v130h-7zM491 142q103 0 171 58t68 149v119h-243
q-98 0 -146.5 -42t-48.5 -113q0 -82 58 -126.5t141 -44.5zM814 1237h-558v128h558v-128z" />
    <glyph glyph-name="Abreve" unicode="&#x102;" horiz-adv-x="1220" 
d="M234 0h-212l476 1365h224l476 -1365h-218l-128 391h-490zM611 1141h-7l-193 -590h392zM319 1762h127q0 -67 41.5 -111t122.5 -44t122.5 44t41.5 111h126q0 -50 -17.5 -97t-51 -86.5t-91 -63.5t-130.5 -24t-130.5 24t-92 63.5t-51.5 86.5t-17 97z" />
    <glyph glyph-name="abreve" unicode="&#x103;" horiz-adv-x="1067" 
d="M731 130q-88 -147 -299 -147q-154 0 -249 87.5t-95 232.5q0 142 96 223t275 82h271v103q0 96 -53.5 147t-152.5 51q-93 0 -146.5 -44t-60.5 -119h-190q8 145 109 235t294 90q179 0 290 -91t111 -258v-722h-193v130h-7zM491 142q103 0 171 58t68 149v119h-243
q-98 0 -146.5 -42t-48.5 -113q0 -82 58 -126.5t141 -44.5zM240 1466h130q0 -69 42 -116t123 -47t123 47t42 116h129q0 -51 -17.5 -99.5t-52 -90t-92.5 -66.5t-132 -25t-132.5 25t-93 66t-52 90t-17.5 100z" />
    <glyph glyph-name="Aogonek" unicode="&#x104;" horiz-adv-x="1220" 
d="M234 0h-212l476 1365h224l469 -1344q-85 -22 -133 -68.5t-48 -103.5q0 -45 31 -72t86 -27q39 0 79 8v-125q-43 -20 -131 -20q-104 0 -168.5 55t-64.5 147q0 138 146 219v4h-21l-115 353h-490zM611 1141h-7l-193 -590h392z" />
    <glyph glyph-name="aogonek" unicode="&#x105;" horiz-adv-x="1067" 
d="M817 -387q-94 0 -159.5 49t-65.5 145q0 78 40 131.5t112 96.5v95h-8q-87 -147 -301 -147q-154 0 -250.5 87.5t-96.5 233.5q0 141 96 222t275 82h271v103q0 96 -53.5 147t-152.5 51q-93 0 -146.5 -44t-60.5 -119h-190q8 146 108.5 235.5t294.5 89.5q179 0 290 -91
t111 -258v-708q-72 -21 -124.5 -64.5t-52.5 -103.5q0 -44 31 -67.5t81 -23.5q43 0 80 8v-128q-55 -22 -129 -22zM491 142q103 0 171 58t68 149v119h-243q-98 0 -146.5 -42t-48.5 -113q0 -82 58 -126.5t141 -44.5z" />
    <glyph glyph-name="Cacute" unicode="&#x106;" horiz-adv-x="1258" 
d="M710 1510h-149l191 279h193zM310 765v-172q0 -212 89 -326.5t253 -114.5q137 0 222.5 76.5t88.5 200.5h201v-11q0 -194 -145.5 -320t-367.5 -126q-259 0 -403.5 164.5t-144.5 456.5v172q0 295 144.5 461.5t403.5 166.5q223 0 368 -131.5t145 -335.5v-10h-201
q-3 132 -88.5 214.5t-222.5 82.5q-164 0 -253 -116.5t-89 -331.5z" />
    <glyph glyph-name="cacute" unicode="&#x107;" horiz-adv-x="1052" 
d="M103 483v98q0 219 120.5 355t327.5 136q181 0 293.5 -100t119.5 -239h-194q-16 70 -72.5 119t-134.5 49q-121 0 -189 -86.5t-68 -238.5v-94q0 -150 70 -239t188 -89q90 0 144.5 43t68.5 110h193q-23 -152 -131 -238.5t-288 -86.5q-139 0 -241.5 65t-154.5 177.5
t-52 258.5zM617 1188h-149l191 278h193z" />
    <glyph glyph-name="Ccircumflex" unicode="&#x108;" horiz-adv-x="1258" 
d="M310 765v-172q0 -212 89 -326.5t253 -114.5q137 0 222.5 76.5t88.5 200.5h201v-11q0 -194 -145.5 -320t-367.5 -126q-259 0 -403.5 164.5t-144.5 456.5v172q0 295 144.5 461.5t403.5 166.5q223 0 368 -131.5t145 -335.5v-10h-201q-3 132 -88.5 214.5t-222.5 82.5
q-164 0 -253 -116.5t-89 -331.5zM367 1510l217 291h124l217 -291h-160l-117 172h-4l-117 -172h-160z" />
    <glyph glyph-name="ccircumflex" unicode="&#x109;" horiz-adv-x="1052" 
d="M275 1188l217 303h126l217 -303h-161l-117 180h-4l-117 -180h-161zM103 483v98q0 219 120.5 355t327.5 136q181 0 293.5 -100t119.5 -239h-194q-16 70 -72.5 119t-134.5 49q-121 0 -189 -86.5t-68 -238.5v-94q0 -150 70 -239t188 -89q90 0 144.5 43t68.5 110h193
q-23 -152 -131 -238.5t-288 -86.5q-139 0 -241.5 65t-154.5 177.5t-52 258.5z" />
    <glyph glyph-name="Cdotaccent" unicode="&#x10a;" horiz-adv-x="1258" 
d="M530 1642q0 47 34 80.5t82 33.5t82 -33.5t34 -80.5q0 -48 -34 -81.5t-82 -33.5t-82 33.5t-34 81.5zM310 765v-172q0 -212 89 -326.5t253 -114.5q137 0 222.5 76.5t88.5 200.5h201v-11q0 -194 -145.5 -320t-367.5 -126q-259 0 -403.5 164.5t-144.5 456.5v172
q0 295 144.5 461.5t403.5 166.5q223 0 368 -131.5t145 -335.5v-10h-201q-3 132 -88.5 214.5t-222.5 82.5q-164 0 -253 -116.5t-89 -331.5z" />
    <glyph glyph-name="cdotaccent" unicode="&#x10b;" horiz-adv-x="1052" 
d="M103 483v98q0 219 120.5 355t327.5 136q181 0 293.5 -100t119.5 -239h-194q-16 70 -72.5 119t-134.5 49q-121 0 -189 -86.5t-68 -238.5v-94q0 -150 70 -239t188 -89q90 0 144.5 43t68.5 110h193q-23 -152 -131 -238.5t-288 -86.5q-139 0 -241.5 65t-154.5 177.5
t-52 258.5zM442 1304q0 48 32.5 81t78.5 33q49 0 82 -33t33 -81t-33 -80t-82 -32q-46 0 -78.5 32t-32.5 80z" />
    <glyph glyph-name="Ccaron" unicode="&#x10c;" horiz-adv-x="1258" 
d="M310 765v-172q0 -212 89 -326.5t253 -114.5q137 0 222.5 76.5t88.5 200.5h201v-11q0 -194 -145.5 -320t-367.5 -126q-259 0 -403.5 164.5t-144.5 456.5v172q0 295 144.5 461.5t403.5 166.5q223 0 368 -131.5t145 -335.5v-10h-201q-3 132 -88.5 214.5t-222.5 82.5
q-164 0 -253 -116.5t-89 -331.5zM367 1801h160l117 -172h4l117 172h160l-217 -291h-124z" />
    <glyph glyph-name="ccaron" unicode="&#x10d;" horiz-adv-x="1052" 
d="M275 1491h161l117 -180h3l117 180h162l-217 -303h-127zM103 483v98q0 219 120.5 355t327.5 136q181 0 293.5 -100t119.5 -239h-194q-16 70 -72.5 119t-134.5 49q-121 0 -189 -86.5t-68 -238.5v-94q0 -150 70 -239t188 -89q90 0 144.5 43t68.5 110h193
q-23 -152 -131 -238.5t-288 -86.5q-139 0 -241.5 65t-154.5 177.5t-52 258.5z" />
    <glyph glyph-name="Dcaron" unicode="&#x10e;" horiz-adv-x="1303" 
d="M319 1801h160l117 -172h4l117 172h160l-217 -291h-124zM158 1365h457q300 0 452 -173.5t152 -507.5q0 -335 -152 -509.5t-452 -174.5h-457v1365zM364 1188v-1011h233q203 0 306 122.5t103 382.5q0 506 -409 506h-233z" />
    <glyph glyph-name="dcaron" unicode="&#x10f;" horiz-adv-x="1384" 
d="M1207 1436h174l-45 -488h-129v488zM519 1070q103 0 183 -45.5t119 -119.5h7v532h202v-1437h-196v160h-6q-43 -82 -123.5 -128.5t-185.5 -46.5q-198 0 -306.5 134t-108.5 362v93q0 223 111 359.5t304 136.5zM563 900q-115 0 -184.5 -85.5t-69.5 -247.5v-80
q0 -161 70 -246.5t186 -85.5q124 0 194.5 86.5t70.5 244.5v81q0 153 -72 243t-195 90z" />
    <glyph glyph-name="Dcroat" unicode="&#x110;" horiz-adv-x="1384" 
d="M634 0h-458v607h-99v179h99v579h458q300 0 451.5 -173t151.5 -508t-152 -509.5t-451 -174.5zM382 179h233q203 0 306 122.5t103 382.5q0 506 -409 506h-233v-404h350v-179h-350v-428z" />
    <glyph glyph-name="dcroat" unicode="&#x111;" horiz-adv-x="1181" 
d="M563 900q-114 0 -183.5 -85.5t-69.5 -247.5v-80q0 -162 69.5 -247t185.5 -85q124 0 193.5 86t69.5 245v81q0 153 -71 243t-194 90zM829 160q-43 -82 -124 -128.5t-186 -46.5q-198 0 -306.5 134t-108.5 362v93q0 223 111 359.5t304 136.5q103 0 181 -45t118 -120h7v262
h-260v136h264v134h199v-134h119v-136h-115v-1167h-196v160h-7z" />
    <glyph glyph-name="Emacron" unicode="&#x112;" horiz-adv-x="1107" 
d="M996 177v-177h-838v1365h838v-177h-633v-408h597v-170h-597v-433h633zM847 1518h-552v116h552v-116z" />
    <glyph glyph-name="emacron" unicode="&#x113;" horiz-adv-x="1093" 
d="M557 -18q-210 0 -332 133.5t-122 363.5v111q0 219 119.5 350.5t326.5 131.5t325.5 -134.5t118.5 -357.5v-100h-689v-22q0 -141 69.5 -227t187.5 -86q86 0 143.5 40t80.5 112h195q-28 -138 -136.5 -226.5t-286.5 -88.5zM304 628h490v3q0 120 -68 200t-176 80
q-110 0 -178 -80t-68 -200v-3zM827 1237h-558v128h558v-128z" />
    <glyph glyph-name="Ebreve" unicode="&#x114;" horiz-adv-x="1107" 
d="M996 177v-177h-838v1365h838v-177h-633v-408h597v-170h-597v-433h633zM280 1762h127q0 -67 41.5 -111t122.5 -44t122.5 44t41.5 111h126q0 -50 -17.5 -97t-51 -86.5t-91 -63.5t-130.5 -24t-130.5 24t-92 63.5t-51.5 86.5t-17 97z" />
    <glyph glyph-name="ebreve" unicode="&#x115;" horiz-adv-x="1093" 
d="M557 -18q-210 0 -332 133.5t-122 363.5v111q0 219 119.5 350.5t326.5 131.5t325.5 -134.5t118.5 -357.5v-100h-689v-22q0 -141 69.5 -227t187.5 -86q86 0 143.5 40t80.5 112h195q-28 -138 -136.5 -226.5t-286.5 -88.5zM304 628h490v3q0 120 -68 200t-176 80
q-110 0 -178 -80t-68 -200v-3zM253 1466h130q0 -69 42 -116t123 -47t123 47t42 116h129q0 -51 -17.5 -99.5t-52 -90t-92.5 -66.5t-132 -25t-132.5 25t-93 66t-52 90t-17.5 100z" />
    <glyph glyph-name="Edotaccent" unicode="&#x116;" horiz-adv-x="1107" 
d="M455 1642q0 47 34 80.5t82 33.5t82 -33.5t34 -80.5q0 -48 -34 -81.5t-82 -33.5t-82 33.5t-34 81.5zM996 177v-177h-838v1365h838v-177h-633v-408h597v-170h-597v-433h633z" />
    <glyph glyph-name="edotaccent" unicode="&#x117;" horiz-adv-x="1093" 
d="M435 1304q0 48 32.5 81t78.5 33q49 0 82 -33t33 -81t-33 -80t-82 -32q-46 0 -78.5 32t-32.5 80zM557 -18q-210 0 -332 133.5t-122 363.5v111q0 219 119.5 350.5t326.5 131.5t325.5 -134.5t118.5 -357.5v-100h-689v-22q0 -141 69.5 -227t187.5 -86q86 0 143.5 40t80.5 112
h195q-28 -138 -136.5 -226.5t-286.5 -88.5zM304 628h490v3q0 120 -68 200t-176 80q-110 0 -178 -80t-68 -200v-3z" />
    <glyph glyph-name="Eogonek" unicode="&#x118;" horiz-adv-x="1108" 
d="M997 -368q-57 -19 -123 -19q-99 0 -164.5 49t-65.5 146q0 118 117 189v3h-603v1365h838v-177h-634v-408h598v-170h-597v-433h633v-151q-75 -17 -134 -62.5t-59 -114.5q0 -48 32 -73.5t87 -25.5q46 0 75 8v-126z" />
    <glyph glyph-name="eogonek" unicode="&#x119;" horiz-adv-x="1093" 
d="M773 -387q-97 0 -163 51.5t-66 143.5q0 46 17.5 85.5t31.5 55.5t43 44l-5 10q-36 -19 -100 -19q-186 0 -307 134.5t-121 360.5v111q0 219 119.5 350.5t326.5 131.5t325.5 -134.5t118.5 -357.5v-100h-689v-22q0 -142 69 -227.5t189 -85.5q85 0 143 40.5t80 111.5h194
q-23 -130 -167 -248q-108 -87 -108 -189q0 -50 34 -77.5t84 -27.5q40 0 74 9v-132q-47 -19 -123 -19zM304 628h490v3q0 120 -68 200t-176 80q-110 0 -178 -80t-68 -200v-3z" />
    <glyph glyph-name="Ecaron" unicode="&#x11a;" horiz-adv-x="1107" 
d="M292 1801h160l117 -172h4l117 172h160l-217 -291h-124zM996 177v-177h-838v1365h838v-177h-633v-408h597v-170h-597v-433h633z" />
    <glyph glyph-name="ecaron" unicode="&#x11b;" horiz-adv-x="1093" 
d="M268 1491h161l117 -180h3l117 180h162l-217 -303h-127zM557 -18q-210 0 -332 133.5t-122 363.5v111q0 219 119.5 350.5t326.5 131.5t325.5 -134.5t118.5 -357.5v-100h-689v-22q0 -141 69.5 -227t187.5 -86q86 0 143.5 40t80.5 112h195q-28 -138 -136.5 -226.5
t-286.5 -88.5zM304 628h490v3q0 120 -68 200t-176 80q-110 0 -178 -80t-68 -200v-3z" />
    <glyph glyph-name="Gcircumflex" unicode="&#x11c;" horiz-adv-x="1283" 
d="M378 1510l217 291h124l217 -291h-160l-117 172h-4l-117 -172h-160zM1177 942h-203q-15 126 -98.5 198.5t-218.5 72.5q-165 0 -256.5 -111.5t-91.5 -312.5v-194q0 -212 90 -328t265 -116q142 0 229.5 79t87.5 204v117h-329v168h528v-278q0 -200 -144 -334.5t-375 -134.5
q-273 0 -415.5 164t-142.5 459v195q0 279 147.5 441t407.5 162q226 0 366.5 -125.5t152.5 -325.5z" />
    <glyph glyph-name="gcircumflex" unicode="&#x11d;" horiz-adv-x="1177" 
d="M307 1188l217 303h126l217 -303h-161l-117 180h-4l-117 -180h-161zM568 -235q119 0 189 66.5t70 183.5v163h-7q-32 -72 -113.5 -119.5t-186.5 -47.5q-188 0 -301.5 129t-113.5 362v80q0 231 113.5 359.5t301.5 128.5q104 0 186 -47t119 -119h7v150h196v-1045
q0 -80 -25 -147.5t-68.5 -114t-102.5 -79t-125.5 -47.5t-139.5 -15q-201 0 -311.5 86t-127.5 226h202q15 -65 78.5 -109t159.5 -44zM572 902q-124 0 -193.5 -86.5t-69.5 -245.5v-63q0 -157 69.5 -244.5t193.5 -87.5q120 0 187.5 88t67.5 244v63q0 153 -69 242.5t-186 89.5z
" />
    <glyph glyph-name="Gbreve" unicode="&#x11e;" horiz-adv-x="1283" 
d="M1177 942h-203q-15 126 -98.5 198.5t-218.5 72.5q-165 0 -256.5 -111.5t-91.5 -312.5v-194q0 -212 90 -328t265 -116q142 0 229.5 79t87.5 204v117h-329v168h528v-278q0 -200 -144 -334.5t-375 -134.5q-273 0 -415.5 164t-142.5 459v195q0 279 147.5 441t407.5 162
q226 0 366.5 -125.5t152.5 -325.5zM366 1762h127q0 -67 41.5 -111t122.5 -44t122.5 44t41.5 111h126q0 -50 -17.5 -97t-51 -86.5t-91 -63.5t-130.5 -24t-130.5 24t-92 63.5t-51.5 86.5t-17 97z" />
    <glyph glyph-name="gbreve" unicode="&#x11f;" horiz-adv-x="1177" 
d="M292 1466h130q0 -69 42 -116t123 -47t123 47t42 116h129q0 -51 -17.5 -99.5t-52 -90t-92.5 -66.5t-132 -25t-132.5 25t-93 66t-52 90t-17.5 100zM568 -235q119 0 189 66.5t70 183.5v163h-7q-32 -72 -113.5 -119.5t-186.5 -47.5q-188 0 -301.5 129t-113.5 362v80
q0 231 113.5 359.5t301.5 128.5q104 0 186 -47t119 -119h7v150h196v-1045q0 -80 -25 -147.5t-68.5 -114t-102.5 -79t-125.5 -47.5t-139.5 -15q-201 0 -311.5 86t-127.5 226h202q15 -65 78.5 -109t159.5 -44zM572 902q-124 0 -193.5 -86.5t-69.5 -245.5v-63
q0 -157 69.5 -244.5t193.5 -87.5q120 0 187.5 88t67.5 244v63q0 153 -69 242.5t-186 89.5z" />
    <glyph glyph-name="Gdotaccent" unicode="&#x120;" horiz-adv-x="1283" 
d="M541 1642q0 47 34 80.5t82 33.5t82 -33.5t34 -80.5q0 -48 -34 -81.5t-82 -33.5t-82 33.5t-34 81.5zM1177 942h-203q-15 126 -98.5 198.5t-218.5 72.5q-165 0 -256.5 -111.5t-91.5 -312.5v-194q0 -212 90 -328t265 -116q142 0 229.5 79t87.5 204v117h-329v168h528v-278
q0 -200 -144 -334.5t-375 -134.5q-273 0 -415.5 164t-142.5 459v195q0 279 147.5 441t407.5 162q226 0 366.5 -125.5t152.5 -325.5z" />
    <glyph glyph-name="gdotaccent" unicode="&#x121;" horiz-adv-x="1177" 
d="M474 1304q0 48 32.5 81t78.5 33q49 0 82 -33t33 -81t-33 -80t-82 -32q-46 0 -78.5 32t-32.5 80zM568 -235q119 0 189 66.5t70 183.5v163h-7q-32 -72 -113.5 -119.5t-186.5 -47.5q-188 0 -301.5 129t-113.5 362v80q0 231 113.5 359.5t301.5 128.5q104 0 186 -47t119 -119
h7v150h196v-1045q0 -80 -25 -147.5t-68.5 -114t-102.5 -79t-125.5 -47.5t-139.5 -15q-201 0 -311.5 86t-127.5 226h202q15 -65 78.5 -109t159.5 -44zM572 902q-124 0 -193.5 -86.5t-69.5 -245.5v-63q0 -157 69.5 -244.5t193.5 -87.5q120 0 187.5 88t67.5 244v63
q0 153 -69 242.5t-186 89.5z" />
    <glyph glyph-name="Gcommaaccent" unicode="&#x122;" horiz-adv-x="1283" 
d="M643 -489h-149l85 335h178zM1177 942h-203q-15 126 -98.5 198.5t-218.5 72.5q-165 0 -256.5 -111.5t-91.5 -312.5v-194q0 -212 90 -328t265 -116q142 0 229.5 79t87.5 204v117h-329v168h528v-278q0 -200 -144 -334.5t-375 -134.5q-273 0 -415.5 164t-142.5 459v195
q0 279 147.5 441t407.5 162q226 0 366.5 -125.5t152.5 -325.5z" />
    <glyph glyph-name="gcommaaccent" unicode="&#x123;" horiz-adv-x="1173" 
d="M549 1589h149l-85 -335h-178zM568 -235q119 0 189 66.5t70 183.5v163h-7q-32 -72 -113.5 -119.5t-186.5 -47.5q-188 0 -301.5 129t-113.5 362v80q0 231 113.5 359.5t301.5 128.5q104 0 186 -47t119 -119h7v150h196v-1045q0 -80 -25 -147.5t-68.5 -114t-102.5 -79
t-125.5 -47.5t-139.5 -15q-201 0 -311.5 86t-127.5 226h202q15 -65 78.5 -109t159.5 -44zM572 902q-124 0 -193.5 -86.5t-69.5 -245.5v-63q0 -157 69.5 -244.5t193.5 -87.5q120 0 187.5 88t67.5 244v63q0 153 -69 242.5t-186 89.5z" />
    <glyph glyph-name="Hcircumflex" unicode="&#x124;" horiz-adv-x="1377" 
d="M1220 0h-206v615h-650v-615h-206v1365h206v-572h650v572h206v-1365zM409 1510l217 291h124l217 -291h-160l-117 172h-4l-117 -172h-160z" />
    <glyph glyph-name="hcircumflex" unicode="&#x125;" horiz-adv-x="1167" 
d="M149 0v1437h202v-527h7q34 64 111 112.5t194 48.5q167 0 270.5 -103t103.5 -291v-677h-202v639q0 125 -65.5 189.5t-175.5 64.5q-119 0 -181 -73t-62 -186v-634h-202zM-33 1582l217 291h124l217 -291h-160l-117 172h-4l-117 -172h-160z" />
    <glyph glyph-name="Hbar" unicode="&#x126;" horiz-adv-x="1378" 
d="M364 768h650v231h-650v-231zM364 590v-590h-206v999h-105v145h105v221h206v-221h650v221h206v-221h105v-145h-105v-999h-206v590h-650z" />
    <glyph glyph-name="hbar" unicode="&#x127;" horiz-adv-x="1167" 
d="M351 634v-634h-202v1167h-119v136h123v175h194v-175h263v-136h-259v-257h7q34 63 111.5 112t193.5 49q167 0 270.5 -103t103.5 -291v-677h-202v639q0 125 -65.5 189.5t-175.5 64.5q-119 0 -181 -73t-62 -186z" />
    <glyph glyph-name="Itilde" unicode="&#x128;" horiz-adv-x="521" 
d="M364 0h-206v1365h206v-1365zM368 1480q-34 0 -63 11.5t-48.5 28t-36.5 33.5t-34.5 28.5t-34.5 11.5q-55 0 -58 -94h-115q0 83 44 142.5t126 59.5q41 0 77 -17.5t56 -39t43.5 -39t42.5 -17.5q29 0 44 29t18 67h115q0 -80 -47 -142t-129 -62z" />
    <glyph glyph-name="itilde" unicode="&#x129;" horiz-adv-x="514" 
d="M156 0v1054h202v-1054h-202zM363 1183q-45 0 -83.5 20t-60.5 44t-48.5 44t-49.5 20q-26 0 -41.5 -21t-19.5 -42t-5 -45h-128q0 95 50 161.5t139 66.5q45 0 84 -20t61 -43.5t49 -43.5t50 -20q34 0 51.5 33.5t21.5 76.5h128q0 -89 -53.5 -160t-144.5 -71z" />
    <glyph glyph-name="Imacron" unicode="&#x12a;" horiz-adv-x="521" 
d="M364 0h-206v1365h206v-1365zM536 1518h-552v116h552v-116z" />
    <glyph glyph-name="imacron" unicode="&#x12b;" horiz-adv-x="514" 
d="M156 0v1054h202v-1054h-202zM533 1237h-558v128h558v-128z" />
    <glyph glyph-name="Ibreve" unicode="&#x12c;" horiz-adv-x="521" 
d="M364 0h-206v1365h206v-1365zM-31 1762h127q0 -67 41.5 -111t122.5 -44t122.5 44t41.5 111h126q0 -50 -17.5 -97t-51 -86.5t-91 -63.5t-130.5 -24t-130.5 24t-92 63.5t-51.5 86.5t-17 97z" />
    <glyph glyph-name="ibreve" unicode="&#x12d;" horiz-adv-x="514" 
d="M156 0v1054h202v-1054h-202zM-41 1466h130q0 -69 42 -116t123 -47t123 47t42 116h129q0 -51 -17.5 -99.5t-52 -90t-92.5 -66.5t-132 -25t-132.5 25t-93 66t-52 90t-17.5 100z" />
    <glyph glyph-name="Iogonek" unicode="&#x12e;" horiz-adv-x="521" 
d="M388 -366q-42 -21 -126 -21q-106 0 -168 51.5t-62 145.5q0 141 140 216v3h-14v1336h206v-1350q-170 -58 -170 -167q0 -48 31 -73.5t84 -25.5q46 0 79 9v-124z" />
    <glyph glyph-name="iogonek" unicode="&#x12f;" horiz-adv-x="514" 
d="M378 -368q-47 -19 -123 -19q-111 0 -176.5 51t-65.5 147q0 141 143 218v1025h202v-1035q-32 -10 -61 -24t-56.5 -34.5t-44 -49.5t-16.5 -62q0 -48 32 -73.5t86 -25.5q46 0 80 8v-126zM134 1311q0 51 36 85t87 34t87 -34t36 -85t-36 -85t-87 -34t-87 34t-36 85z" />
    <glyph glyph-name="Idotaccent" unicode="&#x130;" horiz-adv-x="521" 
d="M364 0h-206v1365h206v-1365zM144 1642q0 47 34 80.5t82 33.5t82 -33.5t34 -80.5q0 -48 -34 -81.5t-82 -33.5t-82 33.5t-34 81.5z" />
    <glyph glyph-name="dotlessi" unicode="&#x131;" horiz-adv-x="514" 
d="M156 0v1054h202v-1054h-202z" />
    <glyph glyph-name="Jcircumflex" unicode="&#x134;" horiz-adv-x="997" 
d="M25 338h200q3 -82 55.5 -131.5t146.5 -49.5q108 0 160 65t52 197v946h207v-948q0 -215 -109 -330t-309 -115q-185 0 -294 103t-109 263zM462 1510l217 291h124l217 -291h-160l-117 172h-4l-117 -172h-160z" />
    <glyph glyph-name="jcircumflex" unicode="&#x135;" horiz-adv-x="514" 
d="M357 1054v-1080q0 -177 -79.5 -261.5t-225.5 -84.5q-67 0 -103 9v154q25 -5 63 -5q77 0 110.5 45t33.5 145v1078h201zM-31 1188l217 303h126l217 -303h-161l-117 180h-4l-117 -180h-161z" />
    <glyph glyph-name="Kcommaaccent" unicode="&#x136;" horiz-adv-x="1209" 
d="M1177 1365l-502 -583l527 -782h-256l-423 641l-159 -175v-466h-206v1365h206v-644h9l568 644h236zM590 -489h-149l85 335h178z" />
    <glyph glyph-name="kcommaaccent" unicode="&#x137;" horiz-adv-x="1007" 
d="M350 374v-374h-202v1437h202v-838h9l395 455h243l-406 -457l432 -597h-244l-339 474zM528 -489h-149l85 335h178z" />
    <glyph glyph-name="Lacute" unicode="&#x139;" horiz-adv-x="999" 
d="M323 1510h-149l191 279h193zM976 181v-181h-818v1365h206v-1184h612z" />
    <glyph glyph-name="lacute" unicode="&#x13a;" horiz-adv-x="507" 
d="M317 1582h-149l191 279h193zM153 0v1437h201v-1437h-201z" />
    <glyph glyph-name="Lcommaaccent" unicode="&#x13b;" horiz-adv-x="999" 
d="M493 -489h-149l85 335h178zM976 181v-181h-818v1365h206v-1184h612z" />
    <glyph glyph-name="lcommaaccent" unicode="&#x13c;" horiz-adv-x="507" 
d="M239 -489h-149l85 335h178zM153 0v1437h201v-1437h-201z" />
    <glyph glyph-name="Lcaron" unicode="&#x13d;" horiz-adv-x="999" 
d="M588 1437h183l-50 -488h-133v488zM976 181v-181h-818v1365h206v-1184h612z" />
    <glyph glyph-name="lcaron" unicode="&#x13e;" horiz-adv-x="708" 
d="M526 1436h175l-45 -488h-130v488zM153 0v1437h201v-1437h-201z" />
    <glyph glyph-name="Lslash" unicode="&#x141;" horiz-adv-x="1007" 
d="M984 0h-818v531l-127 -74v189l127 74v645h206v-528l358 210v-192l-358 -208v-466h612v-181z" />
    <glyph glyph-name="lslash" unicode="&#x142;" horiz-adv-x="631" 
d="M416 0h-201v601l-151 -101v185l151 102v650h201v-519l151 102v-189l-151 -102v-729z" />
    <glyph glyph-name="Nacute" unicode="&#x143;" horiz-adv-x="1368" 
d="M747 1510h-149l191 279h193zM352 0h-194v1365h187l664 -1014h6v1014h195v-1365h-187l-665 1016h-6v-1016z" />
    <glyph glyph-name="nacute" unicode="&#x144;" horiz-adv-x="1163" 
d="M647 1188h-149l191 278h193zM146 0v1054h199v-144h7q34 64 112 112.5t195 48.5q167 0 270 -103t103 -291v-677h-201v639q0 125 -66 189.5t-175 64.5q-119 0 -181 -73t-62 -186v-634h-201z" />
    <glyph glyph-name="Ncommaaccent" unicode="&#x145;" horiz-adv-x="1368" 
d="M669 -489h-149l85 335h178zM352 0h-194v1365h187l664 -1014h6v1014h195v-1365h-187l-665 1016h-6v-1016z" />
    <glyph glyph-name="ncommaaccent" unicode="&#x146;" horiz-adv-x="1163" 
d="M571 -489h-149l85 335h178zM146 0v1054h199v-144h7q34 64 112 112.5t195 48.5q167 0 270 -103t103 -291v-677h-201v639q0 125 -66 189.5t-175 64.5q-119 0 -181 -73t-62 -186v-634h-201z" />
    <glyph glyph-name="Ncaron" unicode="&#x147;" horiz-adv-x="1368" 
d="M404 1801h160l117 -172h4l117 172h160l-217 -291h-124zM352 0h-194v1365h187l664 -1014h6v1014h195v-1365h-187l-665 1016h-6v-1016z" />
    <glyph glyph-name="ncaron" unicode="&#x148;" horiz-adv-x="1163" 
d="M305 1491h161l117 -180h3l117 180h162l-217 -303h-127zM146 0v1054h199v-144h7q34 64 112 112.5t195 48.5q167 0 270 -103t103 -291v-677h-201v639q0 125 -66 189.5t-175 64.5q-119 0 -181 -73t-62 -186v-634h-201z" />
    <glyph glyph-name="Omacron" unicode="&#x14c;" horiz-adv-x="1326" 
d="M311 774v-194q0 -211 97 -320t255 -109t255 109t97 320v194q0 211 -97.5 325.5t-254.5 114.5q-156 0 -254 -114.5t-98 -325.5zM103 580v192q0 289 152 455t410 166t408 -165.5t150 -455.5v-192q0 -287 -151 -447.5t-411 -160.5q-259 0 -408.5 160.5t-149.5 447.5z
M939 1518h-552v116h552v-116z" />
    <glyph glyph-name="omacron" unicode="&#x14d;" horiz-adv-x="1132" 
d="M846 1237h-558v128h558v-128zM567 1072q218 0 339.5 -138.5t121.5 -359.5v-89q0 -226 -121 -364.5t-340 -138.5q-220 0 -342 138.5t-122 364.5v88q0 221 122.5 360t341.5 139zM566 906q-125 0 -192.5 -91t-67.5 -246v-81q0 -154 67.5 -246t192.5 -92q126 0 192.5 91.5
t66.5 246.5v81q0 155 -67 246t-192 91z" />
    <glyph glyph-name="Obreve" unicode="&#x14e;" horiz-adv-x="1326" 
d="M311 774v-194q0 -211 97 -320t255 -109t255 109t97 320v194q0 211 -97.5 325.5t-254.5 114.5q-156 0 -254 -114.5t-98 -325.5zM103 580v192q0 289 152 455t410 166t408 -165.5t150 -455.5v-192q0 -287 -151 -447.5t-411 -160.5q-259 0 -408.5 160.5t-149.5 447.5z
M370 1762h127q0 -67 41.5 -111t122.5 -44t122.5 44t41.5 111h126q0 -50 -17.5 -97t-51 -86.5t-91 -63.5t-130.5 -24t-130.5 24t-92 63.5t-51.5 86.5t-17 97z" />
    <glyph glyph-name="obreve" unicode="&#x14f;" horiz-adv-x="1132" 
d="M272 1466h130q0 -69 42 -116t123 -47t123 47t42 116h129q0 -51 -17.5 -99.5t-52 -90t-92.5 -66.5t-132 -25t-132.5 25t-93 66t-52 90t-17.5 100zM567 1072q218 0 339.5 -138.5t121.5 -359.5v-89q0 -226 -121 -364.5t-340 -138.5q-220 0 -342 138.5t-122 364.5v88
q0 221 122.5 360t341.5 139zM566 906q-125 0 -192.5 -91t-67.5 -246v-81q0 -154 67.5 -246t192.5 -92q126 0 192.5 91.5t66.5 246.5v81q0 155 -67 246t-192 91z" />
    <glyph glyph-name="Ohungarumlaut" unicode="&#x150;" horiz-adv-x="1326" 
d="M411 1510l201 266h191l-245 -266h-147zM719 1510l201 266h192l-245 -266h-148zM311 774v-194q0 -211 97 -320t255 -109t255 109t97 320v194q0 211 -97.5 325.5t-254.5 114.5q-156 0 -254 -114.5t-98 -325.5zM103 580v192q0 289 152 455t410 166t408 -165.5t150 -455.5
v-192q0 -287 -151 -447.5t-411 -160.5q-259 0 -408.5 160.5t-149.5 447.5z" />
    <glyph glyph-name="ohungarumlaut" unicode="&#x151;" horiz-adv-x="1132" 
d="M457 1188h-129l192 278h168zM750 1188h-131l193 278h168zM567 1072q218 0 339.5 -138.5t121.5 -359.5v-89q0 -226 -121 -364.5t-340 -138.5q-220 0 -342 138.5t-122 364.5v88q0 221 122.5 360t341.5 139zM566 906q-125 0 -192.5 -91t-67.5 -246v-81q0 -154 67.5 -246
t192.5 -92q126 0 192.5 91.5t66.5 246.5v81q0 155 -67 246t-192 91z" />
    <glyph glyph-name="OE" unicode="&#x152;" horiz-adv-x="1958" 
d="M314 774v-195q0 -211 97 -320t254 -109q160 0 257.5 104.5t97.5 313.5v224q0 209 -98 315.5t-257 106.5q-156 0 -253.5 -114.5t-97.5 -325.5zM644 -28q-250 0 -395.5 161.5t-145.5 447.5v191q0 292 148.5 456.5t396.5 164.5q119 0 217.5 -42.5t150.5 -124.5h15v139h815
v-177h-625v-408h589v-170h-589v-433h625v-177h-815v144h-14q-55 -82 -154 -127t-219 -45z" />
    <glyph glyph-name="oe" unicode="&#x153;" horiz-adv-x="1802" 
d="M1276 -18q-119 0 -209.5 45t-141.5 126h-13q-54 -80 -148.5 -125.5t-210.5 -45.5q-204 0 -331 125t-127 348v146q0 214 129.5 342.5t337.5 128.5q110 0 203.5 -43t146.5 -129h13q46 75 137 123.5t209 48.5q201 0 319.5 -135t118.5 -357v-100h-689v-22q0 -142 69.5 -227.5
t189.5 -85.5q84 0 142 40t80 112h196q-28 -136 -136 -225.5t-285 -89.5zM1020 628h491v3q0 120 -68 200t-177 80t-176.5 -79.5t-69.5 -199.5v-4zM558 906q-120 0 -190.5 -88t-70.5 -229v-123q0 -143 68.5 -229.5t192.5 -86.5t191 86.5t67 229.5v123q0 141 -69 229t-189 88z
" />
    <glyph glyph-name="Racute" unicode="&#x154;" horiz-adv-x="1228" 
d="M645 1510h-149l191 279h193zM668 1365q113 0 201 -33t142 -91t81.5 -132t27.5 -159q0 -80 -23 -147t-61 -112.5t-80 -75t-88 -46.5l277 -569h-233l-248 532h-302v-532h-204v1365h510zM362 701h272q133 0 203 62t70 178q0 122 -72 186.5t-195 64.5h-278v-491z" />
    <glyph glyph-name="racute" unicode="&#x155;" horiz-adv-x="718" 
d="M468 1188h-149l191 278h193zM146 0v1054h202v-134h7q26 59 90.5 104.5t164.5 45.5q36 0 71 -5v-181q-29 6 -90 6q-241 0 -241 -254v-636h-204z" />
    <glyph glyph-name="Rcommaaccent" unicode="&#x156;" horiz-adv-x="1228" 
d="M668 1365q113 0 201 -33t142 -91t81.5 -132t27.5 -159q0 -80 -23 -147t-61 -112.5t-80 -75t-88 -46.5l277 -569h-233l-248 532h-302v-532h-204v1365h510zM362 701h272q133 0 203 62t70 178q0 122 -72 186.5t-195 64.5h-278v-491zM567 -489h-149l85 335h178z" />
    <glyph glyph-name="rcommaaccent" unicode="&#x157;" horiz-adv-x="718" 
d="M146 0v1054h202v-134h7q26 59 90.5 104.5t164.5 45.5q36 0 71 -5v-181q-29 6 -90 6q-241 0 -241 -254v-636h-204zM235 -489h-149l85 335h178z" />
    <glyph glyph-name="Rcaron" unicode="&#x158;" horiz-adv-x="1228" 
d="M668 1365q113 0 201 -33t142 -91t81.5 -132t27.5 -159q0 -80 -23 -147t-61 -112.5t-80 -75t-88 -46.5l277 -569h-233l-248 532h-302v-532h-204v1365h510zM362 701h272q133 0 203 62t70 178q0 122 -72 186.5t-195 64.5h-278v-491zM302 1801h160l117 -172h4l117 172h160
l-217 -291h-124z" />
    <glyph glyph-name="rcaron" unicode="&#x159;" horiz-adv-x="718" 
d="M126 1491h161l117 -180h3l117 180h162l-217 -303h-127zM146 0v1054h202v-134h7q26 59 90.5 104.5t164.5 45.5q36 0 71 -5v-181q-29 6 -90 6q-241 0 -241 -254v-636h-204z" />
    <glyph glyph-name="Sacute" unicode="&#x15a;" horiz-adv-x="1172" 
d="M647 1510h-149l191 279h193zM60 375h203q10 -99 93 -164t226 -65q136 0 215 60.5t79 163.5q0 80 -52.5 128t-166.5 76l-230 58q-68 17 -124 45t-103.5 70.5t-74 106t-26.5 142.5q0 125 68.5 217.5t177 137.5t239.5 45q129 0 236 -43.5t176 -134.5t71 -216h-199
q-9 97 -82.5 159t-204.5 62q-124 0 -199.5 -56.5t-75.5 -155.5q0 -144 191 -190l228 -58q65 -16 117 -37t98.5 -52.5t77 -71t48.5 -94t18 -121.5q0 -196 -144.5 -305.5t-375.5 -109.5q-107 0 -194 24.5t-143 64.5t-94 93.5t-54.5 108.5t-18.5 112z" />
    <glyph glyph-name="sacute" unicode="&#x15b;" horiz-adv-x="1005" 
d="M105 749q0 82 33 145.5t89.5 101.5t127 57t151.5 19q182 0 283 -88.5t101 -229.5h-184q-5 68 -53.5 115.5t-152.5 47.5q-90 0 -145 -39t-55 -109q0 -32 15 -56.5t39.5 -40t58 -27t67.5 -18.5l71 -14q9 -1 13 -2q65 -12 113 -25t96 -36t78.5 -53t49 -76t18.5 -105
q0 -157 -115.5 -245.5t-312.5 -88.5q-185 0 -295 82.5t-110 223.5h197q10 -69 68 -109.5t154 -40.5q106 0 161.5 43.5t55.5 109.5q0 27 -8 48t-28.5 37t-37.5 26t-54 20.5t-58 15t-68 13.5q-7 1 -10 2q-81 17 -138.5 37t-109.5 53.5t-78.5 85t-26.5 120.5zM568 1188h-149
l191 278h193z" />
    <glyph glyph-name="Scircumflex" unicode="&#x15c;" horiz-adv-x="1172" 
d="M60 375h203q10 -99 93 -164t226 -65q136 0 215 60.5t79 163.5q0 80 -52.5 128t-166.5 76l-230 58q-68 17 -124 45t-103.5 70.5t-74 106t-26.5 142.5q0 125 68.5 217.5t177 137.5t239.5 45q129 0 236 -43.5t176 -134.5t71 -216h-199q-9 97 -82.5 159t-204.5 62
q-124 0 -199.5 -56.5t-75.5 -155.5q0 -144 191 -190l228 -58q65 -16 117 -37t98.5 -52.5t77 -71t48.5 -94t18 -121.5q0 -196 -144.5 -305.5t-375.5 -109.5q-107 0 -194 24.5t-143 64.5t-94 93.5t-54.5 108.5t-18.5 112zM304 1510l217 291h124l217 -291h-160l-117 172h-4
l-117 -172h-160z" />
    <glyph glyph-name="scircumflex" unicode="&#x15d;" horiz-adv-x="1005" 
d="M226 1188l217 303h126l217 -303h-161l-117 180h-4l-117 -180h-161zM105 749q0 82 33 145.5t89.5 101.5t127 57t151.5 19q182 0 283 -88.5t101 -229.5h-184q-5 68 -53.5 115.5t-152.5 47.5q-90 0 -145 -39t-55 -109q0 -32 15 -56.5t39.5 -40t58 -27t67.5 -18.5l71 -14
q9 -1 13 -2q65 -12 113 -25t96 -36t78.5 -53t49 -76t18.5 -105q0 -157 -115.5 -245.5t-312.5 -88.5q-185 0 -295 82.5t-110 223.5h197q10 -69 68 -109.5t154 -40.5q106 0 161.5 43.5t55.5 109.5q0 27 -8 48t-28.5 37t-37.5 26t-54 20.5t-58 15t-68 13.5q-7 1 -10 2
q-81 17 -138.5 37t-109.5 53.5t-78.5 85t-26.5 120.5z" />
    <glyph glyph-name="Scedilla" unicode="&#x15e;" horiz-adv-x="1172" 
d="M584 -468q-89 -3 -149 15v111q47 -14 114 -14q48 0 82 16.5t34 56.5q0 23 -9.5 37t-31 20t-41 7.5t-54.5 1.5h-53v85l44 105q-98 5 -177 32t-130 66.5t-86 91.5t-50 104.5t-17 107.5h203q10 -99 93 -164t226 -65q136 0 215 60.5t79 163.5q0 80 -52.5 128t-166.5 76
l-230 58q-68 17 -124 45t-103.5 70.5t-74 106t-26.5 142.5q0 125 68.5 217.5t177 137.5t239.5 45q129 0 236 -43.5t176 -134.5t71 -216h-199q-9 97 -82.5 159t-204.5 62q-124 0 -199.5 -56.5t-75.5 -155.5q0 -144 191 -190l228 -58q65 -16 117 -37t98.5 -52.5t77 -71
t48.5 -94t18 -121.5q0 -176 -118.5 -283t-313.5 -127l-38 -92q94 0 146.5 -41.5t52.5 -121.5q0 -92 -63 -139t-166 -51z" />
    <glyph glyph-name="scedilla" unicode="&#x15f;" horiz-adv-x="1005" 
d="M500 -463q-85 -4 -149 15v111q47 -14 115 -14q115 0 115 73q0 18 -8 31t-19.5 19.5t-32.5 10t-38 4.5t-45 1h-53v85l42 112q-157 14 -249 94.5t-92 208.5h197q10 -70 65 -110t151 -40q110 0 166.5 42.5t56.5 110.5q0 32 -13.5 56.5t-35 40t-55.5 27.5t-68.5 19.5
l-79.5 16.5q-8 1 -12 2q-64 13 -112 27.5t-95.5 39t-78 54.5t-49 75t-18.5 101q0 82 32.5 145t89.5 101t128 57t152 19q181 0 282 -88.5t101 -229.5h-184q-5 68 -53.5 115.5t-152.5 47.5q-91 0 -145.5 -39t-54.5 -109q0 -27 10 -49t33.5 -38t43 -26.5t58 -20t57.5 -13
l62 -11.5q65 -12 113 -25t96 -36t78.5 -53.5t49 -76.5t18.5 -105q0 -143 -96.5 -229t-263.5 -100l-36 -96q95 0 151 -42t56 -121q0 -92 -63 -139t-167 -51z" />
    <glyph glyph-name="Scaron" unicode="&#x160;" horiz-adv-x="1172" 
d="M60 375h203q10 -99 93 -164t226 -65q136 0 215 60.5t79 163.5q0 80 -52.5 128t-166.5 76l-230 58q-68 17 -124 45t-103.5 70.5t-74 106t-26.5 142.5q0 125 68.5 217.5t177 137.5t239.5 45q129 0 236 -43.5t176 -134.5t71 -216h-199q-9 97 -82.5 159t-204.5 62
q-124 0 -199.5 -56.5t-75.5 -155.5q0 -144 191 -190l228 -58q65 -16 117 -37t98.5 -52.5t77 -71t48.5 -94t18 -121.5q0 -196 -144.5 -305.5t-375.5 -109.5q-107 0 -194 24.5t-143 64.5t-94 93.5t-54.5 108.5t-18.5 112zM304 1801h160l117 -172h4l117 172h160l-217 -291h-124
z" />
    <glyph glyph-name="scaron" unicode="&#x161;" horiz-adv-x="1005" 
d="M226 1491h161l117 -180h3l117 180h162l-217 -303h-127zM105 749q0 82 33 145.5t89.5 101.5t127 57t151.5 19q182 0 283 -88.5t101 -229.5h-184q-5 68 -53.5 115.5t-152.5 47.5q-90 0 -145 -39t-55 -109q0 -32 15 -56.5t39.5 -40t58 -27t67.5 -18.5l71 -14q9 -1 13 -2
q65 -12 113 -25t96 -36t78.5 -53t49 -76t18.5 -105q0 -157 -115.5 -245.5t-312.5 -88.5q-185 0 -295 82.5t-110 223.5h197q10 -69 68 -109.5t154 -40.5q106 0 161.5 43.5t55.5 109.5q0 27 -8 48t-28.5 37t-37.5 26t-54 20.5t-58 15t-68 13.5q-7 1 -10 2q-81 17 -138.5 37
t-109.5 53.5t-78.5 85t-26.5 120.5z" />
    <glyph glyph-name="Tcedilla" unicode="&#x162;" horiz-adv-x="1054" 
d="M539 -485q-84 -4 -150 15v110q44 -13 115 -13q48 0 82 16.5t34 56.5q0 18 -8 31t-19.5 19.5t-33 10t-38 4t-44.5 0.5h-53v86l55 149h-54v1186h-407v179h1018v-179h-407v-1186h-19l-49 -132q95 0 151 -42t56 -121q0 -92 -63 -139t-166 -51z" />
    <glyph glyph-name="tcedilla" unicode="&#x163;" horiz-adv-x="714" 
d="M406 -465q-84 -3 -149 16v110q47 -14 115 -14q48 0 81.5 17t33.5 57q0 18 -8 31t-19.5 19.5t-33 10t-38 4t-44.5 0.5h-53v86l55 149q-73 30 -102 96t-29 179v594h-144v164h146v260h199v-260h207v-164h-207v-584q0 -89 36 -120.5t130 -31.5q20 0 48 2v-157q-40 -7 -98 -7
q-25 0 -63 2l-40 -105q95 0 151 -42t56 -121q0 -93 -63 -140t-167 -51z" />
    <glyph glyph-name="Tcaron" unicode="&#x164;" horiz-adv-x="1054" 
d="M247 1801h160l117 -172h4l117 172h160l-217 -291h-124zM629 0h-204v1186h-407v179h1018v-179h-407v-1186z" />
    <glyph glyph-name="tcaron" unicode="&#x165;" horiz-adv-x="719" 
d="M589 1698h175l-45 -488h-130v488zM217 1054v260h199v-260h207v-164h-207v-584q0 -89 36 -120.5t130 -31.5q20 0 48 2v-157q-40 -7 -98 -7q-95 0 -156.5 17.5t-97 56.5t-49.5 93.5t-14 136.5v594h-144v164h146z" />
    <glyph glyph-name="Tbar" unicode="&#x166;" horiz-adv-x="1055" 
d="M861 631h-232v-631h-204v631h-231v144h231v411h-406v179h1017v-179h-407v-411h232v-144z" />
    <glyph glyph-name="tbar" unicode="&#x167;" horiz-adv-x="713" 
d="M630 -1q-42 -7 -98 -7q-95 0 -156.5 17.5t-97 56.5t-49.5 93.5t-14 136.5v233h-137v137h137v224h-144v164h146v260h199v-260h207v-164h-207v-224h206v-137h-206v-223q0 -89 36 -120.5t130 -31.5q24 0 48 3v-158z" />
    <glyph glyph-name="Utilde" unicode="&#x168;" horiz-adv-x="1341" 
d="M346 1365v-881q0 -153 88 -242t236 -89t236.5 89.5t88.5 241.5v881h204v-909q0 -216 -142 -350t-387 -134q-244 0 -386 134t-142 350v909h204zM778 1480q-34 0 -63 11.5t-48.5 28t-36.5 33.5t-34.5 28.5t-34.5 11.5q-55 0 -58 -94h-115q0 83 44 142.5t126 59.5
q41 0 77 -17.5t56 -39t43.5 -39t42.5 -17.5q29 0 44 29t18 67h115q0 -80 -47 -142t-129 -62z" />
    <glyph glyph-name="utilde" unicode="&#x169;" horiz-adv-x="1158" 
d="M1012 1054v-1054h-199v143h-8q-30 -69 -108 -114.5t-197 -45.5q-168 0 -268.5 95.5t-100.5 273.5v702h202v-646q0 -133 65 -190t171 -57q108 0 174.5 66t66.5 184v643h202zM684 1183q-45 0 -83.5 20t-60.5 44t-48.5 44t-49.5 20q-26 0 -41.5 -21t-19.5 -42t-5 -45h-128
q0 95 50 161.5t139 66.5q45 0 84 -20t61 -43.5t49 -43.5t50 -20q34 0 51.5 33.5t21.5 76.5h128q0 -89 -53.5 -160t-144.5 -71z" />
    <glyph glyph-name="Umacron" unicode="&#x16a;" horiz-adv-x="1341" 
d="M346 1365v-881q0 -153 88 -242t236 -89t236.5 89.5t88.5 241.5v881h204v-909q0 -216 -142 -350t-387 -134q-244 0 -386 134t-142 350v909h204zM946 1518h-552v116h552v-116z" />
    <glyph glyph-name="umacron" unicode="&#x16b;" horiz-adv-x="1158" 
d="M1012 1054v-1054h-199v143h-8q-30 -69 -108 -114.5t-197 -45.5q-168 0 -268.5 95.5t-100.5 273.5v702h202v-646q0 -133 65 -190t171 -57q108 0 174.5 66t66.5 184v643h202zM854 1237h-558v128h558v-128z" />
    <glyph glyph-name="Ubreve" unicode="&#x16c;" horiz-adv-x="1341" 
d="M346 1365v-881q0 -153 88 -242t236 -89t236.5 89.5t88.5 241.5v881h204v-909q0 -216 -142 -350t-387 -134q-244 0 -386 134t-142 350v909h204zM379 1762h127q0 -67 41.5 -111t122.5 -44t122.5 44t41.5 111h126q0 -50 -17.5 -97t-51 -86.5t-91 -63.5t-130.5 -24t-130.5 24
t-92 63.5t-51.5 86.5t-17 97z" />
    <glyph glyph-name="ubreve" unicode="&#x16d;" horiz-adv-x="1158" 
d="M1012 1054v-1054h-199v143h-8q-30 -69 -108 -114.5t-197 -45.5q-168 0 -268.5 95.5t-100.5 273.5v702h202v-646q0 -133 65 -190t171 -57q108 0 174.5 66t66.5 184v643h202zM280 1466h130q0 -69 42 -116t123 -47t123 47t42 116h129q0 -51 -17.5 -99.5t-52 -90t-92.5 -66.5
t-132 -25t-132.5 25t-93 66t-52 90t-17.5 100z" />
    <glyph glyph-name="Uring" unicode="&#x16e;" horiz-adv-x="1341" 
d="M670 1485q-83 0 -140.5 55t-57.5 138q0 82 57.5 137t140.5 55q84 0 141 -55t57 -137q0 -83 -57 -138t-141 -55zM571 1678q0 -43 28.5 -72t70.5 -29t70.5 29t28.5 72q0 42 -28.5 71t-70.5 29t-70.5 -29t-28.5 -71zM346 1365v-881q0 -153 88 -242t236 -89t236.5 89.5
t88.5 241.5v881h204v-909q0 -216 -142 -350t-387 -134q-244 0 -386 134t-142 350v909h204z" />
    <glyph glyph-name="uring" unicode="&#x16f;" horiz-adv-x="1158" 
d="M1012 1054v-1054h-199v143h-8q-30 -69 -108 -114.5t-197 -45.5q-168 0 -268.5 95.5t-100.5 273.5v702h202v-646q0 -133 65 -190t171 -57q108 0 174.5 66t66.5 184v643h202zM575 1182q-83 0 -140.5 55t-57.5 138q0 82 57.5 137t140.5 55q84 0 141 -55t57 -137
q0 -83 -57 -138t-141 -55zM476 1375q0 -43 28.5 -72t70.5 -29t70.5 29t28.5 72q0 42 -28.5 71t-70.5 29t-70.5 -29t-28.5 -71z" />
    <glyph glyph-name="Uhungarumlaut" unicode="&#x170;" horiz-adv-x="1341" 
d="M346 1365v-881q0 -153 88 -242t236 -89t236.5 89.5t88.5 241.5v881h204v-909q0 -216 -142 -350t-387 -134q-244 0 -386 134t-142 350v909h204zM420 1510l201 266h191l-245 -266h-147zM728 1510l201 266h192l-245 -266h-148z" />
    <glyph glyph-name="uhungarumlaut" unicode="&#x171;" horiz-adv-x="1158" 
d="M465 1188h-129l192 278h168zM758 1188h-131l193 278h168zM1012 1054v-1054h-199v143h-8q-30 -69 -108 -114.5t-197 -45.5q-168 0 -268.5 95.5t-100.5 273.5v702h202v-646q0 -133 65 -190t171 -57q108 0 174.5 66t66.5 184v643h202z" />
    <glyph glyph-name="Uogonek" unicode="&#x172;" horiz-adv-x="1341" 
d="M968 -387q-98 0 -164.5 51t-66.5 147q0 118 97 195l-4 8q-80 -42 -172 -42q-225 0 -370.5 140t-145.5 365v888h206v-881q0 -153 87 -242t235 -89t236 89.5t88 241.5v881h205v-891q0 -231 -151 -391q-14 -16 -52.5 -55.5t-53.5 -57.5t-30.5 -50.5t-15.5 -64.5
q0 -51 32.5 -76t84.5 -25q37 0 76 10v-131q-60 -20 -121 -20z" />
    <glyph glyph-name="uogonek" unicode="&#x173;" horiz-adv-x="1158" 
d="M1023 -366q-49 -21 -129 -21q-95 0 -161 49.5t-66 145.5q0 34 11.5 66.5t23.5 52.5t38.5 46t37.5 34t39 30v106h-8q-30 -68 -108.5 -114t-198.5 -46q-167 0 -269 95.5t-102 273.5v702h202v-646q0 -133 65 -190t171 -57q108 0 174.5 66t66.5 184v643h202v-1047
q-73 -23 -128.5 -64.5t-55.5 -97.5q0 -44 31.5 -67t83.5 -23q45 0 80 8v-129z" />
    <glyph glyph-name="Wcircumflex" unicode="&#x174;" horiz-adv-x="1696" 
d="M570 1510l217 291h124l217 -291h-160l-117 172h-4l-117 -172h-160zM569 0h-187l-371 1365h224l247 -1037h7l261 1037h197l260 -1037h7l247 1037h224l-371 -1365h-186l-276 1030h-7z" />
    <glyph glyph-name="wcircumflex" unicode="&#x175;" horiz-adv-x="1503" 
d="M471 1188l217 303h126l217 -303h-161l-117 180h-4l-117 -180h-161zM1467 1054l-274 -1054h-211l-228 792h-5l-228 -792h-211l-274 1054h204l182 -815h9l225 815h192l226 -815h8l182 815h203z" />
    <glyph glyph-name="Ycircumflex" unicode="&#x176;" horiz-adv-x="1108" 
d="M656 0h-204v565l-457 800h232l325 -597h7l326 597h228l-457 -797v-568zM275 1510l217 291h124l217 -291h-160l-117 172h-4l-117 -172h-160z" />
    <glyph glyph-name="ycircumflex" unicode="&#x177;" horiz-adv-x="986" 
d="M982 1054q-365 -1044 -366 -1048l-27 -73q-21 -57 -41 -97.5t-52 -84.5t-70 -71t-93.5 -44.5t-124.5 -17.5q-60 0 -119 9v157q27 -5 80 -5q91 0 136 39.5t66 120.5l14 50l-381 1065h224l265 -848h7l267 848h215zM218 1188l217 303h126l217 -303h-161l-117 180h-4
l-117 -180h-161z" />
    <glyph glyph-name="Ydieresis" unicode="&#x178;" horiz-adv-x="1109" 
d="M656 0h-204v565l-457 800h232l325 -597h7l326 597h228l-457 -797v-568zM392 1489q-39 0 -65.5 27.5t-26.5 67.5q0 42 26.5 69.5t65.5 27.5q41 0 68 -27.5t27 -69.5q0 -40 -27.5 -67.5t-67.5 -27.5zM712 1489q-39 0 -66 27.5t-27 67.5q0 42 27 69.5t66 27.5
q41 0 67.5 -27.5t26.5 -69.5q0 -41 -27 -68t-67 -27z" />
    <glyph glyph-name="Zacute" unicode="&#x179;" horiz-adv-x="1156" 
d="M642 1510h-149l191 279h193zM83 0v141l708 1041v6h-685v177h937v-139l-703 -1042v-7h721v-177h-978z" />
    <glyph glyph-name="zacute" unicode="&#x17a;" horiz-adv-x="978" 
d="M557 1188h-149l191 278h193zM96 0v136l546 743v7h-540v168h789v-141l-540 -738v-7h548v-168h-803z" />
    <glyph glyph-name="Zdotaccent" unicode="&#x17b;" horiz-adv-x="1156" 
d="M462 1642q0 47 34 80.5t82 33.5t82 -33.5t34 -80.5q0 -48 -34 -81.5t-82 -33.5t-82 33.5t-34 81.5zM83 0v141l708 1041v6h-685v177h937v-139l-703 -1042v-7h721v-177h-978z" />
    <glyph glyph-name="zdotaccent" unicode="&#x17c;" horiz-adv-x="978" 
d="M382 1304q0 48 32.5 81t78.5 33q49 0 82 -33t33 -81t-33 -80t-82 -32q-46 0 -78.5 32t-32.5 80zM96 0v136l546 743v7h-540v168h789v-141l-540 -738v-7h548v-168h-803z" />
    <glyph glyph-name="Zcaron" unicode="&#x17d;" horiz-adv-x="1156" 
d="M83 0v141l708 1041v6h-685v177h937v-139l-703 -1042v-7h721v-177h-978zM299 1801h160l117 -172h4l117 172h160l-217 -291h-124z" />
    <glyph glyph-name="zcaron" unicode="&#x17e;" horiz-adv-x="978" 
d="M215 1491h161l117 -180h3l117 180h162l-217 -303h-127zM96 0v136l546 743v7h-540v168h789v-141l-540 -738v-7h548v-168h-803z" />
    <glyph glyph-name="florin" unicode="&#x192;" horiz-adv-x="1158" 
d="M166 -186l168 922h-208l29 164h209l30 179q53 314 379 314q69 0 124 -18t88 -46.5t54 -66t28 -73.5t4 -72h-187q2 53 -33.5 83.5t-90.5 30.5q-130 0 -158 -167l-28 -164h294l-29 -164h-294l-168 -922h-211z" />
    <glyph glyph-name="Ohorn" unicode="&#x1a0;" horiz-adv-x="1335" 
d="M1221 580q0 -287 -151 -447.5t-410 -160.5t-408 160.5t-149 447.5v192q0 289 151 455t409 166q65 0 127.5 -13.5t102 -30t87.5 -30t88 -13.5q77 0 106.5 39.5t29.5 113.5v99h172v-109q0 -135 -67 -208t-191 -73l-3 -6q43 -63 74.5 -170t31.5 -220v-192zM310 774v-195
q0 -211 97 -320t254 -109q158 0 255 109t97 320v195q0 211 -97.5 325.5t-254.5 114.5q-156 0 -253.5 -114.5t-97.5 -325.5z" />
    <glyph glyph-name="ohorn" unicode="&#x1a1;" horiz-adv-x="1188" 
d="M567 -18q-216 0 -339.5 133t-123.5 362v99q0 221 123 358.5t340 137.5q69 0 150.5 -21t124.5 -21q71 0 99.5 36.5t28.5 110.5v156h172v-157q0 -262 -206 -276v-8q37 -51 64.5 -137.5t27.5 -177.5v-99q0 -228 -122.5 -362t-338.5 -134zM567 906q-87 0 -147 -48t-86.5 -123
t-26.5 -171v-76q0 -96 26 -170t86 -121t148 -47t147.5 47t85 121t25.5 170v76q0 96 -26 171t-85.5 123t-146.5 48z" />
    <glyph glyph-name="Uhorn" unicode="&#x1af;" horiz-adv-x="1411" 
d="M670 -27q-237 0 -382.5 139t-145.5 365v888h206v-880q0 -153 87 -242.5t235 -89.5t236 89.5t88 242.5v880h207q71 0 99 37.5t28 109.5v107h170v-117q0 -126 -63.5 -203.5t-188.5 -77.5h-47v-747q0 -226 -145.5 -363.5t-383.5 -137.5z" />
    <glyph glyph-name="uhorn" unicode="&#x1b0;" horiz-adv-x="1274" 
d="M805 143q-30 -69 -108 -114.5t-197 -45.5q-168 0 -268.5 95.5t-100.5 273.5v702h202v-646q0 -133 65 -190t171 -57q108 0 174.5 66t66.5 184v643h182q70 0 96.5 37t26.5 110v132h172v-142q0 -125 -63.5 -202t-190.5 -77h-21v-912h-199v143h-8z" />
    <glyph glyph-name="Acaron" unicode="&#x1cd;" horiz-adv-x="1220" 
d="M234 0h-212l476 1365h224l476 -1365h-218l-128 391h-490zM611 1141h-7l-193 -590h392zM331 1801h160l117 -172h4l117 172h160l-217 -291h-124z" />
    <glyph glyph-name="acaron" unicode="&#x1ce;" horiz-adv-x="1067" 
d="M731 130q-88 -147 -299 -147q-154 0 -249 87.5t-95 232.5q0 142 96 223t275 82h271v103q0 96 -53.5 147t-152.5 51q-93 0 -146.5 -44t-60.5 -119h-190q8 145 109 235t294 90q179 0 290 -91t111 -258v-722h-193v130h-7zM491 142q103 0 171 58t68 149v119h-243
q-98 0 -146.5 -42t-48.5 -113q0 -82 58 -126.5t141 -44.5zM255 1491h161l117 -180h3l117 180h162l-217 -303h-127z" />
    <glyph glyph-name="Icaron" unicode="&#x1cf;" horiz-adv-x="520" 
d="M364 0h-206v1365h206v-1365zM-20 1801h160l117 -172h4l117 172h160l-217 -291h-124z" />
    <glyph glyph-name="icaron" unicode="&#x1d0;" horiz-adv-x="514" 
d="M-26 1491h161l117 -180h3l117 180h162l-217 -303h-127zM156 0v1054h202v-1054h-202z" />
    <glyph glyph-name="Ocaron" unicode="&#x1d1;" horiz-adv-x="1326" 
d="M382 1801h160l117 -172h4l117 172h160l-217 -291h-124zM311 774v-194q0 -211 97 -320t255 -109t255 109t97 320v194q0 211 -97.5 325.5t-254.5 114.5q-156 0 -254 -114.5t-98 -325.5zM103 580v192q0 289 152 455t410 166t408 -165.5t150 -455.5v-192q0 -287 -151 -447.5
t-411 -160.5q-259 0 -408.5 160.5t-149.5 447.5z" />
    <glyph glyph-name="ocaron" unicode="&#x1d2;" horiz-adv-x="1132" 
d="M287 1491h161l117 -180h3l117 180h162l-217 -303h-127zM567 1072q218 0 339.5 -138.5t121.5 -359.5v-89q0 -226 -121 -364.5t-340 -138.5q-220 0 -342 138.5t-122 364.5v88q0 221 122.5 360t341.5 139zM566 906q-125 0 -192.5 -91t-67.5 -246v-81q0 -154 67.5 -246
t192.5 -92q126 0 192.5 91.5t66.5 246.5v81q0 155 -67 246t-192 91z" />
    <glyph glyph-name="Ucaron" unicode="&#x1d3;" horiz-adv-x="1341" 
d="M391 1801h160l117 -172h4l117 172h160l-217 -291h-124zM346 1365v-881q0 -153 88 -242t236 -89t236.5 89.5t88.5 241.5v881h204v-909q0 -216 -142 -350t-387 -134q-244 0 -386 134t-142 350v909h204z" />
    <glyph glyph-name="ucaron" unicode="&#x1d4;" horiz-adv-x="1158" 
d="M295 1491h161l117 -180h3l117 180h162l-217 -303h-127zM1012 1054v-1054h-199v143h-8q-30 -69 -108 -114.5t-197 -45.5q-168 0 -268.5 95.5t-100.5 273.5v702h202v-646q0 -133 65 -190t171 -57q108 0 174.5 66t66.5 184v643h202z" />
    <glyph glyph-name="Udieresismacron" unicode="&#x1d5;" horiz-adv-x="1341" 
d="M346 1365v-881q0 -153 88 -242t236 -89t236.5 89.5t88.5 241.5v881h204v-909q0 -216 -142 -350t-387 -134q-244 0 -386 134t-142 350v909h204zM509 1489q-39 0 -65.5 27.5t-26.5 67.5q0 42 26.5 69.5t65.5 27.5q41 0 68 -27.5t27 -69.5q0 -40 -27 -67.5t-68 -27.5z
M829 1489q-39 0 -66 27.5t-27 67.5q0 42 27 69.5t66 27.5q41 0 67.5 -27.5t26.5 -69.5q0 -41 -27 -68t-67 -27zM946 1791h-552v116h552v-116z" />
    <glyph glyph-name="udieresismacron" unicode="&#x1d6;" horiz-adv-x="1158" 
d="M1012 1054v-1054h-199v143h-8q-30 -69 -108 -114.5t-197 -45.5q-168 0 -268.5 95.5t-100.5 273.5v702h202v-646q0 -133 65 -190t171 -57q108 0 174.5 66t66.5 184v643h202zM406 1198q-41 0 -69.5 29t-28.5 71q0 45 28 74t70 29q43 0 71 -29t28 -74q0 -42 -28.5 -71
t-70.5 -29zM762 1198q-41 0 -69 29t-28 71q0 45 27.5 74t69.5 29q44 0 72.5 -29t28.5 -74q0 -42 -29 -71t-72 -29zM854 1545h-558v128h558v-128z" />
    <glyph glyph-name="Udieresisacute" unicode="&#x1d7;" horiz-adv-x="1341" 
d="M576 1738l233 195h208l-275 -195h-166zM509 1489q-39 0 -65.5 27.5t-26.5 67.5q0 42 26.5 69.5t65.5 27.5q41 0 68 -27.5t27 -69.5q0 -40 -27 -67.5t-68 -27.5zM829 1489q-39 0 -66 27.5t-27 67.5q0 42 27 69.5t66 27.5q41 0 67.5 -27.5t26.5 -69.5q0 -41 -27 -68
t-67 -27zM346 1365v-881q0 -153 88 -242t236 -89t236.5 89.5t88.5 241.5v881h204v-909q0 -216 -142 -350t-387 -134q-244 0 -386 134t-142 350v909h204z" />
    <glyph glyph-name="udieresisacute" unicode="&#x1d8;" horiz-adv-x="1158" 
d="M640 1505h-149l191 278h193zM406 1198q-41 0 -69.5 29t-28.5 71q0 45 28 74t70 29q43 0 71 -29t28 -74q0 -42 -28.5 -71t-70.5 -29zM762 1198q-41 0 -69 29t-28 71q0 45 27.5 74t69.5 29q44 0 72.5 -29t28.5 -74q0 -42 -29 -71t-72 -29zM1012 1054v-1054h-199v143h-8
q-30 -69 -108 -114.5t-197 -45.5q-168 0 -268.5 95.5t-100.5 273.5v702h202v-646q0 -133 65 -190t171 -57q108 0 174.5 66t66.5 184v643h202z" />
    <glyph glyph-name="Udieresiscaron" unicode="&#x1d9;" horiz-adv-x="1341" 
d="M419 1584q0 42 26.5 69.5t65.5 27.5q41 0 67.5 -27.5t26.5 -69.5q0 -41 -27 -68t-67 -27q-39 0 -65.5 27.5t-26.5 67.5zM738 1584q0 42 26.5 69.5t65.5 27.5q41 0 68 -27.5t27 -69.5q0 -40 -27.5 -67.5t-67.5 -27.5q-38 0 -65 27.5t-27 67.5zM335 1925h186l147 -110h4
l147 110h186l-279 -203h-112zM346 1365v-881q0 -153 88 -242t236 -89t236.5 89.5t88.5 241.5v881h204v-909q0 -216 -142 -350t-387 -134q-244 0 -386 134t-142 350v909h204z" />
    <glyph glyph-name="udieresiscaron" unicode="&#x1da;" horiz-adv-x="1158" 
d="M295 1790h161l117 -180h3l117 180h162l-217 -303h-127zM406 1198q-41 0 -69.5 29t-28.5 71q0 45 28 74t70 29q43 0 71 -29t28 -74q0 -42 -28.5 -71t-70.5 -29zM762 1198q-41 0 -69 29t-28 71q0 45 27.5 74t69.5 29q44 0 72.5 -29t28.5 -74q0 -42 -29 -71t-72 -29z
M1012 1054v-1054h-199v143h-8q-30 -69 -108 -114.5t-197 -45.5q-168 0 -268.5 95.5t-100.5 273.5v702h202v-646q0 -133 65 -190t171 -57q108 0 174.5 66t66.5 184v643h202z" />
    <glyph glyph-name="Udieresisgrave" unicode="&#x1db;" horiz-adv-x="1341" 
d="M764 1738h-166l-275 195h208zM509 1489q-39 0 -65.5 27.5t-26.5 67.5q0 42 26.5 69.5t65.5 27.5q41 0 68 -27.5t27 -69.5q0 -40 -27 -67.5t-68 -27.5zM829 1489q-39 0 -66 27.5t-27 67.5q0 42 27 69.5t66 27.5q41 0 67.5 -27.5t26.5 -69.5q0 -41 -27 -68t-67 -27z
M346 1365v-881q0 -153 88 -242t236 -89t236.5 89.5t88.5 241.5v881h204v-909q0 -216 -142 -350t-387 -134q-244 0 -386 134t-142 350v909h204z" />
    <glyph glyph-name="udieresisgrave" unicode="&#x1dc;" horiz-adv-x="1158" 
d="M662 1505h-149l-235 278h194zM406 1198q-41 0 -69.5 29t-28.5 71q0 45 28 74t70 29q43 0 71 -29t28 -74q0 -42 -28.5 -71t-70.5 -29zM762 1198q-41 0 -69 29t-28 71q0 45 27.5 74t69.5 29q44 0 72.5 -29t28.5 -74q0 -42 -29 -71t-72 -29zM1012 1054v-1054h-199v143h-8
q-30 -69 -108 -114.5t-197 -45.5q-168 0 -268.5 95.5t-100.5 273.5v702h202v-646q0 -133 65 -190t171 -57q108 0 174.5 66t66.5 184v643h202z" />
    <glyph glyph-name="Adieresismacron" unicode="&#x1de;" horiz-adv-x="1220" 
d="M234 0h-212l476 1365h224l476 -1365h-218l-128 391h-490zM611 1141h-7l-193 -590h392zM449 1489q-39 0 -65.5 27.5t-26.5 67.5q0 42 26.5 69.5t65.5 27.5q41 0 68 -27.5t27 -69.5q0 -40 -27 -67.5t-68 -27.5zM769 1489q-39 0 -66 27.5t-27 67.5q0 42 27 69.5t66 27.5
q41 0 67.5 -27.5t26.5 -69.5q0 -41 -27 -68t-67 -27zM886 1791h-552v116h552v-116z" />
    <glyph glyph-name="adieresismacron" unicode="&#x1df;" horiz-adv-x="1067" 
d="M731 130q-88 -147 -299 -147q-154 0 -249 87.5t-95 232.5q0 142 96 223t275 82h271v103q0 96 -53.5 147t-152.5 51q-93 0 -146.5 -44t-60.5 -119h-190q8 145 109 235t294 90q179 0 290 -91t111 -258v-722h-193v130h-7zM491 142q103 0 171 58t68 149v119h-243
q-98 0 -146.5 -42t-48.5 -113q0 -82 58 -126.5t141 -44.5zM366 1198q-41 0 -69.5 29t-28.5 71q0 45 28 74t70 29q43 0 71 -29t28 -74q0 -42 -28.5 -71t-70.5 -29zM722 1198q-41 0 -69 29t-28 71q0 45 27.5 74t69.5 29q44 0 72.5 -29t28.5 -74q0 -42 -29 -71t-72 -29z
M814 1545h-558v128h558v-128z" />
    <glyph glyph-name="Adotmacron" unicode="&#x1e0;" horiz-adv-x="1220" 
d="M234 0h-212l476 1365h224l476 -1365h-218l-128 391h-490zM611 1141h-7l-193 -590h392zM499 1577q0 46 32.5 78t78.5 32t78.5 -32t32.5 -78q0 -45 -32.5 -77t-78.5 -32t-78.5 32t-32.5 77zM886 1791h-552v116h552v-116z" />
    <glyph glyph-name="adotmacron" unicode="&#x1e1;" horiz-adv-x="1067" 
d="M731 130q-88 -147 -299 -147q-154 0 -249 87.5t-95 232.5q0 142 96 223t275 82h271v103q0 96 -53.5 147t-152.5 51q-93 0 -146.5 -44t-60.5 -119h-190q8 145 109 235t294 90q179 0 290 -91t111 -258v-722h-193v130h-7zM491 142q103 0 171 58t68 149v119h-243
q-98 0 -146.5 -42t-48.5 -113q0 -82 58 -126.5t141 -44.5zM421 1299q0 48 32.5 81t78.5 33q49 0 82 -33t33 -81t-33 -80t-82 -32q-46 0 -78.5 32t-32.5 80zM814 1545h-558v128h558v-128z" />
    <glyph glyph-name="AEmacron" unicode="&#x1e2;" horiz-adv-x="1864" 
d="M851 1188l-316 -618h387v618h-71zM922 405h-468l-212 -405h-230l719 1365h1021v-177h-626v-408h590v-170h-590v-433h626v-177h-830v405zM1617 1518h-552v116h552v-116z" />
    <glyph glyph-name="aemacron" unicode="&#x1e3;" horiz-adv-x="1727" 
d="M1197 -18q-262 0 -376 199h-3q-123 -199 -371 -199q-164 0 -261.5 87.5t-97.5 233.5q0 147 96.5 233.5t274.5 86.5h271v88q0 96 -53.5 147t-152.5 51q-93 0 -146.5 -44t-60.5 -119h-190q8 145 109 235.5t294 90.5q107 0 193 -37.5t135 -104.5h3q111 142 322 142
q215 0 330 -136t115 -364v-92h-690v-30q0 -60 15.5 -113.5t46 -96t81 -67t115.5 -24.5q97 0 150.5 42t67.5 106h201q-8 -56 -34.5 -108t-74 -100t-127.5 -77.5t-182 -29.5zM938 628h491v3q0 123 -66 200.5t-179 77.5t-179.5 -78t-66.5 -200v-3zM491 142q103 0 171 58t68 149
v128h-236q-103 0 -152.5 -43.5t-49.5 -120.5q0 -82 58 -126.5t141 -44.5zM1135 1237h-558v128h558v-128z" />
    <glyph glyph-name="Gcaron" unicode="&#x1e6;" horiz-adv-x="1283" 
d="M378 1801h160l117 -172h4l117 172h160l-217 -291h-124zM1177 942h-203q-15 126 -98.5 198.5t-218.5 72.5q-165 0 -256.5 -111.5t-91.5 -312.5v-194q0 -212 90 -328t265 -116q142 0 229.5 79t87.5 204v117h-329v168h528v-278q0 -200 -144 -334.5t-375 -134.5
q-273 0 -415.5 164t-142.5 459v195q0 279 147.5 441t407.5 162q226 0 366.5 -125.5t152.5 -325.5z" />
    <glyph glyph-name="gcaron" unicode="&#x1e7;" horiz-adv-x="1177" 
d="M307 1491h161l117 -180h3l117 180h162l-217 -303h-127zM568 -235q119 0 189 66.5t70 183.5v163h-7q-32 -72 -113.5 -119.5t-186.5 -47.5q-188 0 -301.5 129t-113.5 362v80q0 231 113.5 359.5t301.5 128.5q104 0 186 -47t119 -119h7v150h196v-1045q0 -80 -25 -147.5
t-68.5 -114t-102.5 -79t-125.5 -47.5t-139.5 -15q-201 0 -311.5 86t-127.5 226h202q15 -65 78.5 -109t159.5 -44zM572 902q-124 0 -193.5 -86.5t-69.5 -245.5v-63q0 -157 69.5 -244.5t193.5 -87.5q120 0 187.5 88t67.5 244v63q0 153 -69 242.5t-186 89.5z" />
    <glyph glyph-name="Kcaron" unicode="&#x1e8;" horiz-adv-x="1209" 
d="M1177 1365l-502 -583l527 -782h-256l-423 641l-159 -175v-466h-206v1365h206v-644h9l568 644h236zM305 1801h160l117 -172h4l117 172h160l-217 -291h-124z" />
    <glyph glyph-name="kcaron" unicode="&#x1e9;" horiz-adv-x="1007" 
d="M350 374v-374h-202v1437h202v-838h9l395 455h243l-406 -457l432 -597h-244l-339 474zM-33 1873h160l117 -172h4l117 172h160l-217 -291h-124z" />
    <glyph glyph-name="Oogonek" unicode="&#x1ea;" horiz-adv-x="1326" 
d="M311 774v-194q0 -211 97 -320t254 -109q158 0 255.5 109t97.5 320v194q0 211 -98 325.5t-255 114.5q-156 0 -253.5 -114.5t-97.5 -325.5zM640 -27q-240 0 -388.5 163t-148.5 444v192q0 289 151.5 455t409.5 166t408.5 -165.5t150.5 -455.5v-192q0 -92 -14.5 -169
t-42.5 -136t-55.5 -100t-64.5 -83l-57 -60.5t-55 -59.5t-32.5 -52t-15.5 -64q0 -51 32 -75.5t87 -24.5q39 0 74 9l-1 -133q-68 -19 -121 -19q-99 1 -165 52t-66 145q0 117 102 198l-5 10q-78 -45 -183 -45z" />
    <glyph glyph-name="oogonek" unicode="&#x1eb;" horiz-adv-x="1132" 
d="M566 906q-125 0 -192.5 -91t-67.5 -246v-81q0 -154 67.5 -246t192.5 -92q126 0 192.5 91.5t66.5 246.5v81q0 155 -67 246t-192 91zM658 18q-60 -34 -131 -34q-181 0 -302.5 142.5t-121.5 358.5v88q0 221 122.5 360t341.5 139q218 0 339.5 -138.5t121.5 -359.5v-89
q0 -251 -173 -413q-48 -45 -71 -70t-44 -64t-21 -77q0 -50 33 -78t87 -28q41 0 73 9v-132q-57 -19 -121 -19q-61 0 -111.5 19t-85.5 65t-35 112q0 117 106 199z" />
    <glyph glyph-name="Oogonekmacron" unicode="&#x1ec;" horiz-adv-x="1324" 
d="M311 774v-194q0 -211 97 -320t254 -109q158 0 255.5 109t97.5 320v194q0 211 -98 325.5t-255 114.5q-156 0 -253.5 -114.5t-97.5 -325.5zM640 -27q-240 0 -388.5 163t-148.5 444v192q0 289 151.5 455t409.5 166t408.5 -165.5t150.5 -455.5v-192q0 -92 -14.5 -169
t-42.5 -136t-55.5 -100t-64.5 -83l-57 -60.5t-55 -59.5t-32.5 -52t-15.5 -64q0 -51 32 -75.5t87 -24.5q39 0 74 9l-1 -133q-68 -19 -121 -19q-99 1 -165 52t-66 145q0 117 102 198l-5 10q-78 -45 -183 -45zM937 1518h-552v116h552v-116z" />
    <glyph glyph-name="oogonekmacron" unicode="&#x1ed;" horiz-adv-x="1132" 
d="M566 906q-125 0 -192.5 -91t-67.5 -246v-81q0 -154 67.5 -246t192.5 -92q126 0 192.5 91.5t66.5 246.5v81q0 155 -67 246t-192 91zM658 18q-60 -34 -131 -34q-181 0 -302.5 142.5t-121.5 358.5v88q0 221 122.5 360t341.5 139q218 0 339.5 -138.5t121.5 -359.5v-89
q0 -251 -173 -413q-48 -45 -71 -70t-44 -64t-21 -77q0 -50 33 -78t87 -28q41 0 73 9v-132q-57 -19 -121 -19q-61 0 -111.5 19t-85.5 65t-35 112q0 117 106 199zM845 1237h-558v128h558v-128z" />
    <glyph glyph-name="Gacute" unicode="&#x1f4;" horiz-adv-x="1283" 
d="M721 1510h-149l191 279h193zM1177 942h-203q-15 126 -98.5 198.5t-218.5 72.5q-165 0 -256.5 -111.5t-91.5 -312.5v-194q0 -212 90 -328t265 -116q142 0 229.5 79t87.5 204v117h-329v168h528v-278q0 -200 -144 -334.5t-375 -134.5q-273 0 -415.5 164t-142.5 459v195
q0 279 147.5 441t407.5 162q226 0 366.5 -125.5t152.5 -325.5z" />
    <glyph glyph-name="gacute" unicode="&#x1f5;" horiz-adv-x="1177" 
d="M649 1188h-149l191 278h193zM568 -235q119 0 189 66.5t70 183.5v163h-7q-32 -72 -113.5 -119.5t-186.5 -47.5q-188 0 -301.5 129t-113.5 362v80q0 231 113.5 359.5t301.5 128.5q104 0 186 -47t119 -119h7v150h196v-1045q0 -80 -25 -147.5t-68.5 -114t-102.5 -79
t-125.5 -47.5t-139.5 -15q-201 0 -311.5 86t-127.5 226h202q15 -65 78.5 -109t159.5 -44zM572 902q-124 0 -193.5 -86.5t-69.5 -245.5v-63q0 -157 69.5 -244.5t193.5 -87.5q120 0 187.5 88t67.5 244v63q0 153 -69 242.5t-186 89.5z" />
    <glyph glyph-name="Ngrave" unicode="&#x1f8;" horiz-adv-x="1368" 
d="M768 1510h-149l-235 279h193zM352 0h-194v1365h187l664 -1014h6v1014h195v-1365h-187l-665 1016h-6v-1016z" />
    <glyph glyph-name="ngrave" unicode="&#x1f9;" horiz-adv-x="1163" 
d="M672 1188h-149l-235 278h194zM146 0v1054h199v-144h7q34 64 112 112.5t195 48.5q167 0 270 -103t103 -291v-677h-201v639q0 125 -66 189.5t-175 64.5q-119 0 -181 -73t-62 -186v-634h-201z" />
    <glyph glyph-name="Aringacute" unicode="&#x1fa;" horiz-adv-x="1220" 
d="M234 0h-212l476 1365h224l476 -1365h-218l-128 391h-490zM611 1141h-7l-193 -590h392zM528 1811l100 133h205l-142 -133h-163zM610 1424q-74 0 -125 49.5t-51 122.5t51 122t125 49t125.5 -49t51.5 -122t-51.5 -122.5t-125.5 -49.5zM525 1596q0 -36 25 -61.5t61 -25.5
t60.5 25.5t24.5 61.5q0 37 -24 62t-61 25t-61.5 -25t-24.5 -62z" />
    <glyph glyph-name="aringacute" unicode="&#x1fb;" horiz-adv-x="1067" 
d="M731 130q-88 -147 -299 -147q-154 0 -249 87.5t-95 232.5q0 142 96 223t275 82h271v103q0 96 -53.5 147t-152.5 51q-93 0 -146.5 -44t-60.5 -119h-190q8 145 109 235t294 90q179 0 290 -91t111 -258v-722h-193v130h-7zM491 142q103 0 171 58t68 149v119h-243
q-98 0 -146.5 -42t-48.5 -113q0 -82 58 -126.5t141 -44.5zM615 1619h-150l136 190h194zM534 1182q-83 0 -140.5 55t-57.5 138q0 82 57.5 137t140.5 55q84 0 141 -55t57 -137q0 -83 -57 -138t-141 -55zM435 1375q0 -43 28.5 -72t70.5 -29t70.5 29t28.5 72q0 42 -28.5 71
t-70.5 29t-70.5 -29t-28.5 -71z" />
    <glyph glyph-name="AEacute" unicode="&#x1fc;" horiz-adv-x="1864" 
d="M1405 1510h-149l191 279h193zM851 1188l-316 -618h387v618h-71zM922 405h-468l-212 -405h-230l719 1365h1021v-177h-626v-408h590v-170h-590v-433h626v-177h-830v405z" />
    <glyph glyph-name="aeacute" unicode="&#x1fd;" horiz-adv-x="1727" 
d="M918 1188h-149l191 278h193zM1197 -18q-262 0 -376 199h-3q-123 -199 -371 -199q-164 0 -261.5 87.5t-97.5 233.5q0 147 96.5 233.5t274.5 86.5h271v88q0 96 -53.5 147t-152.5 51q-93 0 -146.5 -44t-60.5 -119h-190q8 145 109 235.5t294 90.5q107 0 193 -37.5t135 -104.5
h3q111 142 322 142q215 0 330 -136t115 -364v-92h-690v-30q0 -60 15.5 -113.5t46 -96t81 -67t115.5 -24.5q97 0 150.5 42t67.5 106h201q-8 -56 -34.5 -108t-74 -100t-127.5 -77.5t-182 -29.5zM938 628h491v3q0 123 -66 200.5t-179 77.5t-179.5 -78t-66.5 -200v-3zM491 142
q103 0 171 58t68 149v128h-236q-103 0 -152.5 -43.5t-49.5 -120.5q0 -82 58 -126.5t141 -44.5z" />
    <glyph glyph-name="Oslashacute" unicode="&#x1fe;" horiz-adv-x="1324" 
d="M660 -28q-236 0 -380 136l-100 -124l-105 86l116 145q-88 148 -88 365v192q0 289 151 455t409 166q228 0 373 -133l95 118l109 -79l-116 -144q97 -154 97 -383v-192q0 -287 -151 -447.5t-410 -160.5zM308 579q0 -107 28 -186l576 714q-95 109 -251 109
q-157 0 -255 -114.5t-98 -327.5v-195zM661 148q160 0 257 109.5t97 321.5v195q0 117 -34 204l-578 -718q94 -112 258 -112zM725 1510h-149l191 279h193z" />
    <glyph glyph-name="oslashacute" unicode="&#x1ff;" horiz-adv-x="1132" 
d="M399 213q65 -65 167 -65q127 0 194 92.5t67 247.5v82q0 109 -36 181zM305 488q0 -98 30 -169l389 534q-62 56 -158 56q-126 0 -193.5 -92t-67.5 -247v-82zM567 -18q-168 0 -279 82l-103 -139l-99 75l113 153q-96 131 -96 332v88q0 221 122.5 360t341.5 139q157 0 265 -74
l96 129l99 -77l-103 -138q104 -131 104 -338v-89q0 -226 -121 -364.5t-340 -138.5zM628 1188h-149l191 278h193z" />
    <glyph glyph-name="Adblgrave" unicode="&#x200;" horiz-adv-x="1220" 
d="M234 0h-212l476 1365h224l476 -1365h-218l-128 391h-490zM611 1141h-7l-193 -590h392zM553 1510h-148l-245 266h191zM861 1510h-147l-246 266h192z" />
    <glyph glyph-name="adblgrave" unicode="&#x201;" horiz-adv-x="1067" 
d="M731 130q-88 -147 -299 -147q-154 0 -249 87.5t-95 232.5q0 142 96 223t275 82h271v103q0 96 -53.5 147t-152.5 51q-93 0 -146.5 -44t-60.5 -119h-190q8 145 109 235t294 90q179 0 290 -91t111 -258v-722h-193v130h-7zM491 142q103 0 171 58t68 149v119h-243
q-98 0 -146.5 -42t-48.5 -113q0 -82 58 -126.5t141 -44.5zM332 1188l-229 279h169l191 -279h-131zM625 1188l-230 279h168l191 -279h-129z" />
    <glyph glyph-name="Ainvertedbreve" unicode="&#x202;" horiz-adv-x="1220" 
d="M234 0h-212l476 1365h224l476 -1365h-218l-128 391h-490zM611 1141h-7l-193 -590h392zM610 1665q-81 0 -122.5 -44t-41.5 -111h-127q0 50 17 97.5t51.5 87t92 63.5t130.5 24t130.5 -24t91 -63.5t51 -86.5t17.5 -98h-126q0 67 -41.5 111t-122.5 44z" />
    <glyph glyph-name="ainvertedbreve" unicode="&#x203;" horiz-adv-x="1067" 
d="M731 130q-88 -147 -299 -147q-154 0 -249 87.5t-95 232.5q0 142 96 223t275 82h271v103q0 96 -53.5 147t-152.5 51q-93 0 -146.5 -44t-60.5 -119h-190q8 145 109 235t294 90q179 0 290 -91t111 -258v-722h-193v130h-7zM491 142q103 0 171 58t68 149v119h-243
q-98 0 -146.5 -42t-48.5 -113q0 -82 58 -126.5t141 -44.5zM237 1209q0 52 18 101t52.5 90.5t94 67t133.5 25.5t133 -25.5t93.5 -67t52.5 -90.5t18 -101h-131q0 69 -42 116.5t-124 47.5t-124 -47.5t-42 -116.5h-132z" />
    <glyph glyph-name="Edblgrave" unicode="&#x204;" horiz-adv-x="1107" 
d="M514 1510h-148l-245 266h191zM822 1510h-147l-246 266h192zM996 177v-177h-838v1365h838v-177h-633v-408h597v-170h-597v-433h633z" />
    <glyph glyph-name="edblgrave" unicode="&#x205;" horiz-adv-x="1093" 
d="M557 -18q-210 0 -332 133.5t-122 363.5v111q0 219 119.5 350.5t326.5 131.5t325.5 -134.5t118.5 -357.5v-100h-689v-22q0 -141 69.5 -227t187.5 -86q86 0 143.5 40t80.5 112h195q-28 -138 -136.5 -226.5t-286.5 -88.5zM304 628h490v3q0 120 -68 200t-176 80
q-110 0 -178 -80t-68 -200v-3zM345 1188l-229 279h169l191 -279h-131zM638 1188l-230 279h168l191 -279h-129z" />
    <glyph glyph-name="Einvertedbreve" unicode="&#x206;" horiz-adv-x="1107" 
d="M996 177v-177h-838v1365h838v-177h-633v-408h597v-170h-597v-433h633zM571 1665q-81 0 -122.5 -44t-41.5 -111h-127q0 50 17 97.5t51.5 87t92 63.5t130.5 24t130.5 -24t91 -63.5t51 -86.5t17.5 -98h-126q0 67 -41.5 111t-122.5 44z" />
    <glyph glyph-name="einvertedbreve" unicode="&#x207;" horiz-adv-x="1093" 
d="M557 -18q-210 0 -332 133.5t-122 363.5v111q0 219 119.5 350.5t326.5 131.5t325.5 -134.5t118.5 -357.5v-100h-689v-22q0 -141 69.5 -227t187.5 -86q86 0 143.5 40t80.5 112h195q-28 -138 -136.5 -226.5t-286.5 -88.5zM304 628h490v3q0 120 -68 200t-176 80
q-110 0 -178 -80t-68 -200v-3zM250 1209q0 52 18 101t52.5 90.5t94 67t133.5 25.5t133 -25.5t93.5 -67t52.5 -90.5t18 -101h-131q0 69 -42 116.5t-124 47.5t-124 -47.5t-42 -116.5h-132z" />
    <glyph glyph-name="Idblgrave" unicode="&#x208;" horiz-adv-x="521" 
d="M364 0h-206v1365h206v-1365zM203 1510h-148l-245 266h191zM511 1510h-147l-246 266h192z" />
    <glyph glyph-name="idblgrave" unicode="&#x209;" horiz-adv-x="514" 
d="M156 0v1054h202v-1054h-202zM51 1188l-229 279h169l191 -279h-131zM344 1188l-230 279h168l191 -279h-129z" />
    <glyph glyph-name="Iinvertedbreve" unicode="&#x20a;" horiz-adv-x="521" 
d="M364 0h-206v1365h206v-1365zM260 1665q-81 0 -122.5 -44t-41.5 -111h-127q0 50 17 97.5t51.5 87t92 63.5t130.5 24t130.5 -24t91 -63.5t51 -86.5t17.5 -98h-126q0 67 -41.5 111t-122.5 44z" />
    <glyph glyph-name="iinvertedbreve" unicode="&#x20b;" horiz-adv-x="514" 
d="M156 0v1054h202v-1054h-202zM-44 1209q0 52 18 101t52.5 90.5t94 67t133.5 25.5t133 -25.5t93.5 -67t52.5 -90.5t18 -101h-131q0 69 -42 116.5t-124 47.5t-124 -47.5t-42 -116.5h-132z" />
    <glyph glyph-name="Odblgrave" unicode="&#x20c;" horiz-adv-x="1326" 
d="M604 1510h-148l-245 266h191zM912 1510h-147l-246 266h192zM311 774v-194q0 -211 97 -320t255 -109t255 109t97 320v194q0 211 -97.5 325.5t-254.5 114.5q-156 0 -254 -114.5t-98 -325.5zM103 580v192q0 289 152 455t410 166t408 -165.5t150 -455.5v-192
q0 -287 -151 -447.5t-411 -160.5q-259 0 -408.5 160.5t-149.5 447.5z" />
    <glyph glyph-name="odblgrave" unicode="&#x20d;" horiz-adv-x="1132" 
d="M567 1072q218 0 339.5 -138.5t121.5 -359.5v-89q0 -226 -121 -364.5t-340 -138.5q-220 0 -342 138.5t-122 364.5v88q0 221 122.5 360t341.5 139zM566 906q-125 0 -192.5 -91t-67.5 -246v-81q0 -154 67.5 -246t192.5 -92q126 0 192.5 91.5t66.5 246.5v81q0 155 -67 246
t-192 91zM364 1188l-229 279h169l191 -279h-131zM657 1188l-230 279h168l191 -279h-129z" />
    <glyph glyph-name="Oinvertedbreve" unicode="&#x20e;" horiz-adv-x="1326" 
d="M661 1665q-81 0 -122.5 -44t-41.5 -111h-127q0 50 17 97.5t51.5 87t92 63.5t130.5 24t130.5 -24t91 -63.5t51 -86.5t17.5 -98h-126q0 67 -41.5 111t-122.5 44zM311 774v-194q0 -211 97 -320t255 -109t255 109t97 320v194q0 211 -97.5 325.5t-254.5 114.5
q-156 0 -254 -114.5t-98 -325.5zM103 580v192q0 289 152 455t410 166t408 -165.5t150 -455.5v-192q0 -287 -151 -447.5t-411 -160.5q-259 0 -408.5 160.5t-149.5 447.5z" />
    <glyph glyph-name="oinvertedbreve" unicode="&#x20f;" horiz-adv-x="1132" 
d="M567 1072q218 0 339.5 -138.5t121.5 -359.5v-89q0 -226 -121 -364.5t-340 -138.5q-220 0 -342 138.5t-122 364.5v88q0 221 122.5 360t341.5 139zM566 906q-125 0 -192.5 -91t-67.5 -246v-81q0 -154 67.5 -246t192.5 -92q126 0 192.5 91.5t66.5 246.5v81q0 155 -67 246
t-192 91zM269 1209q0 52 18 101t52.5 90.5t94 67t133.5 25.5t133 -25.5t93.5 -67t52.5 -90.5t18 -101h-131q0 69 -42 116.5t-124 47.5t-124 -47.5t-42 -116.5h-132z" />
    <glyph glyph-name="Rdblgrave" unicode="&#x210;" horiz-adv-x="1228" 
d="M524 1510h-148l-245 266h191zM832 1510h-147l-246 266h192zM668 1365q113 0 201 -33t142 -91t81.5 -132t27.5 -159q0 -80 -23 -147t-61 -112.5t-80 -75t-88 -46.5l277 -569h-233l-248 532h-302v-532h-204v1365h510zM362 701h272q133 0 203 62t70 178q0 122 -72 186.5
t-195 64.5h-278v-491z" />
    <glyph glyph-name="rdblgrave" unicode="&#x211;" horiz-adv-x="718" 
d="M146 0v1054h202v-134h7q26 59 90.5 104.5t164.5 45.5q36 0 71 -5v-181q-29 6 -90 6q-241 0 -241 -254v-636h-204zM203 1188l-229 279h169l191 -279h-131zM496 1188l-230 279h168l191 -279h-129z" />
    <glyph glyph-name="Rinvertedbreve" unicode="&#x212;" horiz-adv-x="1228" 
d="M668 1365q113 0 201 -33t142 -91t81.5 -132t27.5 -159q0 -80 -23 -147t-61 -112.5t-80 -75t-88 -46.5l277 -569h-233l-248 532h-302v-532h-204v1365h510zM362 701h272q133 0 203 62t70 178q0 122 -72 186.5t-195 64.5h-278v-491zM581 1665q-81 0 -122.5 -44t-41.5 -111
h-127q0 50 17 97.5t51.5 87t92 63.5t130.5 24t130.5 -24t91 -63.5t51 -86.5t17.5 -98h-126q0 67 -41.5 111t-122.5 44z" />
    <glyph glyph-name="rinvertedbreve" unicode="&#x213;" horiz-adv-x="718" 
d="M146 0v1054h202v-134h7q26 59 90.5 104.5t164.5 45.5q36 0 71 -5v-181q-29 6 -90 6q-241 0 -241 -254v-636h-204zM108 1209q0 52 18 101t52.5 90.5t94 67t133.5 25.5t133 -25.5t93.5 -67t52.5 -90.5t18 -101h-131q0 69 -42 116.5t-124 47.5t-124 -47.5t-42 -116.5h-132z
" />
    <glyph glyph-name="Udblgrave" unicode="&#x214;" horiz-adv-x="1341" 
d="M613 1510h-148l-245 266h191zM921 1510h-147l-246 266h192zM346 1365v-881q0 -153 88 -242t236 -89t236.5 89.5t88.5 241.5v881h204v-909q0 -216 -142 -350t-387 -134q-244 0 -386 134t-142 350v909h204z" />
    <glyph glyph-name="udblgrave" unicode="&#x215;" horiz-adv-x="1158" 
d="M1012 1054v-1054h-199v143h-8q-30 -69 -108 -114.5t-197 -45.5q-168 0 -268.5 95.5t-100.5 273.5v702h202v-646q0 -133 65 -190t171 -57q108 0 174.5 66t66.5 184v643h202zM372 1188l-229 279h169l191 -279h-131zM665 1188l-230 279h168l191 -279h-129z" />
    <glyph glyph-name="Uinvertedbreve" unicode="&#x216;" horiz-adv-x="1341" 
d="M346 1365v-881q0 -153 88 -242t236 -89t236.5 89.5t88.5 241.5v881h204v-909q0 -216 -142 -350t-387 -134q-244 0 -386 134t-142 350v909h204zM670 1665q-81 0 -122.5 -44t-41.5 -111h-127q0 50 17 97.5t51.5 87t92 63.5t130.5 24t130.5 -24t91 -63.5t51 -86.5t17.5 -98
h-126q0 67 -41.5 111t-122.5 44z" />
    <glyph glyph-name="uinvertedbreve" unicode="&#x217;" horiz-adv-x="1158" 
d="M1012 1054v-1054h-199v143h-8q-30 -69 -108 -114.5t-197 -45.5q-168 0 -268.5 95.5t-100.5 273.5v702h202v-646q0 -133 65 -190t171 -57q108 0 174.5 66t66.5 184v643h202zM277 1209q0 52 18 101t52.5 90.5t94 67t133.5 25.5t133 -25.5t93.5 -67t52.5 -90.5t18 -101h-131
q0 69 -42 116.5t-124 47.5t-124 -47.5t-42 -116.5h-132z" />
    <glyph glyph-name="Scommaaccent" unicode="&#x218;" horiz-adv-x="1172" 
d="M60 375h203q10 -99 93 -164t226 -65q136 0 215 60.5t79 163.5q0 80 -52.5 128t-166.5 76l-230 58q-68 17 -124 45t-103.5 70.5t-74 106t-26.5 142.5q0 125 68.5 217.5t177 137.5t239.5 45q129 0 236 -43.5t176 -134.5t71 -216h-199q-9 97 -82.5 159t-204.5 62
q-124 0 -199.5 -56.5t-75.5 -155.5q0 -144 191 -190l228 -58q65 -16 117 -37t98.5 -52.5t77 -71t48.5 -94t18 -121.5q0 -196 -144.5 -305.5t-375.5 -109.5q-107 0 -194 24.5t-143 64.5t-94 93.5t-54.5 108.5t-18.5 112zM550 -489h-149l85 335h178z" />
    <glyph glyph-name="scommaaccent" unicode="&#x219;" horiz-adv-x="1005" 
d="M105 749q0 82 33 145.5t89.5 101.5t127 57t151.5 19q182 0 283 -88.5t101 -229.5h-184q-5 68 -53.5 115.5t-152.5 47.5q-90 0 -145 -39t-55 -109q0 -32 15 -56.5t39.5 -40t58 -27t67.5 -18.5l71 -14q9 -1 13 -2q65 -12 113 -25t96 -36t78.5 -53t49 -76t18.5 -105
q0 -157 -115.5 -245.5t-312.5 -88.5q-185 0 -295 82.5t-110 223.5h197q10 -69 68 -109.5t154 -40.5q106 0 161.5 43.5t55.5 109.5q0 27 -8 48t-28.5 37t-37.5 26t-54 20.5t-58 15t-68 13.5q-7 1 -10 2q-81 17 -138.5 37t-109.5 53.5t-78.5 85t-26.5 120.5zM492 -489h-149
l85 335h178z" />
    <glyph glyph-name="Tcommaaccent" unicode="&#x21a;" horiz-adv-x="1054" 
d="M512 -489h-149l85 335h178zM629 0h-204v1186h-407v179h1018v-179h-407v-1186z" />
    <glyph glyph-name="tcommaaccent" unicode="&#x21b;" horiz-adv-x="713" 
d="M417 -489h-149l85 335h178zM217 1054v260h199v-260h207v-164h-207v-584q0 -89 36 -120.5t130 -31.5q20 0 48 2v-157q-40 -7 -98 -7q-95 0 -156.5 17.5t-97 56.5t-49.5 93.5t-14 136.5v594h-144v164h146z" />
    <glyph glyph-name="Hcaron" unicode="&#x21e;" horiz-adv-x="1377" 
d="M1220 0h-206v615h-650v-615h-206v1365h206v-572h650v572h206v-1365zM408 1801h160l117 -172h4l117 172h160l-217 -291h-124z" />
    <glyph glyph-name="hcaron" unicode="&#x21f;" horiz-adv-x="1167" 
d="M149 0v1437h202v-527h7q34 64 111 112.5t194 48.5q167 0 270.5 -103t103.5 -291v-677h-202v639q0 125 -65.5 189.5t-175.5 64.5q-119 0 -181 -73t-62 -186v-634h-202zM-33 1873h160l117 -172h4l117 172h160l-217 -291h-124z" />
    <glyph glyph-name="Adotaccent" unicode="&#x226;" horiz-adv-x="1220" 
d="M234 0h-212l476 1365h224l476 -1365h-218l-128 391h-490zM611 1141h-7l-193 -590h392zM494 1642q0 47 34 80.5t82 33.5t82 -33.5t34 -80.5q0 -48 -34 -81.5t-82 -33.5t-82 33.5t-34 81.5z" />
    <glyph glyph-name="adotaccent" unicode="&#x227;" horiz-adv-x="1067" 
d="M731 130q-88 -147 -299 -147q-154 0 -249 87.5t-95 232.5q0 142 96 223t275 82h271v103q0 96 -53.5 147t-152.5 51q-93 0 -146.5 -44t-60.5 -119h-190q8 145 109 235t294 90q179 0 290 -91t111 -258v-722h-193v130h-7zM491 142q103 0 171 58t68 149v119h-243
q-98 0 -146.5 -42t-48.5 -113q0 -82 58 -126.5t141 -44.5zM422 1304q0 48 32.5 81t78.5 33q49 0 82 -33t33 -81t-33 -80t-82 -32q-46 0 -78.5 32t-32.5 80z" />
    <glyph glyph-name="Ecedilla" unicode="&#x228;" horiz-adv-x="1107" 
d="M573 -469q-81 -3 -149 15v111q47 -14 114 -14q48 0 82 16.5t34 56.5q0 23 -10.5 37t-33.5 20t-43 7.5t-56 1.5h-53v85l50 133h-350v1365h838v-177h-633v-408h597v-170h-597v-433h633v-177h-357l-44 -115q95 0 151 -42t56 -121q0 -93 -63 -140t-166 -51z" />
    <glyph glyph-name="ecedilla" unicode="&#x229;" horiz-adv-x="1093" 
d="M304 628h490v3q0 120 -68 200t-176 80q-110 0 -178 -80t-68 -200v-3zM559 -485q-85 -4 -149 15v110q44 -13 115 -13q115 0 115 73q0 18 -8 31t-19.5 19.5t-33 10t-38 4t-44.5 0.5h-53v86l51 135q-183 20 -287.5 150.5t-104.5 342.5v111q0 219 119.5 350.5t326.5 131.5
t325.5 -134.5t118.5 -357.5v-100h-689v-22q0 -141 69.5 -227t187.5 -86q86 0 143.5 40t80.5 112h195q-24 -124 -115 -209t-239 -102l-44 -118q95 0 151 -42t56 -121q0 -92 -63 -139t-167 -51z" />
    <glyph glyph-name="Odieresismacron" unicode="&#x22a;" horiz-adv-x="1326" 
d="M311 774v-194q0 -211 97 -320t255 -109t255 109t97 320v194q0 211 -97.5 325.5t-254.5 114.5q-156 0 -254 -114.5t-98 -325.5zM103 580v192q0 289 152 455t410 166t408 -165.5t150 -455.5v-192q0 -287 -151 -447.5t-411 -160.5q-259 0 -408.5 160.5t-149.5 447.5z
M500 1489q-39 0 -65.5 27.5t-26.5 67.5q0 42 26.5 69.5t65.5 27.5q41 0 68 -27.5t27 -69.5q0 -40 -27.5 -67.5t-67.5 -27.5zM820 1489q-39 0 -66 27.5t-27 67.5q0 42 27 69.5t66 27.5q41 0 67.5 -27.5t26.5 -69.5q0 -41 -27 -68t-67 -27zM937 1791h-552v116h552v-116z" />
    <glyph glyph-name="odieresismacron" unicode="&#x22b;" horiz-adv-x="1132" 
d="M398 1198q-41 0 -69.5 29t-28.5 71q0 45 28 74t70 29q43 0 71 -29t28 -74q0 -42 -28.5 -71t-70.5 -29zM754 1198q-41 0 -69 29t-28 71q0 45 27.5 74t69.5 29q44 0 72.5 -29t28.5 -74q0 -42 -29 -71t-72 -29zM846 1545h-558v128h558v-128zM567 1072q218 0 339.5 -138.5
t121.5 -359.5v-89q0 -226 -121 -364.5t-340 -138.5q-220 0 -342 138.5t-122 364.5v88q0 221 122.5 360t341.5 139zM566 906q-125 0 -192.5 -91t-67.5 -246v-81q0 -154 67.5 -246t192.5 -92q126 0 192.5 91.5t66.5 246.5v81q0 155 -67 246t-192 91z" />
    <glyph glyph-name="Otildemacron" unicode="&#x22c;" horiz-adv-x="1326" 
d="M769 1480q-34 0 -63 11.5t-48.5 28t-36.5 33.5t-34.5 28.5t-34.5 11.5q-55 0 -58 -94h-115q0 83 44 142.5t126 59.5q41 0 77 -17.5t56 -39t43.5 -39t42.5 -17.5q29 0 44 29t18 67h115q0 -80 -47 -142t-129 -62zM937 1791h-552v116h552v-116zM311 774v-194q0 -211 97 -320
t255 -109t255 109t97 320v194q0 211 -97.5 325.5t-254.5 114.5q-156 0 -254 -114.5t-98 -325.5zM103 580v192q0 289 152 455t410 166t408 -165.5t150 -455.5v-192q0 -287 -151 -447.5t-411 -160.5q-259 0 -408.5 160.5t-149.5 447.5z" />
    <glyph glyph-name="otildemacron" unicode="&#x22d;" horiz-adv-x="1132" 
d="M676 1183q-45 0 -83.5 20t-60.5 44t-48.5 44t-49.5 20q-26 0 -41.5 -21t-19.5 -42t-5 -45h-128q0 95 50 161.5t139 66.5q45 0 84 -20t61 -43.5t49 -43.5t50 -20q34 0 51.5 33.5t21.5 76.5h128q0 -89 -53.5 -160t-144.5 -71zM846 1545h-558v128h558v-128zM567 1072
q218 0 339.5 -138.5t121.5 -359.5v-89q0 -226 -121 -364.5t-340 -138.5q-220 0 -342 138.5t-122 364.5v88q0 221 122.5 360t341.5 139zM566 906q-125 0 -192.5 -91t-67.5 -246v-81q0 -154 67.5 -246t192.5 -92q126 0 192.5 91.5t66.5 246.5v81q0 155 -67 246t-192 91z" />
    <glyph glyph-name="Odotaccent" unicode="&#x22e;" horiz-adv-x="1326" 
d="M545 1642q0 47 34 80.5t82 33.5t82 -33.5t34 -80.5q0 -48 -34 -81.5t-82 -33.5t-82 33.5t-34 81.5zM311 774v-194q0 -211 97 -320t255 -109t255 109t97 320v194q0 211 -97.5 325.5t-254.5 114.5q-156 0 -254 -114.5t-98 -325.5zM103 580v192q0 289 152 455t410 166
t408 -165.5t150 -455.5v-192q0 -287 -151 -447.5t-411 -160.5q-259 0 -408.5 160.5t-149.5 447.5z" />
    <glyph glyph-name="odotaccent" unicode="&#x22f;" horiz-adv-x="1132" 
d="M454 1304q0 48 32.5 81t78.5 33q49 0 82 -33t33 -81t-33 -80t-82 -32q-46 0 -78.5 32t-32.5 80zM567 1072q218 0 339.5 -138.5t121.5 -359.5v-89q0 -226 -121 -364.5t-340 -138.5q-220 0 -342 138.5t-122 364.5v88q0 221 122.5 360t341.5 139zM566 906q-125 0 -192.5 -91
t-67.5 -246v-81q0 -154 67.5 -246t192.5 -92q126 0 192.5 91.5t66.5 246.5v81q0 155 -67 246t-192 91z" />
    <glyph glyph-name="Odotaccentmacron" unicode="&#x230;" horiz-adv-x="1326" 
d="M550 1577q0 46 32.5 78t78.5 32t78.5 -32t32.5 -78q0 -45 -32.5 -77t-78.5 -32t-78.5 32t-32.5 77zM937 1791h-552v116h552v-116zM311 774v-194q0 -211 97 -320t255 -109t255 109t97 320v194q0 211 -97.5 325.5t-254.5 114.5q-156 0 -254 -114.5t-98 -325.5zM103 580v192
q0 289 152 455t410 166t408 -165.5t150 -455.5v-192q0 -287 -151 -447.5t-411 -160.5q-259 0 -408.5 160.5t-149.5 447.5z" />
    <glyph glyph-name="odotaccentmacron" unicode="&#x231;" horiz-adv-x="1132" 
d="M567 1072q218 0 339.5 -138.5t121.5 -359.5v-89q0 -226 -121 -364.5t-340 -138.5q-220 0 -342 138.5t-122 364.5v88q0 221 122.5 360t341.5 139zM566 906q-125 0 -192.5 -91t-67.5 -246v-81q0 -154 67.5 -246t192.5 -92q126 0 192.5 91.5t66.5 246.5v81q0 155 -67 246
t-192 91zM453 1299q0 48 32.5 81t78.5 33q49 0 82 -33t33 -81t-33 -80t-82 -32q-46 0 -78.5 32t-32.5 80zM846 1545h-558v128h558v-128z" />
    <glyph glyph-name="Ymacron" unicode="&#x232;" horiz-adv-x="1109" 
d="M656 0h-204v565l-457 800h232l325 -597h7l326 597h228l-457 -797v-568zM830 1518h-552v116h552v-116z" />
    <glyph glyph-name="ymacron" unicode="&#x233;" horiz-adv-x="986" 
d="M982 1054q-365 -1044 -366 -1048l-27 -73q-21 -57 -41 -97.5t-52 -84.5t-70 -71t-93.5 -44.5t-124.5 -17.5q-60 0 -119 9v157q27 -5 80 -5q91 0 136 39.5t66 120.5l14 50l-381 1065h224l265 -848h7l267 848h215zM777 1237h-558v128h558v-128z" />
    <glyph glyph-name="quoteright" unicode="&#x2019;" horiz-adv-x="566" 
d="M298 917h-156l106 448h203z" />
    <glyph glyph-name="quoteright" unicode="&#x2bc;" horiz-adv-x="566" 
d="M298 917h-156l106 448h203z" />
    <glyph glyph-name="circumflex" unicode="&#x2c6;" horiz-adv-x="945" 
d="M192 1188l217 303h126l217 -303h-161l-117 180h-4l-117 -180h-161z" />
    <glyph glyph-name="caron" unicode="&#x2c7;" horiz-adv-x="946" 
d="M188 1491h161l117 -180h3l117 180h162l-217 -303h-127z" />
    <glyph glyph-name="breve" unicode="&#x2d8;" horiz-adv-x="946" 
d="M173 1466h130q0 -69 42 -116t123 -47t123 47t42 116h129q0 -51 -17.5 -99.5t-52 -90t-92.5 -66.5t-132 -25t-132.5 25t-93 66t-52 90t-17.5 100z" />
    <glyph glyph-name="dotaccent" unicode="&#x2d9;" horiz-adv-x="944" 
d="M359 1317q0 48 32.5 81t78.5 33q49 0 82 -33t33 -81t-33 -80t-82 -32q-46 0 -78.5 32t-32.5 80z" />
    <glyph glyph-name="ring" unicode="&#x2da;" horiz-adv-x="945" 
d="M484 1182q-83 0 -140.5 55t-57.5 138q0 82 57.5 137t140.5 55q84 0 141 -55t57 -137q0 -83 -57 -138t-141 -55zM385 1375q0 -43 28.5 -72t70.5 -29t70.5 29t28.5 72q0 42 -28.5 71t-70.5 29t-70.5 -29t-28.5 -71z" />
    <glyph glyph-name="ogonek" unicode="&#x2db;" horiz-adv-x="946" 
d="M649 -236v-129q-49 -22 -135 -22q-93 0 -153.5 48.5t-60.5 139.5q0 46 22 95t46 79t60.5 70.5t46.5 52.5h128q-28 -30 -46.5 -52t-45 -58t-40.5 -71t-14 -67q0 -47 30.5 -71t77.5 -24q45 0 84 9z" />
    <glyph glyph-name="tilde" unicode="&#x2dc;" horiz-adv-x="946" 
d="M582 1194q-45 0 -83.5 20t-60.5 44t-48.5 44t-49.5 20q-26 0 -41.5 -21t-19.5 -42t-5 -45h-128q0 95 50 161.5t139 66.5q45 0 84 -20t61 -43.5t49 -43.5t50 -20q34 0 51.5 33.5t21.5 76.5h128q0 -89 -53.5 -160t-144.5 -71z" />
    <glyph glyph-name="hungarumlaut" unicode="&#x2dd;" horiz-adv-x="946" 
d="M251 1188h-129l192 278h168zM544 1188h-131l193 278h168z" />
    <glyph glyph-name="gravecmb" unicode="&#x300;" horiz-adv-x="0" 
d="M87 1188h-149l-235 278h194z" />
    <glyph glyph-name="acutecmb" unicode="&#x301;" horiz-adv-x="0" 
d="M62 1188h-149l191 278h193z" />
    <glyph glyph-name="circumflexcmb" unicode="&#x302;" horiz-adv-x="0" 
d="M-280 1188l217 303h126l217 -303h-161l-117 180h-4l-117 -180h-161z" />
    <glyph glyph-name="tildecmb" unicode="&#x303;" horiz-adv-x="0" 
d="M109 1194q-45 0 -83.5 20t-60.5 44t-48.5 44t-49.5 20q-26 0 -41.5 -21t-19.5 -42t-5 -45h-128q0 95 50 161.5t139 66.5q45 0 84 -20t61 -43.5t49 -43.5t50 -20q34 0 51.5 33.5t21.5 76.5h128q0 -89 -53.5 -160t-144.5 -71z" />
    <glyph glyph-name="macroncmb" unicode="&#x304;" horiz-adv-x="0" 
d="M279 1237h-558v128h558v-128z" />
    <glyph glyph-name="brevecmb" unicode="&#x306;" horiz-adv-x="0" 
d="M-295 1466h130q0 -69 42 -116t123 -47t123 47t42 116h129q0 -51 -17.5 -99.5t-52 -90t-92.5 -66.5t-132 -25t-132.5 25t-93 66t-52 90t-17.5 100z" />
    <glyph glyph-name="dotaccentcmb" unicode="&#x307;" horiz-adv-x="0" 
d="M-113 1304q0 48 32.5 81t78.5 33q49 0 82 -33t33 -81t-33 -80t-82 -32q-46 0 -78.5 32t-32.5 80z" />
    <glyph glyph-name="dieresiscmb" unicode="&#x308;" horiz-adv-x="0" 
d="M-169 1198q-41 0 -69.5 29t-28.5 71q0 45 28 74t70 29q43 0 71 -29t28 -74q0 -42 -28.5 -71t-70.5 -29zM187 1198q-41 0 -69 29t-28 71q0 45 27.5 74t69.5 29q44 0 72.5 -29t28.5 -74q0 -42 -29 -71t-72 -29z" />
    <glyph glyph-name="hookabovecmb" unicode="&#x309;" horiz-adv-x="0" 
d="M-142 1423v105q36 18 107 18q95 0 151.5 -51t56.5 -133q0 -128 -153 -193l-64 85q51 22 72.5 45.5t21.5 55.5q0 37 -30 62t-76 25t-86 -19z" />
    <glyph glyph-name="ringcmb" unicode="&#x30a;" horiz-adv-x="0" 
d="M0 1182q-83 0 -140.5 55t-57.5 138q0 82 57.5 137t140.5 55q84 0 141 -55t57 -137q0 -83 -57 -138t-141 -55zM-99 1375q0 -43 28.5 -72t70.5 -29t70.5 29t28.5 72q0 42 -28.5 71t-70.5 29t-70.5 -29t-28.5 -71z" />
    <glyph glyph-name="hungarumlautcmb" unicode="&#x30b;" horiz-adv-x="0" 
d="M-110 1188h-129l192 278h168zM183 1188h-131l193 278h168z" />
    <glyph glyph-name="caroncmb" unicode="&#x30c;" horiz-adv-x="0" 
d="M-280 1491h161l117 -180h3l117 180h162l-217 -303h-127z" />
    <glyph glyph-name="dblgravecmb" unicode="&#x30f;" horiz-adv-x="0" 
d="M-203 1188l-229 279h169l191 -279h-131zM90 1188l-230 279h168l191 -279h-129z" />
    <glyph glyph-name="invertedbrevecmb" unicode="&#x311;" horiz-adv-x="0" 
d="M-298 1209q0 52 18 101t52.5 90.5t94 67t133.5 25.5t133 -25.5t93.5 -67t52.5 -90.5t18 -101h-131q0 69 -42 116.5t-124 47.5t-124 -47.5t-42 -116.5h-132z" />
    <glyph glyph-name="horncmb" unicode="&#x31b;" horiz-adv-x="0" 
d="M2 938v167q36 -34 91 -34q68 1 94.5 39t26.5 109v156h172v-166q0 -60 -14 -112.5t-42.5 -95.5t-78 -68t-114.5 -25q-93 0 -135 30z" />
    <glyph glyph-name="dotbelowcmb" unicode="&#x323;" horiz-adv-x="0" 
d="M-98 -268q0 44 29 73.5t71 29.5t71 -29.5t29 -73.5q0 -43 -29 -72t-71 -29t-71 29.5t-29 71.5z" />
    <glyph glyph-name="dieresisbelowcmb" unicode="&#x324;" horiz-adv-x="0" 
d="M-180 -379q-41 0 -69.5 29t-28.5 71q0 45 28 74t70 29q43 0 71 -29t28 -74q0 -42 -28.5 -71t-70.5 -29zM176 -379q-41 0 -69 29t-28 71q0 45 27.5 74t69.5 29q44 0 72.5 -29t28.5 -74q0 -42 -29 -71t-72 -29z" />
    <glyph glyph-name="ringbelowcmb" unicode="&#x325;" horiz-adv-x="0" 
d="M0 -504q-83 0 -140.5 55t-57.5 138q0 82 57.5 137t140.5 55q84 0 141 -55t57 -137q0 -83 -57 -138t-141 -55zM-99 -311q0 -43 28.5 -72t70.5 -29t70.5 29t28.5 72q0 42 -28.5 71t-70.5 29t-70.5 -29t-28.5 -71z" />
    <glyph glyph-name="commabelowcmb" unicode="&#x326;" horiz-adv-x="0" 
d="M-14 -489h-149l85 335h178z" />
    <glyph glyph-name="cedillacmb" unicode="&#x327;" horiz-adv-x="0" 
d="M-117 -235v86l59 157h131l-53 -140q96 0 151.5 -42t55.5 -121q0 -92 -63 -139t-166 -51q-85 -4 -149 15v110q44 -13 114 -13q48 0 82 16.5t34 56.5q0 18 -8 31t-19.5 19.5t-33 10t-38 4t-44.5 0.5h-53z" />
    <glyph glyph-name="ogonekcmb" unicode="&#x328;" horiz-adv-x="0" 
d="M154 -236v-129q-49 -22 -135 -22q-93 0 -153.5 48.5t-60.5 139.5q0 46 22 95t46 79t60.5 70.5t46.5 52.5h128q-28 -30 -46.5 -52t-45 -58t-40.5 -71t-14 -67q0 -47 30.5 -71t77.5 -24q45 0 84 9z" />
    <glyph glyph-name="circumflexbelowcmb" unicode="&#x32d;" horiz-adv-x="0" 
d="M-277 -400l212 287h130l212 -287h-159l-116 178h-4l-116 -178h-159z" />
    <glyph glyph-name="brevebelowcmb" unicode="&#x32e;" horiz-adv-x="0" 
d="M174 -137h131q0 -53 -17.5 -101.5t-52.5 -90.5t-96 -67t-139 -25q-79 0 -140.5 24.5t-98 66t-55.5 90.5t-19 103h139q0 -68 45 -116t129 -48t129 48t45 116z" />
    <glyph glyph-name="tildebelowcmb" unicode="&#x330;" horiz-adv-x="0" 
d="M111 -375q-43 0 -80 19t-58 42t-46 42t-46 19q-57 0 -60 -102h-123q0 90 46.5 153.5t131.5 63.5q43 0 80.5 -19t58.5 -42t46.5 -42t46.5 -19q30 0 47 31.5t20 72.5h123q0 -85 -50 -152t-137 -67z" />
    <glyph glyph-name="macronbelowcmb" unicode="&#x331;" horiz-adv-x="0" 
d="M279 -340h-558v128h558v-128z" />
    <glyph glyph-name="greekquestionmark" unicode="&#x37e;" horiz-adv-x="536" 
d="M204 -254h-149l107 444h208zM139 809q0 53 37.5 91t90.5 38t91 -38t38 -91t-38 -90.5t-91 -37.5t-90.5 37.5t-37.5 90.5z" />
    <glyph glyph-name="tonosgreek" unicode="&#x384;" horiz-adv-x="831" 
d="M302 1188l73 307h196l-122 -307h-147z" />
    <glyph glyph-name="dieresistonosgreek" unicode="&#x385;" horiz-adv-x="1083" 
d="M281 1198q-41 0 -69.5 29t-28.5 71q0 45 28 74t70 29q43 0 71.5 -29t28.5 -74q0 -42 -28.5 -71t-71.5 -29zM799 1198q-41 0 -69 29t-28 71q0 45 27.5 74t69.5 29q44 0 72.5 -29t28.5 -74q0 -42 -29 -71t-72 -29zM443 1188l31 307h196l-81 -307h-146z" />
    <glyph glyph-name="Alphatonosgreek" unicode="&#x386;" horiz-adv-x="1260" 
d="M275 0h-212l476 1365h224l476 -1365h-218l-128 391h-490zM652 1141h-7l-193 -590h392zM67 1058l73 307h196l-122 -307h-147z" />
    <glyph glyph-name="anoteleia" unicode="&#x387;" horiz-adv-x="607" 
d="M175 925q0 53 37.5 91t90.5 38t91 -38t38 -91t-38 -90.5t-91 -37.5t-90.5 37.5t-37.5 90.5z" />
    <glyph glyph-name="Epsilontonosgreek" unicode="&#x388;" horiz-adv-x="1409" 
d="M45 1058l73 307h196l-122 -307h-147zM1297 175v-177h-838v1365h838v-177h-633v-408h597v-170h-597v-433h633z" />
    <glyph glyph-name="Etatonosgreek" unicode="&#x389;" horiz-adv-x="1678" 
d="M45 1058l73 307h196l-122 -307h-147zM1521 0h-206v615h-650v-615h-206v1365h206v-572h650v572h206v-1365z" />
    <glyph glyph-name="Iotatonosgreek" unicode="&#x38a;" horiz-adv-x="822" 
d="M665 0h-206v1365h206v-1365zM45 1058l73 307h196l-122 -307h-147z" />
    <glyph glyph-name="Omicrontonosgreek" unicode="&#x38c;" horiz-adv-x="1522" 
d="M507 774v-194q0 -211 97 -320t255 -109t255 109t97 320v194q0 211 -97.5 325.5t-254.5 114.5q-156 0 -254 -114.5t-98 -325.5zM299 580v192q0 289 152 455t410 166t408 -165.5t150 -455.5v-192q0 -287 -151 -447.5t-411 -160.5q-259 0 -408.5 160.5t-149.5 447.5z
M45 1058l73 307h196l-122 -307h-147z" />
    <glyph glyph-name="Upsilontonosgreek" unicode="&#x38e;" horiz-adv-x="1515" 
d="M45 1058l73 307h196l-122 -307h-147zM1063 0h-204v565l-457 800h232l325 -597h7l326 597h228l-457 -797v-568z" />
    <glyph glyph-name="Omegatonosgreek" unicode="&#x38f;" horiz-adv-x="1535" 
d="M948 0v204q106 34 181.5 171t75.5 310v94q0 215 -98.5 325t-256.5 110q-160 0 -258 -111t-98 -324v-94q0 -170 74.5 -307.5t182.5 -173.5v-204h-483v181h240v12q-96 59 -159 192.5t-63 300.5v95q0 294 153.5 453t410.5 159t409.5 -159t152.5 -453v-95q0 -167 -63 -301.5
t-158 -191.5v-12h239v-181h-482zM45 1058l73 307h196l-122 -307h-147z" />
    <glyph glyph-name="iotadieresistonosgreek" unicode="&#x390;" horiz-adv-x="618" 
d="M148 1054h201v-748q0 -89 35 -120.5t129 -31.5q28 0 52 3v-157q-45 -8 -102 -8q-179 0 -247 67.5t-68 236.5v758zM6 1198q-41 0 -69.5 29t-28.5 71q0 45 28 74t70 29q43 0 71.5 -29t28.5 -74q0 -42 -28.5 -71t-71.5 -29zM524 1198q-41 0 -69 29t-28 71q0 45 27.5 74
t69.5 29q44 0 72.5 -29t28.5 -74q0 -42 -29 -71t-72 -29zM168 1188l31 307h196l-81 -307h-146z" />
    <glyph glyph-name="Alphagreek" unicode="&#x391;" horiz-adv-x="1220" 
d="M234 0h-212l476 1365h224l476 -1365h-218l-128 391h-490zM611 1141h-7l-193 -590h392z" />
    <glyph glyph-name="Betagreek" unicode="&#x392;" horiz-adv-x="1234" 
d="M158 0v1365h531q177 0 282 -90.5t105 -245.5q0 -116 -59 -193t-165 -108v-9q136 -17 217.5 -104.5t81.5 -231.5q0 -179 -129 -281t-347 -102h-517zM363 1196v-412h199q159 0 233.5 51.5t74.5 158.5q0 95 -58 148.5t-163 53.5h-286zM363 621v-452h225q187 0 270 52.5
t83 166.5q0 111 -71.5 172t-201.5 61h-305z" />
    <glyph glyph-name="Gammagreek" unicode="&#x393;" horiz-adv-x="1022" 
d="M364 0h-206v1365h807v-178h-601v-1187z" />
    <glyph glyph-name="Deltagreek" unicode="&#x394;" horiz-adv-x="1227" 
d="M48 0v122l456 1243h222l454 -1243v-122h-1132zM609 1131l-343 -970h690l-340 970h-7z" />
    <glyph glyph-name="Epsilongreek" unicode="&#x395;" horiz-adv-x="1107" 
d="M996 175v-177h-838v1365h838v-177h-633v-408h597v-170h-597v-433h633z" />
    <glyph glyph-name="Zetagreek" unicode="&#x396;" horiz-adv-x="1156" 
d="M83 0v141l708 1041v6h-685v177h937v-139l-703 -1042v-7h721v-177h-978z" />
    <glyph glyph-name="Etagreek" unicode="&#x397;" horiz-adv-x="1377" 
d="M1220 0h-206v615h-650v-615h-206v1365h206v-572h650v572h206v-1365z" />
    <glyph glyph-name="Thetagreek" unicode="&#x398;" horiz-adv-x="1360" 
d="M927 598h-495v174h495v-174zM309 775v-197q0 -206 100 -315.5t270 -109.5q171 0 271.5 108.5t100.5 316.5v197q0 212 -100.5 324.5t-271.5 112.5q-170 0 -270 -114.5t-100 -322.5zM103 580v192q0 288 154.5 454.5t422.5 166.5q270 0 423.5 -165t153.5 -456v-192
q0 -287 -154.5 -447.5t-425.5 -160.5q-269 0 -421.5 161t-152.5 447z" />
    <glyph glyph-name="Iotagreek" unicode="&#x399;" horiz-adv-x="521" 
d="M364 0h-206v1365h206v-1365z" />
    <glyph glyph-name="Kappagreek" unicode="&#x39a;" horiz-adv-x="1209" 
d="M1177 1365l-502 -583l527 -782h-256l-423 641l-159 -175v-466h-206v1365h206v-644h9l568 644h236z" />
    <glyph glyph-name="Lambdagreek" unicode="&#x39b;" horiz-adv-x="1185" 
d="M587 1122l-352 -1122h-212l458 1365h224l457 -1365h-218l-350 1122h-7z" />
    <glyph glyph-name="Mugreek" unicode="&#x39c;" horiz-adv-x="1600" 
d="M347 0h-185v1365h204l432 -998h5l431 998h204v-1365h-186v963h-8l-366 -830h-157l-367 830h-7v-963z" />
    <glyph glyph-name="Nugreek" unicode="&#x39d;" horiz-adv-x="1368" 
d="M352 0h-194v1365h187l664 -1014h6v1014h195v-1365h-187l-665 1016h-6v-1016z" />
    <glyph glyph-name="Xigreek" unicode="&#x39e;" horiz-adv-x="1154" 
d="M111 1183v182h932v-182h-932zM197 605v176h760v-176h-760zM111 0v182h932v-182h-932z" />
    <glyph glyph-name="Omicrongreek" unicode="&#x39f;" horiz-adv-x="1326" 
d="M311 774v-194q0 -211 97 -320t255 -109t255 109t97 320v194q0 211 -97.5 325.5t-254.5 114.5q-156 0 -254 -114.5t-98 -325.5zM103 580v192q0 289 152 455t410 166t408 -165.5t150 -455.5v-192q0 -287 -151 -447.5t-411 -160.5q-259 0 -408.5 160.5t-149.5 447.5z" />
    <glyph glyph-name="Pigreek" unicode="&#x3a0;" horiz-adv-x="1357" 
d="M1200 0h-206v1187h-630v-1187h-206v1365h1042v-1365z" />
    <glyph glyph-name="Rhogreek" unicode="&#x3a1;" horiz-adv-x="1165" 
d="M158 1365h513q201 0 322 -121t121 -314q0 -194 -121 -313.5t-323 -119.5h-307v-497h-205v1365zM363 1190v-520h192q87 0 147.5 11t108 39.5t70 80t22.5 129.5q0 124 -67.5 192t-190.5 68h-282z" />
    <glyph glyph-name="Sigmagreek" unicode="&#x3a3;" horiz-adv-x="1123" 
d="M83 133l391 553l-384 539v140h931v-177h-666v-6l339 -476v-27l-351 -495v-7h686v-177h-946v133z" />
    <glyph glyph-name="Taugreek" unicode="&#x3a4;" horiz-adv-x="1054" 
d="M629 0h-204v1186h-407v179h1018v-179h-407v-1186z" />
    <glyph glyph-name="Upsilongreek" unicode="&#x3a5;" horiz-adv-x="1109" 
d="M656 0h-204v565l-457 800h232l325 -597h7l326 597h228l-457 -797v-568z" />
    <glyph glyph-name="Phigreek" unicode="&#x3a6;" horiz-adv-x="1563" 
d="M878 -55h-193v107q-273 6 -427.5 166t-154.5 421v77q0 260 153.5 420t428.5 167v111h193v-111q275 -7 428.5 -167.5t153.5 -419.5v-76q0 -261 -154.5 -421.5t-427.5 -166.5v-107zM687 221v913q-180 -7 -281 -117.5t-101 -307.5v-64q0 -199 102 -308t280 -116zM876 221
q178 7 280 116t102 308v64q0 197 -101 307.5t-281 117.5v-913z" />
    <glyph glyph-name="Chigreek" unicode="&#x3a7;" horiz-adv-x="1144" 
d="M1143 1365l-447 -688l438 -677h-243l-324 521h-10l-327 -521h-229l439 688l-433 677h245l324 -525h11l321 525h235z" />
    <glyph glyph-name="Psigreek" unicode="&#x3a8;" horiz-adv-x="1472" 
d="M636 0v307q-502 19 -502 483v575h200v-573q0 -163 72.5 -233.5t229.5 -75.5v882h200v-882q157 5 229.5 75t72.5 234v573h200v-575q0 -462 -502 -483v-307h-200z" />
    <glyph glyph-name="Omegagreek" unicode="&#x3a9;" horiz-adv-x="1371" 
d="M784 0v204q106 34 181.5 171t75.5 310v94q0 215 -98.5 325t-256.5 110q-160 0 -258 -111t-98 -324v-94q0 -170 74.5 -307.5t182.5 -173.5v-204h-483v181h240v12q-96 59 -159 192.5t-63 300.5v95q0 294 153.5 453t410.5 159t409.5 -159t152.5 -453v-95q0 -167 -63 -301.5
t-158 -191.5v-12h239v-181h-482z" />
    <glyph glyph-name="Iotadieresisgreek" unicode="&#x3aa;" horiz-adv-x="521" 
d="M364 0h-206v1365h206v-1365zM99 1489q-39 0 -65.5 27.5t-26.5 67.5q0 42 26.5 69.5t65.5 27.5q41 0 68 -27.5t27 -69.5q0 -40 -27 -67.5t-68 -27.5zM419 1489q-39 0 -66 27.5t-27 67.5q0 42 27 69.5t66 27.5q41 0 67.5 -27.5t26.5 -69.5q0 -41 -27 -68t-67 -27z" />
    <glyph glyph-name="Upsilondieresisgreek" unicode="&#x3ab;" horiz-adv-x="1109" 
d="M656 0h-204v565l-457 800h232l325 -597h7l326 597h228l-457 -797v-568zM392 1489q-39 0 -65.5 27.5t-26.5 67.5q0 42 26.5 69.5t65.5 27.5q41 0 68 -27.5t27 -69.5q0 -40 -27.5 -67.5t-67.5 -27.5zM712 1489q-39 0 -66 27.5t-27 67.5q0 42 27 69.5t66 27.5
q41 0 67.5 -27.5t26.5 -69.5q0 -41 -27 -68t-67 -27z" />
    <glyph glyph-name="alphatonosgreek" unicode="&#x3ac;" horiz-adv-x="1230" 
d="M513 -16q-184 0 -294.5 135t-110.5 375v76q0 225 107.5 362.5t295.5 137.5q109 0 189.5 -49t114.5 -128h7v161h194v-777q0 -70 20.5 -96.5t70.5 -26.5q27 0 47 5v-158q-35 -10 -89 -10q-105 0 -166 43t-74 122l-3 14h-7q-35 -85 -115.5 -135.5t-186.5 -50.5zM559 152
q116 0 186.5 92t70.5 251v67q0 157 -71.5 247.5t-192.5 90.5q-113 0 -176 -91.5t-63 -241.5v-73q0 -155 64.5 -248.5t181.5 -93.5zM464 1188l73 307h196l-122 -307h-147z" />
    <glyph glyph-name="epsilontonosgreek" unicode="&#x3ad;" horiz-adv-x="1125" 
d="M506 1188l73 307h196l-122 -307h-147zM539 -18q-205 0 -316 80.5t-111 220.5q0 85 45 148.5t130 96.5v7q-152 52 -152 226q0 143 108.5 227t317.5 84q208 0 320 -80.5t135 -242.5h-193q-20 84 -84 121t-180 37q-113 0 -170 -42t-57 -113q0 -141 209 -141h155v-160h-164
q-110 0 -162.5 -39.5t-52.5 -108.5q0 -76 62 -116t179 -40q116 0 188 50t93 135h197q-34 -167 -162 -258.5t-335 -91.5z" />
    <glyph glyph-name="etatonosgreek" unicode="&#x3ae;" horiz-adv-x="1244" 
d="M234 0v778q0 68 -22 95.5t-76 27.5q-18 0 -48 -6v158q39 11 98 11q100 0 155.5 -38.5t76.5 -125.5l3 -12h7q40 88 122.5 135.5t186.5 47.5q179 0 277.5 -105.5t98.5 -285.5v-1045h-202v1006q0 118 -64.5 185t-168.5 67q-111 0 -176.5 -69.5t-65.5 -191.5v-632h-202z
M473 1188l73 307h196l-122 -307h-147z" />
    <glyph glyph-name="iotatonosgreek" unicode="&#x3af;" horiz-adv-x="618" 
d="M148 1054h201v-748q0 -89 35 -120.5t129 -31.5q28 0 52 3v-157q-45 -8 -102 -8q-179 0 -247 67.5t-68 236.5v758zM179 1188l73 307h196l-122 -307h-147z" />
    <glyph glyph-name="upsilondieresistonosgreek" unicode="&#x3b0;" horiz-adv-x="1117" 
d="M277 1198q-41 0 -69.5 29t-28.5 71q0 45 28 74t70 29q43 0 71.5 -29t28.5 -74q0 -42 -28.5 -71t-71.5 -29zM795 1198q-41 0 -69 29t-28 71q0 45 27.5 74t69.5 29q44 0 72.5 -29t28.5 -74q0 -42 -29 -71t-72 -29zM439 1188l31 307h196l-81 -307h-146zM541 -17
q-196 0 -303 104.5t-107 309.5v657h196v-632q0 -137 54 -201t167 -64q120 0 185.5 94.5t65.5 282.5q0 153 -21.5 272t-71.5 248h202q41 -87 65.5 -227t24.5 -286q0 -267 -117 -412.5t-340 -145.5z" />
    <glyph glyph-name="alphagreek" unicode="&#x3b1;" horiz-adv-x="1230" 
d="M513 -16q-184 0 -294.5 135t-110.5 375v76q0 225 107.5 362.5t295.5 137.5q109 0 189.5 -49t114.5 -128h7v161h194v-777q0 -70 20.5 -96.5t70.5 -26.5q27 0 47 5v-158q-35 -10 -89 -10q-105 0 -166 43t-74 122l-3 14h-7q-35 -85 -115.5 -135.5t-186.5 -50.5zM559 152
q116 0 186.5 92t70.5 251v67q0 157 -71.5 247.5t-192.5 90.5q-113 0 -176 -91.5t-63 -241.5v-73q0 -155 64.5 -248.5t181.5 -93.5z" />
    <glyph glyph-name="betagreek" unicode="&#x3b2;" horiz-adv-x="1188" 
d="M148 -362v1354q0 232 113.5 350.5t319.5 118.5q196 0 303.5 -98t107.5 -263q0 -105 -48.5 -184t-138.5 -122v-6q139 -33 211 -129t72 -250q0 -186 -113 -305t-307 -119q-221 0 -311 172h-7v-519h-202zM628 153q115 0 185.5 71.5t70.5 189.5q0 132 -83.5 206.5
t-244.5 74.5h-68v163h83q119 0 174.5 56.5t55.5 165.5q0 97 -58.5 156t-157.5 59q-238 0 -238 -310v-548q0 -128 75.5 -206t205.5 -78z" />
    <glyph glyph-name="gammagreek" unicode="&#x3b3;" horiz-adv-x="1066" 
d="M404 -362v310l-382 1106h209l284 -888h9q248 376 248 701q0 112 -21 187h199q21 -70 21 -192q0 -396 -367 -895v-329h-200z" />
    <glyph glyph-name="deltagreek" unicode="&#x3b4;" horiz-adv-x="1123" 
d="M555 -18q-211 0 -334 126.5t-123 364.5v24q0 186 92.5 306t255.5 151v7q-99 50 -144 108.5t-45 132.5q0 116 94 187.5t252 71.5q205 0 323 -80v-161q-122 79 -314 79q-76 0 -117 -26.5t-41 -75.5q0 -44 35.5 -78t146.5 -92q216 -116 300 -232.5t84 -300.5v-24
q0 -231 -123 -359.5t-342 -128.5zM559 145q263 0 263 341q0 166 -70.5 250t-188.5 84q-130 0 -199 -86t-69 -252q0 -174 70 -255.5t194 -81.5z" />
    <glyph glyph-name="epsilongreek" unicode="&#x3b5;" horiz-adv-x="1125" 
d="M539 -18q-205 0 -316 80.5t-111 220.5q0 85 45 148.5t130 96.5v7q-152 52 -152 226q0 143 108.5 227t317.5 84q208 0 320 -80.5t135 -242.5h-193q-20 84 -84 121t-180 37q-113 0 -170 -42t-57 -113q0 -141 209 -141h155v-160h-164q-110 0 -162.5 -39.5t-52.5 -108.5
q0 -76 62 -116t179 -40q116 0 188 50t93 135h197q-34 -167 -162 -258.5t-335 -91.5z" />
    <glyph glyph-name="zetagreek" unicode="&#x3b6;" horiz-adv-x="896" 
d="M623 -319q61 90 61 161q0 65 -42 104t-167 97q-200 93 -290 206.5t-90 291.5q0 187 123 373.5t346 343.5v7h-394v172h713v-162q-304 -195 -445 -371.5t-141 -347.5q0 -124 55 -198t198 -141q192 -90 260 -158.5t68 -172.5q0 -116 -100 -267z" />
    <glyph glyph-name="etagreek" unicode="&#x3b7;" horiz-adv-x="1244" 
d="M234 0v778q0 68 -22 95.5t-76 27.5q-18 0 -48 -6v158q39 11 98 11q100 0 155.5 -38.5t76.5 -125.5l3 -12h7q40 88 122.5 135.5t186.5 47.5q179 0 277.5 -105.5t98.5 -285.5v-1045h-202v1006q0 118 -64.5 185t-168.5 67q-111 0 -176.5 -69.5t-65.5 -191.5v-632h-202z" />
    <glyph glyph-name="thetagreek" unicode="&#x3b8;" horiz-adv-x="1163" 
d="M582 -18q-477 0 -477 661v143q0 675 476 675q477 0 477 -675v-143q0 -661 -476 -661zM582 146q138 0 206 113.5t68 374.5h-549q0 -260 68 -374t207 -114zM308 802h547q-1 189 -33.5 299t-89.5 152.5t-150 42.5q-55 0 -96.5 -14.5t-75.5 -48.5t-55.5 -90.5t-33.5 -141
t-13 -199.5z" />
    <glyph glyph-name="iotagreek" unicode="&#x3b9;" horiz-adv-x="618" 
d="M148 1054h201v-748q0 -89 35 -120.5t129 -31.5q28 0 52 3v-157q-45 -8 -102 -8q-179 0 -247 67.5t-68 236.5v758z" />
    <glyph glyph-name="kappagreek" unicode="&#x3ba;" horiz-adv-x="1137" 
d="M341 265v-265h-193v1054h193v-535h6l319 382q79 94 134 128.5t130 34.5q52 0 91 -11v-158q-25 6 -56 6q-47 0 -75 -16.5t-71 -68.5l-151 -179l399 -637h-204l-320 503z" />
    <glyph glyph-name="lambdagreek" unicode="&#x3bb;" horiz-adv-x="1129" 
d="M61 0l395 977l-30 82q-38 104 -66.5 153.5t-60 68t-84.5 18.5q-23 0 -55 -6v158q43 10 92 10q135 0 204.5 -75t148.5 -301l297 -839q19 -54 43.5 -73t72.5 -19q19 0 46 5v-158q-36 -10 -96 -10q-98 0 -148 36.5t-86 142.5l-179 535h-10l-272 -705h-212z" />
    <glyph glyph-name="mugreek" unicode="&#x3bc;" horiz-adv-x="1247" 
d="M148 -362v1416h203v-649q0 -113 56.5 -178.5t160.5 -65.5q113 0 182 71t69 172v650h203v-777q0 -72 18.5 -97.5t67.5 -25.5q26 0 45 5v-158q-35 -10 -97 -10q-192 0 -213 161l-2 20h-7q-36 -89 -105.5 -139t-164.5 -50q-67 0 -123.5 30t-81.5 82h-9v-457h-202z" />
    <glyph glyph-name="nugreek" unicode="&#x3bd;" horiz-adv-x="1066" 
d="M386 0l-364 1054h209l284 -888h9q248 376 248 701q0 112 -21 187h199q21 -70 21 -192q0 -383 -344 -862h-241z" />
    <glyph glyph-name="xigreek" unicode="&#x3be;" horiz-adv-x="952" 
d="M640 -319q61 89 61 160q0 59 -45 101t-176 102q-217 99 -297 185t-80 214q0 109 65.5 187t187.5 107v7q-100 38 -147 102.5t-47 162.5q0 94 53.5 158t154.5 92v6h-202v172h714v-148l-95 -9q-431 -40 -431 -247q0 -95 70 -141.5t235 -46.5h153v-162h-159
q-169 0 -259 -56.5t-90 -155.5q0 -83 54 -133t236 -139q175 -86 237 -152t62 -159q0 -119 -100 -269z" />
    <glyph glyph-name="omicrongreek" unicode="&#x3bf;" horiz-adv-x="1120" 
d="M561 -18q-217 0 -337.5 138.5t-120.5 364.5v88q0 220 122 359.5t336 139.5q213 0 334.5 -139t121.5 -359v-89q0 -226 -120.5 -364.5t-335.5 -138.5zM561 150q119 0 186 90t67 248v81q0 157 -67 247t-186 90q-120 0 -187.5 -90t-67.5 -247v-81q0 -158 67.5 -248t187.5 -90
z" />
    <glyph glyph-name="pigreek" unicode="&#x3c0;" horiz-adv-x="1371" 
d="M289 0v882h-218v172h1210v-172h-222v-595q0 -72 23 -102.5t80 -30.5q34 0 57 5v-156q-42 -11 -112 -11q-130 0 -188 66t-58 210v614h-375v-882h-197z" />
    <glyph glyph-name="rhogreek" unicode="&#x3c1;" horiz-adv-x="1153" 
d="M599 154q115 0 180 88t65 255v65q0 169 -66 254t-188 85t-190 -86.5t-68 -253.5v-69q0 -160 73.5 -249t193.5 -89zM132 -362v932q0 239 119.5 369.5t337.5 130.5q223 0 341.5 -134.5t118.5 -371.5v-76q0 -234 -112.5 -369t-299.5 -135q-199 0 -296 155h-7v-501h-202z" />
    <glyph glyph-name="sigmafinalgreek" unicode="&#x3c2;" horiz-adv-x="1054" 
d="M615 -319q61 90 61 161q0 67 -37.5 106t-158.5 95q-136 63 -216.5 129.5t-120.5 156.5t-40 214v33q0 221 122.5 358.5t332.5 137.5q181 0 294 -99.5t120 -239.5h-193q-17 71 -73 119.5t-136 48.5q-122 0 -193 -85.5t-71 -238.5v-14q0 -129 53 -204t196 -142
q189 -88 252 -156.5t63 -174.5q0 -116 -100 -267z" />
    <glyph glyph-name="sigmagreek" unicode="&#x3c3;" horiz-adv-x="1231" 
d="M561 -18q-211 0 -334.5 136t-123.5 367v62q0 237 129 372t341 135h586v-172h-265v-6q128 -122 128 -338v-63q0 -121 -35 -216t-97 -155t-145.5 -91t-183.5 -31zM567 150q123 0 190.5 90t67.5 243v87q0 138 -68.5 225.5t-187.5 87.5q-128 0 -195 -90t-67 -244v-67
q0 -152 68 -242t192 -90z" />
    <glyph glyph-name="taugreek" unicode="&#x3c4;" horiz-adv-x="995" 
d="M52 1054h871v-172h-340v-576q0 -89 36 -120.5t130 -31.5q41 0 64 3v-157q-45 -8 -114 -8q-181 0 -249 68.5t-68 235.5v586h-330v172z" />
    <glyph glyph-name="upsilongreek" unicode="&#x3c5;" horiz-adv-x="1117" 
d="M541 -17q-196 0 -303 104.5t-107 309.5v657h196v-632q0 -137 54 -201t167 -64q120 0 185.5 94.5t65.5 282.5q0 153 -21.5 272t-71.5 248h202q41 -87 65.5 -227t24.5 -286q0 -267 -117 -412.5t-340 -145.5z" />
    <glyph glyph-name="phigreek" unicode="&#x3c6;" horiz-adv-x="1462" 
d="M634 -362v344q-253 7 -392 149.5t-139 377.5v35q0 243 142 381.5t389 146.5v242h194v-242q246 -8 388 -146.5t142 -381.5v-35q0 -235 -138.5 -377.5t-391.5 -149.5v-344h-194zM636 146v762q-163 -5 -247.5 -101.5t-84.5 -280.5t86 -278t246 -102zM826 146q157 2 245.5 99
t88.5 282q0 182 -86 281t-248 100v-762z" />
    <glyph glyph-name="chigreek" unicode="&#x3c7;" horiz-adv-x="1101" 
d="M73 -362l380 703l-208 424q-41 81 -74 108.5t-88 27.5q-17 0 -47 -6v158q39 11 98 11q94 0 149 -40.5t108 -150.5l170 -356h10l268 537h210l-386 -723l211 -427q31 -63 63 -87.5t78 -24.5q25 0 51 6v-158q-46 -11 -99 -11q-86 0 -141 39.5t-102 137.5l-169 350h-10
l-261 -518h-211z" />
    <glyph glyph-name="psigreek" unicode="&#x3c8;" horiz-adv-x="1433" 
d="M603 -363v346q-234 7 -353 115.5t-119 330.5v625h196v-625q0 -272 276 -272v1157h193v-1157q163 3 241 96t78 294q0 146 -21.5 261t-72.5 246h203q39 -84 64.5 -224.5t25.5 -279.5q0 -280 -130 -423.5t-388 -143.5v-346h-193z" />
    <glyph glyph-name="omegagreek" unicode="&#x3c9;" horiz-adv-x="1531" 
d="M862 385q0 -111 47.5 -171.5t123.5 -60.5q91 0 135 71t44 248q0 155 -45 307.5t-129 274.5h208q74 -97 119.5 -257t45.5 -329q0 -256 -93.5 -371t-271.5 -115q-97 0 -170.5 56t-107.5 163h-5q-34 -108 -107 -163.5t-172 -55.5q-179 0 -272 117t-93 371q0 168 45.5 328
t120.5 256h208q-84 -121 -129 -273.5t-45 -307.5q0 -178 44 -249t134 -71q76 0 124 60.5t48 171.5v367h193v-367z" />
    <glyph glyph-name="iotadieresisgreek" unicode="&#x3ca;" horiz-adv-x="618" 
d="M148 1054h201v-748q0 -89 35 -120.5t129 -31.5q28 0 52 3v-157q-45 -8 -102 -8q-179 0 -247 67.5t-68 236.5v758zM81 1198q-41 0 -69.5 29t-28.5 71q0 45 28 74t70 29q43 0 71 -29t28 -74q0 -42 -28.5 -71t-70.5 -29zM437 1198q-41 0 -69 29t-28 71q0 45 27.5 74t69.5 29
q44 0 72.5 -29t28.5 -74q0 -42 -29 -71t-72 -29z" />
    <glyph glyph-name="upsilondieresisgreek" unicode="&#x3cb;" horiz-adv-x="1117" 
d="M365 1198q-41 0 -69.5 29t-28.5 71q0 45 28 74t70 29q43 0 71 -29t28 -74q0 -42 -28.5 -71t-70.5 -29zM721 1198q-41 0 -69 29t-28 71q0 45 27.5 74t69.5 29q44 0 72.5 -29t28.5 -74q0 -42 -29 -71t-72 -29zM541 -17q-196 0 -303 104.5t-107 309.5v657h196v-632
q0 -137 54 -201t167 -64q120 0 185.5 94.5t65.5 282.5q0 153 -21.5 272t-71.5 248h202q41 -87 65.5 -227t24.5 -286q0 -267 -117 -412.5t-340 -145.5z" />
    <glyph glyph-name="omicrontonosgreek" unicode="&#x3cc;" horiz-adv-x="1120" 
d="M561 -18q-217 0 -337.5 138.5t-120.5 364.5v88q0 220 122 359.5t336 139.5q213 0 334.5 -139t121.5 -359v-89q0 -226 -120.5 -364.5t-335.5 -138.5zM561 150q119 0 186 90t67 248v81q0 157 -67 247t-186 90q-120 0 -187.5 -90t-67.5 -247v-81q0 -158 67.5 -248t187.5 -90
zM494 1188l73 307h196l-122 -307h-147z" />
    <glyph glyph-name="upsilontonosgreek" unicode="&#x3cd;" horiz-adv-x="1117" 
d="M447 1188l73 307h196l-122 -307h-147zM541 -17q-196 0 -303 104.5t-107 309.5v657h196v-632q0 -137 54 -201t167 -64q120 0 185.5 94.5t65.5 282.5q0 153 -21.5 272t-71.5 248h202q41 -87 65.5 -227t24.5 -286q0 -267 -117 -412.5t-340 -145.5z" />
    <glyph glyph-name="omegatonosgreek" unicode="&#x3ce;" horiz-adv-x="1531" 
d="M862 385q0 -111 47.5 -171.5t123.5 -60.5q91 0 135 71t44 248q0 155 -45 307.5t-129 274.5h208q74 -97 119.5 -257t45.5 -329q0 -256 -93.5 -371t-271.5 -115q-97 0 -170.5 56t-107.5 163h-5q-34 -108 -107 -163.5t-172 -55.5q-179 0 -272 117t-93 371q0 168 45.5 328
t120.5 256h208q-84 -121 -129 -273.5t-45 -307.5q0 -178 44 -249t134 -71q76 0 124 60.5t48 171.5v367h193v-367zM705 1188l73 307h196l-122 -307h-147z" />
    <glyph glyph-name="Iocyrillic" unicode="&#x401;" horiz-adv-x="1127" 
d="M420 1489q-39 0 -65.5 27.5t-26.5 67.5q0 42 26.5 69.5t65.5 27.5q41 0 68 -27.5t27 -69.5q0 -40 -27.5 -67.5t-67.5 -27.5zM740 1489q-39 0 -66 27.5t-27 67.5q0 42 27 69.5t66 27.5q41 0 67.5 -27.5t26.5 -69.5q0 -41 -27 -68t-67 -27zM1006 177v-177h-838v1365h838
v-177h-633v-408h597v-170h-597v-433h633z" />
    <glyph glyph-name="Djecyrillic" unicode="&#x402;" horiz-adv-x="1505" 
d="M646 732q51 42 140 69t172 27q213 0 329.5 -112t116.5 -315q0 -186 -116.5 -299.5t-307.5 -113.5q-81 0 -117 12v170q30 -8 98 -8q105 0 171 66t66 170q0 126 -67 192t-195 66q-82 0 -165.5 -30t-130.5 -77v-549h-206v1186h-406v179h1017v-179h-405v-454h6z" />
    <glyph glyph-name="Gjecyrillic" unicode="&#x403;" horiz-adv-x="1068" 
d="M657 1510h-149l191 279h193zM374 0h-206v1365h825v-178h-619v-1187z" />
    <glyph glyph-name="Ecyrillic" unicode="&#x404;" horiz-adv-x="1287" 
d="M1182 925h-201q-2 114 -86.5 201t-229.5 87q-157 0 -250.5 -112t-94.5 -322h544v-167h-544v-27q0 -216 93 -324.5t256 -108.5q146 0 228 78t84 192h201v-4q0 -80 -32.5 -157.5t-94 -143t-163.5 -105.5t-229 -40q-258 0 -404 159t-146 453v190q0 291 148.5 455t402.5 164
q122 0 222.5 -40t164 -106t97.5 -149t34 -172v-1z" />
    <glyph glyph-name="Dzecyrillic" unicode="&#x405;" horiz-adv-x="1192" 
d="M70 375h203q10 -99 93 -164t226 -65q136 0 215 60.5t79 163.5q0 80 -52.5 128t-166.5 76l-230 58q-68 17 -124 45t-103.5 70.5t-74 106t-26.5 142.5q0 125 68.5 217.5t177 137.5t239.5 45q129 0 236 -43.5t176 -134.5t71 -216h-199q-9 97 -82.5 159t-204.5 62
q-124 0 -199.5 -56.5t-75.5 -155.5q0 -144 191 -190l228 -58q65 -16 117 -37t98.5 -52.5t77 -71t48.5 -94t18 -121.5q0 -196 -144.5 -305.5t-375.5 -109.5q-107 0 -194 24.5t-143 64.5t-94 93.5t-54.5 108.5t-18.5 112z" />
    <glyph glyph-name="Icyrillic" unicode="&#x406;" horiz-adv-x="541" 
d="M374 0h-206v1365h206v-1365z" />
    <glyph glyph-name="Yicyrillic" unicode="&#x407;" horiz-adv-x="525" 
d="M366 0h-206v1365h206v-1365zM101 1489q-39 0 -65.5 27.5t-26.5 67.5q0 42 26.5 69.5t65.5 27.5q41 0 68 -27.5t27 -69.5q0 -40 -27 -67.5t-68 -27.5zM421 1489q-39 0 -66 27.5t-27 67.5q0 42 27 69.5t66 27.5q41 0 67.5 -27.5t26.5 -69.5q0 -41 -27 -68t-67 -27z" />
    <glyph glyph-name="Jecyrillic" unicode="&#x408;" horiz-adv-x="1017" 
d="M35 338h200q3 -82 55.5 -131.5t146.5 -49.5q108 0 160 65t52 197v946h207v-948q0 -215 -109 -330t-309 -115q-185 0 -294 103t-109 263z" />
    <glyph glyph-name="Ljecyrillic" unicode="&#x409;" horiz-adv-x="1958" 
d="M480 880q-4 -113 -8 -197t-11.5 -169.5t-17.5 -145.5t-24.5 -118.5t-34 -97.5t-45 -72.5t-58.5 -52t-73.5 -29t-90.5 -10.5q-19 0 -36.5 2.5t-27 5.5t-10.5 4v184q20 -8 51 -8q110 0 148 160.5t44 567.5l7 461h844v-485h306q202 0 323.5 -121t121.5 -316
q0 -196 -121 -319.5t-323 -123.5h-513v1187h-442zM1419 707h-283v-532h283q122 0 190 69.5t68 195.5q0 127 -68 197t-190 70z" />
    <glyph glyph-name="Njecyrillic" unicode="&#x40a;" horiz-adv-x="2051" 
d="M1024 834v531h205v-531h306q204 0 324.5 -112t120.5 -302q0 -192 -120 -306t-324 -114h-512v656h-650v-656h-206v1365h206v-531h650zM1513 660h-285v-485h285q124 0 190 61t66 182q0 122 -66 182t-190 60z" />
    <glyph glyph-name="Tshecyrillic" unicode="&#x40b;" horiz-adv-x="1555" 
d="M646 732q50 41 138.5 68.5t171.5 27.5q211 0 325.5 -116.5t114.5 -330.5v-381h-206v376q0 138 -65 208.5t-192 70.5q-80 0 -163 -30t-130 -76v-549h-206v1186h-406v179h1017v-179h-405v-454h6z" />
    <glyph glyph-name="Kjecyrillic" unicode="&#x40c;" horiz-adv-x="1225" 
d="M719 1510h-149l191 279h193zM946 0l-565 618h-7v-618h-206v1365h206v-576h7l560 576h248l-633 -651l648 -714h-258z" />
    <glyph glyph-name="Ushortcyrillic" unicode="&#x40e;" horiz-adv-x="1125" 
d="M764 1766h134q0 -121 -84.5 -199.5t-241.5 -78.5q-156 0 -241 78.5t-85 199.5h134q0 -76 49 -121t143 -45t143 45t49 121zM906 1365h214l-441 -1012q-85 -196 -180 -280.5t-238 -84.5q-63 0 -102 12v183q40 -10 90 -10q71 0 123.5 39.5t101.5 133.5l-469 1019h223
l345 -789h7z" />
    <glyph glyph-name="Dzhecyrillic" unicode="&#x40f;" horiz-adv-x="1387" 
d="M1014 1365h206v-1365h-433v-286h-186v286h-433v1365h206v-1187h640v1187z" />
    <glyph glyph-name="Acyrillic" unicode="&#x410;" horiz-adv-x="1240" 
d="M244 0h-212l476 1365h224l476 -1365h-218l-128 391h-490zM621 1141h-7l-193 -590h392z" />
    <glyph glyph-name="Becyrillic" unicode="&#x411;" horiz-adv-x="1200" 
d="M373 1187v-356h298q202 0 323.5 -114t121.5 -298q0 -186 -121 -302.5t-322 -116.5h-505v1365h837v-178h-632zM373 175h278q120 0 187 63.5t67 178.5t-67 179t-187 64h-278v-485z" />
    <glyph glyph-name="Vecyrillic" unicode="&#x412;" horiz-adv-x="1254" 
d="M168 0v1365h531q177 0 282 -90.5t105 -245.5q0 -116 -59 -193t-165 -108v-9q136 -17 217.5 -104.5t81.5 -231.5q0 -179 -129 -281t-347 -102h-517zM373 1196v-412h199q159 0 233.5 51.5t74.5 158.5q0 95 -58 148.5t-163 53.5h-286zM373 621v-452h225q187 0 270 52.5
t83 166.5q0 111 -71.5 172t-201.5 61h-305z" />
    <glyph glyph-name="Gecyrillic" unicode="&#x413;" horiz-adv-x="1068" 
d="M374 0h-206v1365h825v-178h-619v-1187z" />
    <glyph glyph-name="Decyrillic" unicode="&#x414;" horiz-adv-x="1414" 
d="M985 178v1009h-493l-11 -306q-6 -165 -10.5 -247t-15.5 -184.5t-31 -162.5t-52 -102v-7h613zM211 -286h-185v464h113q31 22 53 50t37.5 75.5t25 94.5t16 133t9.5 163t6 210l12 461h891v-1187h177v-464h-186v286h-969v-286z" />
    <glyph glyph-name="Iecyrillic" unicode="&#x415;" horiz-adv-x="1127" 
d="M1006 177v-177h-838v1365h838v-177h-633v-408h597v-170h-597v-433h633z" />
    <glyph glyph-name="Zhecyrillic" unicode="&#x416;" horiz-adv-x="1824" 
d="M1199 715l603 -715h-253l-528 618h-8v-618h-202v618h-8l-527 -618h-251l601 709l-595 656h250l522 -576h8v576h202v-576h8l523 576h244z" />
    <glyph glyph-name="Zecyrillic" unicode="&#x417;" horiz-adv-x="1187" 
d="M413 619v169h173q117 0 187.5 59.5t70.5 161.5q0 96 -71 155.5t-181 59.5q-119 0 -193.5 -60t-80.5 -149h-195q2 75 33.5 142.5t88.5 120.5t147 84t201 31q211 0 333.5 -103.5t122.5 -261.5q0 -124 -73 -205.5t-192 -101.5v-11q136 -14 223 -105t87 -222
q0 -187 -138 -299.5t-365 -112.5q-220 0 -354 108t-142 276h192q8 -92 91.5 -152.5t214.5 -60.5q137 0 215.5 64.5t78.5 177.5q0 115 -79.5 175t-223.5 60h-171z" />
    <glyph glyph-name="Iicyrillic" unicode="&#x418;" horiz-adv-x="1397" 
d="M1027 0v1035h-7l-662 -1035h-190v1365h202v-1034h8l661 1034h191v-1365h-203z" />
    <glyph glyph-name="Iishortcyrillic" unicode="&#x419;" horiz-adv-x="1397" 
d="M393 1781h134q0 -76 49 -121t143 -45t143 45t49 121h134q0 -121 -84.5 -199.5t-241.5 -78.5q-156 0 -241 78.5t-85 199.5zM1027 0v1035h-7l-662 -1035h-190v1365h202v-1034h8l661 1034h191v-1365h-203z" />
    <glyph glyph-name="Kacyrillic" unicode="&#x41a;" horiz-adv-x="1225" 
d="M946 0l-565 618h-7v-618h-206v1365h206v-576h7l560 576h248l-633 -651l648 -714h-258z" />
    <glyph glyph-name="Elcyrillic" unicode="&#x41b;" horiz-adv-x="1324" 
d="M286 904l9 461h861v-1365h-206v1187h-461l-9 -307q-4 -128 -8.5 -220t-13.5 -184.5t-21.5 -155t-32 -122t-45 -95.5t-61 -63.5t-80 -39.5t-101.5 -12q-44 0 -74 12v184q24 -8 51 -8q29 0 52.5 10t41.5 33t32 52.5t24 77.5t17 100t12 127t8 150t5 178z" />
    <glyph glyph-name="Emcyrillic" unicode="&#x41c;" horiz-adv-x="1611" 
d="M353 0h-185v1365h204l432 -998h5l431 998h204v-1365h-186v963h-8l-366 -830h-157l-367 830h-7v-963z" />
    <glyph glyph-name="Encyrillic" unicode="&#x41d;" horiz-adv-x="1397" 
d="M1230 0h-206v615h-650v-615h-206v1365h206v-572h650v572h206v-1365z" />
    <glyph glyph-name="Ocyrillic" unicode="&#x41e;" horiz-adv-x="1346" 
d="M321 774v-194q0 -211 97 -320t255 -109t255 109t97 320v194q0 211 -97.5 325.5t-254.5 114.5q-156 0 -254 -114.5t-98 -325.5zM113 580v192q0 289 152 455t410 166t408 -165.5t150 -455.5v-192q0 -287 -151 -447.5t-411 -160.5q-259 0 -408.5 160.5t-149.5 447.5z" />
    <glyph glyph-name="Pecyrillic" unicode="&#x41f;" horiz-adv-x="1377" 
d="M1210 0h-206v1187h-630v-1187h-206v1365h1042v-1365z" />
    <glyph glyph-name="Ercyrillic" unicode="&#x420;" horiz-adv-x="1193" 
d="M168 1365h513q201 0 322 -121t121 -314q0 -194 -121 -313.5t-323 -119.5h-307v-497h-205v1365zM373 1190v-520h192q87 0 147.5 11t108 39.5t70 80t22.5 129.5q0 124 -67.5 192t-190.5 68h-282z" />
    <glyph glyph-name="Escyrillic" unicode="&#x421;" horiz-adv-x="1278" 
d="M320 765v-172q0 -212 89 -326.5t253 -114.5q137 0 222.5 76.5t88.5 200.5h201v-11q0 -194 -145.5 -320t-367.5 -126q-259 0 -403.5 164.5t-144.5 456.5v172q0 295 144.5 461.5t403.5 166.5q223 0 368 -131.5t145 -335.5v-10h-201q-3 132 -88.5 214.5t-222.5 82.5
q-164 0 -253 -116.5t-89 -331.5z" />
    <glyph glyph-name="Tecyrillic" unicode="&#x422;" horiz-adv-x="1074" 
d="M639 0h-204v1186h-407v179h1018v-179h-407v-1186z" />
    <glyph glyph-name="Ucyrillic" unicode="&#x423;" horiz-adv-x="1125" 
d="M906 1365h214l-441 -1012q-85 -196 -180 -280.5t-238 -84.5q-63 0 -102 12v183q40 -10 90 -10q71 0 123.5 39.5t101.5 133.5l-469 1019h223l345 -789h7z" />
    <glyph glyph-name="Efcyrillic" unicode="&#x424;" horiz-adv-x="1610" 
d="M902 -10h-202v159q-286 8 -441 144.5t-155 382.5v21q0 248 155.5 388t440.5 150v140h202v-141q289 -5 446 -142.5t157 -385.5v-20q0 -250 -157.5 -390.5t-445.5 -148.5v-157zM307 676q0 -168 101 -258t293 -95v737q-190 -7 -292 -100t-102 -263v-21zM1302 706
q0 170 -103.5 260t-298.5 94v-739q194 6 298 100t104 265v20z" />
    <glyph glyph-name="Xacyrillic" unicode="&#x425;" horiz-adv-x="1164" 
d="M1153 1365l-447 -688l438 -677h-243l-324 521h-10l-327 -521h-229l439 688l-433 677h245l324 -525h11l321 525h235z" />
    <glyph glyph-name="Tsecyrillic" unicode="&#x426;" horiz-adv-x="1442" 
d="M1218 178h176v-464h-185v286h-197h-844v1365h206v-1187h638v1187h206v-1187z" />
    <glyph glyph-name="Checyrillic" unicode="&#x427;" horiz-adv-x="1316" 
d="M1149 0h-206v624h-7q-1 0 -9.5 -5.5l-19 -12t-28.5 -15.5t-37.5 -17.5t-46.5 -17t-55 -14.5t-62.5 -10t-70.5 -4q-224 0 -346 116.5t-122 333.5v387h206v-381q0 -139 72.5 -210.5t212.5 -71.5q61 0 118.5 14t97.5 34.5t61.5 34t33.5 22.5l2 2v556h206v-1365z" />
    <glyph glyph-name="Shacyrillic" unicode="&#x428;" horiz-adv-x="1898" 
d="M168 0v1365h206v-1187h472v1187h206v-1187h473v1187h206v-1365h-1563z" />
    <glyph glyph-name="Shchacyrillic" unicode="&#x429;" horiz-adv-x="1955" 
d="M1907 -286h-185v286h-1554v1365h206v-1187h472v1187h206v-1187h473v1187h206v-1187h176v-464z" />
    <glyph glyph-name="Hardsigncyrillic" unicode="&#x42a;" horiz-adv-x="1376" 
d="M862 0h-513v1186h-316v179h522v-485h306q202 0 323 -121t121 -316q0 -196 -121 -319.5t-322 -123.5zM837 175q122 0 189.5 69.5t67.5 195.5q0 127 -67.5 197t-189.5 70h-284v-532h284z" />
    <glyph glyph-name="Yericyrillic" unicode="&#x42b;" horiz-adv-x="1644" 
d="M1123 443q0 -196 -121 -319.5t-322 -123.5h-512v1365h205v-485h306q202 0 323 -121t121 -316zM654 707h-282v-532h282q122 0 190 69.5t68 195.5q0 127 -68 197t-190 70zM1476 0h-206v1365h206v-1365z" />
    <glyph glyph-name="Softsigncyrillic" unicode="&#x42c;" horiz-adv-x="1195" 
d="M681 0h-513v1365h205v-485h307q202 0 323 -121t121 -316q0 -196 -121 -319.5t-322 -123.5zM655 175q122 0 190 69.5t68 195.5q0 127 -68 197t-190 70h-283v-532h283z" />
    <glyph glyph-name="Ereversedcyrillic" unicode="&#x42d;" horiz-adv-x="1287" 
d="M624 -28q-102 0 -189 26.5t-147 70.5t-102.5 102t-62 120.5t-19.5 126.5v4h202q2 -114 83.5 -192t227.5 -78q161 0 253.5 105t94.5 314v41h-542v167h542v8q-2 207 -95 316.5t-249 109.5q-74 0 -135 -25.5t-99 -67t-59 -92t-22 -103.5h-202v1q0 89 34.5 172t97.5 149
t163.5 106t222.5 40q255 0 403 -164t148 -455v-190q0 -294 -146 -453t-403 -159z" />
    <glyph glyph-name="IUcyrillic" unicode="&#x42e;" horiz-adv-x="1798" 
d="M1477 580v194q0 211 -94.5 325.5t-246.5 114.5t-246.5 -114.5t-94.5 -325.5v-194q0 -211 94 -320t247 -109t247 109t94 320zM374 793h215q6 280 153.5 440t394.5 160q254 0 401 -165.5t147 -455.5v-192q0 -287 -148 -447.5t-403 -160.5q-253 0 -399 160.5t-146 447.5v35
h-215v-615h-206v1365h206v-572z" />
    <glyph glyph-name="IAcyrillic" unicode="&#x42f;" horiz-adv-x="1248" 
d="M595 697h281v494h-281q-129 0 -197.5 -63t-68.5 -183q0 -121 68.5 -184.5t197.5 -63.5zM875 525h-252l-315 -525h-230l335 554q-137 32 -215.5 136t-78.5 252q0 192 123 307.5t334 115.5h505v-1365h-206v525z" />
    <glyph glyph-name="acyrillic" unicode="&#x430;" horiz-adv-x="1087" 
d="M741 130q-88 -147 -299 -147q-154 0 -249 87.5t-95 232.5q0 142 96 223t275 82h271v103q0 96 -53.5 147t-152.5 51q-93 0 -146.5 -44t-60.5 -119h-190q8 145 109 235t294 90q179 0 290 -91t111 -258v-722h-193v130h-7zM501 142q103 0 171 58t68 149v119h-243
q-98 0 -146.5 -42t-48.5 -113q0 -82 58 -126.5t141 -44.5z" />
    <glyph glyph-name="becyrillic" unicode="&#x431;" horiz-adv-x="1155" 
d="M580 871q-121 0 -191.5 -87.5t-70.5 -228.5v-83q0 -148 68.5 -235.5t193.5 -87.5q123 0 191 87.5t68 235.5v83q0 142 -69 229t-190 87zM629 1035q181 0 297 -128t116 -333v-111q0 -221 -125.5 -351t-337.5 -130q-217 0 -340.5 136t-123.5 377v183q0 127 15 226.5
t50.5 184.5t93.5 143t146 94.5t205 46.5l74 6q132 10 145 58h181q-15 -109 -84 -163.5t-220 -67.5l-81 -7q-93 -8 -155 -32t-100.5 -69.5t-58.5 -106t-29 -150.5h7q74 194 325 194z" />
    <glyph glyph-name="vecyrillic" unicode="&#x432;" horiz-adv-x="1105" 
d="M156 0v1054h457q146 0 235.5 -72.5t89.5 -195.5q0 -90 -46.5 -148t-126.5 -78v-6q107 -14 169 -82t62 -175q0 -142 -108.5 -219.5t-285.5 -77.5h-446zM354 905v-290h183q103 0 153.5 36.5t50.5 116.5q0 68 -47 102.5t-123 34.5h-217zM354 470v-321h211q110 0 170.5 36
t60.5 123q0 79 -56.5 120.5t-154.5 41.5h-231z" />
    <glyph glyph-name="gecyrillic" unicode="&#x433;" horiz-adv-x="886" 
d="M828 895h-471v-895h-201v1054h672v-159z" />
    <glyph glyph-name="decyrillic" unicode="&#x434;" horiz-adv-x="1256" 
d="M827 160v735h-381l-11 -233q-12 -239 -28 -343t-54 -153v-6h474zM215 -285h-178v445h89q66 34 88 132.5t34 369.5l16 392h764v-894h165v-445h-178v285h-800v-285z" />
    <glyph glyph-name="iecyrillic" unicode="&#x435;" horiz-adv-x="1117" 
d="M567 -18q-210 0 -332 133.5t-122 363.5v111q0 219 119.5 350.5t326.5 131.5t325.5 -134.5t118.5 -357.5v-100h-689v-22q0 -141 69.5 -227t187.5 -86q86 0 143.5 40t80.5 112h195q-28 -138 -136.5 -226.5t-286.5 -88.5zM314 628h490v3q0 120 -68 200t-176 80
q-110 0 -178 -80t-68 -200v-3z" />
    <glyph glyph-name="zhecyrillic" unicode="&#x436;" horiz-adv-x="1491" 
d="M643 622v432h199v-432h7l375 432h236l-443 -499l470 -555h-244l-394 467h-7v-467h-199v467h-6l-395 -467h-238l465 550l-447 504h240l375 -432h6z" />
    <glyph glyph-name="zecyrillic" unicode="&#x437;" horiz-adv-x="1038" 
d="M511 147q101 0 160 42.5t59 116.5q0 76 -59.5 116t-163.5 40h-122v149h122q89 0 140 39.5t51 106.5q0 71 -53.5 110.5t-141.5 39.5q-97 0 -149 -45.5t-59 -114.5h-194q8 143 116 234t285 91q175 0 284 -83t109 -217q0 -84 -51.5 -144.5t-135.5 -75.5v-9
q96 -14 158.5 -79.5t62.5 -165.5q0 -141 -114.5 -228.5t-301.5 -87.5q-101 0 -182 26.5t-131 71t-77.5 100t-29.5 116.5h194q30 -149 224 -149z" />
    <glyph glyph-name="iicyrillic" unicode="&#x438;" horiz-adv-x="1196" 
d="M845 0v750h-7l-497 -750h-185v1054h195v-750h6l497 750h186v-1054h-195z" />
    <glyph glyph-name="iishortcyrillic" unicode="&#x439;" horiz-adv-x="1196" 
d="M306 1477h134q0 -73 41 -120t122 -47t122 47t41 120h134q0 -53 -18 -102t-53 -90.5t-93.5 -66.5t-132.5 -25t-133 25t-94 66.5t-52.5 90.5t-17.5 102zM845 0v750h-7l-497 -750h-185v1054h195v-750h6l497 750h186v-1054h-195z" />
    <glyph glyph-name="kacyrillic" unicode="&#x43a;" horiz-adv-x="1045" 
d="M544 554l497 -554h-255l-421 466h-8v-466h-201v1054h201v-431h7l402 431h249z" />
    <glyph glyph-name="elcyrillic" unicode="&#x43b;" horiz-adv-x="1146" 
d="M246 664l8 390h736v-1054h-202v895h-351l-6 -238q-2 -75 -4 -125.5t-6 -111t-9.5 -100.5t-14 -86t-20.5 -75t-28 -60t-37 -49t-47 -33t-59 -21.5t-73 -6.5q-19 0 -36.5 3t-24.5 6l-8 3v180q20 -7 45 -7q31 0 53.5 14t36.5 44.5t23 68t13.5 97t6.5 117t4 141.5v8z" />
    <glyph glyph-name="emcyrillic" unicode="&#x43c;" horiz-adv-x="1451" 
d="M347 704v-704h-191v1054h222l344 -734h7l345 734h221v-1054h-194v704h-7l-297 -608h-145l-298 608h-7z" />
    <glyph glyph-name="encyrillic" unicode="&#x43d;" horiz-adv-x="1179" 
d="M822 0v465h-465v-465h-201v1054h201v-430h465v430h201v-1054h-201z" />
    <glyph glyph-name="ocyrillic" unicode="&#x43e;" horiz-adv-x="1152" 
d="M577 1072q218 0 339.5 -138.5t121.5 -359.5v-89q0 -226 -121 -364.5t-340 -138.5q-220 0 -342 138.5t-122 364.5v88q0 221 122.5 360t341.5 139zM576 906q-125 0 -192.5 -91t-67.5 -246v-81q0 -154 67.5 -246t192.5 -92q126 0 192.5 91.5t66.5 246.5v81q0 155 -67 246
t-192 91z" />
    <glyph glyph-name="pecyrillic" unicode="&#x43f;" horiz-adv-x="1169" 
d="M812 0v895h-455v-895h-201v1054h857v-1054h-201z" />
    <glyph glyph-name="ercyrillic" unicode="&#x440;" horiz-adv-x="1189" 
d="M662 -16q-99 0 -176 43t-121 117h-7v-506h-202v1416h196v-153h7q46 78 126 123.5t183 45.5q181 0 294.5 -132t113.5 -363v-95q0 -230 -114 -363t-300 -133zM624 154q114 0 181 88.5t67 250.5v75q0 158 -66.5 246t-185.5 88q-122 0 -193 -90.5t-71 -242.5v-76
q0 -156 72 -247.5t196 -91.5z" />
    <glyph glyph-name="escyrillic" unicode="&#x441;" horiz-adv-x="1073" 
d="M113 483v98q0 219 120.5 355t327.5 136q181 0 293.5 -100t119.5 -239h-194q-16 70 -72.5 119t-134.5 49q-121 0 -189 -86.5t-68 -238.5v-94q0 -150 70 -239t188 -89q90 0 144.5 43t68.5 110h193q-23 -152 -131 -238.5t-288 -86.5q-139 0 -241.5 65t-154.5 177.5
t-52 258.5z" />
    <glyph glyph-name="tecyrillic" unicode="&#x442;" horiz-adv-x="970" 
d="M921 895h-335v-895h-202v895h-336v159h873v-159z" />
    <glyph glyph-name="ucyrillic" unicode="&#x443;" horiz-adv-x="1006" 
d="M992 1054q-365 -1044 -366 -1048l-27 -73q-21 -57 -41 -97.5t-52 -84.5t-70 -71t-93.5 -44.5t-124.5 -17.5q-60 0 -119 9v157q27 -5 80 -5q91 0 136 39.5t66 120.5l14 50l-381 1065h224l265 -848h7l267 848h215z" />
    <glyph glyph-name="efcyrillic" unicode="&#x444;" horiz-adv-x="1464" 
d="M831 -362h-198v345q-235 4 -377.5 135.5t-142.5 364.5v91q0 222 145 357.5t375 139.5v266h198v-266q235 -4 377 -135t142 -365v-90q0 -222 -144.5 -358t-374.5 -140v-345zM1151 561q0 154 -84 247.5t-238 97.5v-758q149 4 235.5 99.5t86.5 245.5v68zM313 493
q0 -154 84 -247.5t238 -97.5v758q-149 -4 -235.5 -99t-86.5 -246v-68z" />
    <glyph glyph-name="hacyrillic" unicode="&#x445;" horiz-adv-x="1034" 
d="M764 0l-252 385h-3l-249 -385h-224l353 528l-348 526h239l242 -386h2l242 386h228l-352 -526l356 -528h-234z" />
    <glyph glyph-name="tsecyrillic" unicode="&#x446;" horiz-adv-x="1242" 
d="M1178 -285h-178v285h-844v1054h201v-894h455v894h201v-894h165v-445z" />
    <glyph glyph-name="checyrillic" unicode="&#x447;" horiz-adv-x="1138" 
d="M983 0h-203v458h-10q-48 -48 -121.5 -73.5t-157.5 -25.5q-170 0 -262 100.5t-92 268.5v326h201v-314q0 -94 52 -149t144 -55q81 0 146.5 32.5t99.5 87.5v398h203v-1054z" />
    <glyph glyph-name="shacyrillic" unicode="&#x448;" horiz-adv-x="1632" 
d="M156 0v1054h200v-894h360v894h200v-894h360v894h200v-1054h-1320z" />
    <glyph glyph-name="shchacyrillic" unicode="&#x449;" horiz-adv-x="1706" 
d="M1643 -285h-178v285h-1309v1054h200v-894h360v894h200v-894h360v894h200v-894h167v-445z" />
    <glyph glyph-name="hardsigncyrillic" unicode="&#x44a;" horiz-adv-x="1156" 
d="M671 0h-379v895h-244v159h446v-350h177q185 0 294 -95t109 -257q0 -161 -109 -256.5t-294 -95.5zM655 546h-162v-387h163q98 0 157 53.5t59 140.5q0 88 -59 140.5t-158 52.5z" />
    <glyph glyph-name="yericyrillic" unicode="&#x44b;" horiz-adv-x="1439" 
d="M1082 0v1054h201v-1054h-201zM518 546h-162v-387h163q99 0 158 53.5t59 140.5q0 88 -59 140.5t-159 52.5zM156 0v1054h201v-350h177q185 0 294 -95t109 -257q0 -161 -109 -256.5t-294 -95.5h-378z" />
    <glyph glyph-name="softsigncyrillic" unicode="&#x44c;" horiz-adv-x="1019" 
d="M518 546h-162v-387h163q99 0 158 53.5t59 140.5q0 88 -59 140.5t-159 52.5zM156 0v1054h201v-350h178q185 0 293.5 -95t108.5 -257q0 -161 -109 -256.5t-293 -95.5h-379z" />
    <glyph glyph-name="ereversedcyrillic" unicode="&#x44d;" horiz-adv-x="1075" 
d="M513 -18q-194 0 -302.5 90t-117.5 225h194q34 -143 221 -143q114 0 181 74.5t69 203.5v30h-410v145h410v10q-2 132 -66.5 207.5t-183.5 75.5q-55 0 -96.5 -15t-65 -40t-36 -49t-17.5 -50h-193q3 63 31 120.5t78 104t128.5 74t174.5 27.5q207 0 328 -125.5t121 -335.5
v-163q0 -217 -121 -341.5t-327 -124.5z" />
    <glyph glyph-name="iucyrillic" unicode="&#x44e;" horiz-adv-x="1555" 
d="M990 -18q-198 0 -321.5 119.5t-128.5 333.5v30h-183v-465h-201v1054h201v-430h184q7 204 131.5 326t317.5 122q201 0 326.5 -126.5t125.5 -343.5v-146q0 -222 -125 -348t-327 -126zM991 905q-116 0 -183.5 -88t-67.5 -229v-123q0 -142 66 -229t185 -87q118 0 183 86.5
t65 229.5v123q0 141 -66.5 229t-181.5 88z" />
    <glyph glyph-name="iacyrillic" unicode="&#x44f;" horiz-adv-x="1092" 
d="M554 524h180v372h-181q-98 0 -157.5 -51.5t-59.5 -135.5q0 -85 59.5 -135t158.5 -50zM734 0v371h-154l-259 -371h-232l284 404q-113 33 -175 113.5t-62 196.5q0 155 109.5 247.5t293.5 92.5h397v-1054h-202z" />
    <glyph glyph-name="iocyrillic" unicode="&#x451;" horiz-adv-x="1117" 
d="M567 -18q-210 0 -332 133.5t-122 363.5v111q0 219 119.5 350.5t326.5 131.5t325.5 -134.5t118.5 -357.5v-100h-689v-22q0 -141 69.5 -227t187.5 -86q86 0 143.5 40t80.5 112h195q-28 -138 -136.5 -226.5t-286.5 -88.5zM314 628h490v3q0 120 -68 200t-176 80
q-110 0 -178 -80t-68 -200v-3zM389 1198q-41 0 -69.5 29t-28.5 71q0 45 28 74t70 29q43 0 71 -29t28 -74q0 -42 -28.5 -71t-70.5 -29zM745 1198q-41 0 -69 29t-28 71q0 45 27.5 74t69.5 29q44 0 72.5 -29t28.5 -74q0 -42 -29 -71t-72 -29z" />
    <glyph glyph-name="djecyrillic" unicode="&#x452;" horiz-adv-x="1188" 
d="M846 -24v677q0 120 -60 182t-164 62q-123 0 -192 -86.5t-69 -224.5v-586h-202v1180h-119v138h123v119h194v-119h263v-138h-259v-316h10q7 25 21 50.5t41 54.5t61 51t86.5 36.5t113.5 14.5q160 0 256.5 -91.5t96.5 -265.5v-740q0 -177 -79.5 -261.5t-225.5 -84.5
q-67 0 -103 9v154q25 -5 63 -5q77 0 110.5 45t33.5 145z" />
    <glyph glyph-name="gjecyrillic" unicode="&#x453;" horiz-adv-x="889" 
d="M554 1188h-149l191 278h193zM828 895h-471v-895h-201v1054h672v-159z" />
    <glyph glyph-name="ecyrillic" unicode="&#x454;" horiz-adv-x="1075" 
d="M981 297q-8 -135 -117 -225t-302 -90q-207 0 -328 124.5t-121 341.5v163q0 210 121 335.5t328 125.5q188 0 297.5 -96.5t115.5 -229.5h-194q-5 26 -17.5 50t-36 49t-65 40t-96.5 15q-119 0 -183 -75.5t-66 -207.5v-10h409v-145h-409v-30q2 -129 69 -203.5t181 -74.5
q186 0 220 143h194z" />
    <glyph glyph-name="dzecyrillic" unicode="&#x455;" horiz-adv-x="1025" 
d="M115 749q0 82 33 145.5t89.5 101.5t127 57t151.5 19q182 0 283 -88.5t101 -229.5h-184q-5 68 -53.5 115.5t-152.5 47.5q-90 0 -145 -39t-55 -109q0 -32 15 -56.5t39.5 -40t58 -27t67.5 -18.5l71 -14q9 -1 13 -2q65 -12 113 -25t96 -36t78.5 -53t49 -76t18.5 -105
q0 -157 -115.5 -245.5t-312.5 -88.5q-185 0 -295 82.5t-110 223.5h197q10 -69 68 -109.5t154 -40.5q106 0 161.5 43.5t55.5 109.5q0 27 -8 48t-28.5 37t-37.5 26t-54 20.5t-58 15t-68 13.5q-7 1 -10 2q-81 17 -138.5 37t-109.5 53.5t-78.5 85t-26.5 120.5z" />
    <glyph glyph-name="icyrillic" unicode="&#x456;" horiz-adv-x="545" 
d="M165 0v1054h202v-1054h-202zM143 1311q0 51 36 85t87 34t87 -34t36 -85t-36 -85t-87 -34t-87 34t-36 85z" />
    <glyph glyph-name="yicyrillic" unicode="&#x457;" horiz-adv-x="517" 
d="M158 0v1054h201v-1054h-201zM99 1193q-48 0 -82.5 34t-34.5 84t34 83.5t83 33.5q50 0 84 -33.5t34 -83.5t-34 -84t-84 -34zM425 1193q-49 0 -83.5 34t-34.5 84t34.5 83.5t83.5 33.5t83.5 -33.5t34.5 -83.5t-34.5 -84t-83.5 -34z" />
    <glyph glyph-name="jecyrillic" unicode="&#x458;" horiz-adv-x="534" 
d="M144 1311q0 51 36 85t87 34t87 -34t36 -85t-36 -85t-87 -34t-87 34t-36 85zM367 1054v-1080q0 -177 -79.5 -261.5t-225.5 -84.5q-67 0 -103 9v154q25 -5 63 -5q77 0 110.5 45t33.5 145v1078h201z" />
    <glyph glyph-name="ljecyrillic" unicode="&#x459;" horiz-adv-x="1643" 
d="M133 -11q-19 0 -36.5 3t-24.5 6l-8 3v183q20 -7 45 -7q23 0 41 8t31 25.5t22.5 39t16 55.5t10.5 68.5t6 83.5t3.5 94.5t2.5 108.5v4l9 390h730v-350h177q185 0 294 -95t109 -257q0 -161 -109 -256.5t-294 -95.5h-378v895h-343l-6 -238q-2 -75 -4 -125.5t-6 -111
t-9.5 -100.5t-14 -86t-20.5 -75t-28 -60t-37 -49t-47 -33t-59 -21.5t-73 -6.5zM1142 546h-162v-387h163q98 0 157.5 53.5t59.5 140.5q0 88 -59.5 140.5t-158.5 52.5z" />
    <glyph glyph-name="njecyrillic" unicode="&#x45a;" horiz-adv-x="1685" 
d="M1203 492h-180v-333h181q90 0 144 46t54 122t-54 120.5t-145 44.5zM822 0v488h-465v-488h-201v1054h201v-406h465v406h201v-406h194q178 0 282 -87t104 -236t-104 -237t-282 -88h-395z" />
    <glyph glyph-name="tshecyrillic" unicode="&#x45b;" horiz-adv-x="1187" 
d="M361 634v-634h-202v1167h-119v136h123v175h194v-175h263v-136h-259v-257h7q34 63 111.5 112t193.5 49q167 0 270.5 -103t103.5 -291v-677h-202v639q0 125 -65.5 189.5t-175.5 64.5q-119 0 -181 -73t-62 -186z" />
    <glyph glyph-name="kjecyrillic" unicode="&#x45c;" horiz-adv-x="1100" 
d="M842 1466l-235 -278h-149l191 278h193zM544 554l497 -554h-255l-421 466h-8v-466h-201v1054h201v-431h7l402 431h249z" />
    <glyph glyph-name="ushortcyrillic" unicode="&#x45e;" horiz-adv-x="1006" 
d="M210 1476h134q0 -73 41 -120t122 -47t122 47t41 120h134q0 -53 -18 -102t-53 -90.5t-93.5 -66.5t-132.5 -25t-133 25t-94 66.5t-52.5 90.5t-17.5 102zM992 1054q-365 -1044 -366 -1048l-27 -73q-21 -57 -41 -97.5t-52 -84.5t-70 -71t-93.5 -44.5t-124.5 -17.5
q-60 0 -119 9v157q27 -5 80 -5q91 0 136 39.5t66 120.5l14 50l-381 1065h224l265 -848h7l267 848h215z" />
    <glyph glyph-name="dzhecyrillic" unicode="&#x45f;" horiz-adv-x="1169" 
d="M812 1054h201v-1054h-339v-285h-178v285h-340v1054h201v-894h455v894z" />
    <glyph glyph-name="Geupturncyrillic" unicode="&#x490;" horiz-adv-x="1068" 
d="M808 1651h185v-286v-178h-619v-1187h-206v1365h640v286z" />
    <glyph glyph-name="geupturncyrillic" unicode="&#x491;" horiz-adv-x="886" 
d="M650 1054v285h178v-444h-471v-895h-201v1054h494z" />
    <glyph glyph-name="Aringbelow" unicode="&#x1e00;" horiz-adv-x="1220" 
d="M234 0h-212l476 1365h224l476 -1365h-218l-128 391h-490zM611 1141h-7l-193 -590h392zM610 -504q-83 0 -140.5 55t-57.5 138q0 82 57.5 137t140.5 55q84 0 141 -55t57 -137q0 -83 -57 -138t-141 -55zM511 -311q0 -43 28.5 -72t70.5 -29t70.5 29t28.5 72q0 42 -28.5 71
t-70.5 29t-70.5 -29t-28.5 -71z" />
    <glyph glyph-name="aringbelow" unicode="&#x1e01;" horiz-adv-x="1067" 
d="M731 130q-88 -147 -299 -147q-154 0 -249 87.5t-95 232.5q0 142 96 223t275 82h271v103q0 96 -53.5 147t-152.5 51q-93 0 -146.5 -44t-60.5 -119h-190q8 145 109 235t294 90q179 0 290 -91t111 -258v-722h-193v130h-7zM491 142q103 0 171 58t68 149v119h-243
q-98 0 -146.5 -42t-48.5 -113q0 -82 58 -126.5t141 -44.5zM535 -504q-83 0 -140.5 55t-57.5 138q0 82 57.5 137t140.5 55q84 0 141 -55t57 -137q0 -83 -57 -138t-141 -55zM436 -311q0 -43 28.5 -72t70.5 -29t70.5 29t28.5 72q0 42 -28.5 71t-70.5 29t-70.5 -29t-28.5 -71z
" />
    <glyph glyph-name="Bdotaccent" unicode="&#x1e02;" horiz-adv-x="1234" 
d="M464 1642q0 47 34 80.5t82 33.5t82 -33.5t34 -80.5q0 -48 -34 -81.5t-82 -33.5t-82 33.5t-34 81.5zM158 0v1365h531q177 0 282 -90.5t105 -245.5q0 -116 -59 -193t-165 -108v-9q136 -17 217.5 -104.5t81.5 -231.5q0 -179 -129 -281t-347 -102h-517zM363 1196v-412h199
q159 0 233.5 51.5t74.5 158.5q0 95 -58 148.5t-163 53.5h-286zM363 621v-452h225q187 0 270 52.5t83 166.5q0 111 -71.5 172t-201.5 61h-305z" />
    <glyph glyph-name="bdotaccent" unicode="&#x1e03;" horiz-adv-x="1182" 
d="M138 1714q0 47 34 80.5t82 33.5t82 -33.5t34 -80.5q0 -48 -34 -81.5t-82 -33.5t-82 33.5t-34 81.5zM664 -16q-216 0 -312 176h-7v-160h-196v1437h202v-530h7q40 72 123.5 117.5t183.5 45.5q187 0 300 -129t113 -363v-100q0 -229 -112.5 -361.5t-301.5 -132.5zM623 154
q113 0 181.5 87.5t68.5 245.5v80q0 158 -68.5 245.5t-181.5 87.5q-129 0 -201.5 -86t-72.5 -247v-78q0 -162 72 -248.5t202 -86.5z" />
    <glyph glyph-name="Bdotbelow" unicode="&#x1e04;" horiz-adv-x="1234" 
d="M482 -268q0 44 29 73.5t71 29.5t71 -29.5t29 -73.5q0 -43 -29 -72t-71 -29t-71 29.5t-29 71.5zM158 0v1365h531q177 0 282 -90.5t105 -245.5q0 -116 -59 -193t-165 -108v-9q136 -17 217.5 -104.5t81.5 -231.5q0 -179 -129 -281t-347 -102h-517zM363 1196v-412h199
q159 0 233.5 51.5t74.5 158.5q0 95 -58 148.5t-163 53.5h-286zM363 621v-452h225q187 0 270 52.5t83 166.5q0 111 -71.5 172t-201.5 61h-305z" />
    <glyph glyph-name="bdotbelow" unicode="&#x1e05;" horiz-adv-x="1182" 
d="M492 -268q0 44 29 73.5t71 29.5t71 -29.5t29 -73.5q0 -43 -29 -72t-71 -29t-71 29.5t-29 71.5zM664 -16q-216 0 -312 176h-7v-160h-196v1437h202v-530h7q40 72 123.5 117.5t183.5 45.5q187 0 300 -129t113 -363v-100q0 -229 -112.5 -361.5t-301.5 -132.5zM623 154
q113 0 181.5 87.5t68.5 245.5v80q0 158 -68.5 245.5t-181.5 87.5q-129 0 -201.5 -86t-72.5 -247v-78q0 -162 72 -248.5t202 -86.5z" />
    <glyph glyph-name="Blinebelow" unicode="&#x1e06;" horiz-adv-x="1234" 
d="M158 0v1365h531q177 0 282 -90.5t105 -245.5q0 -116 -59 -193t-165 -108v-9q136 -17 217.5 -104.5t81.5 -231.5q0 -179 -129 -281t-347 -102h-517zM363 1196v-412h199q159 0 233.5 51.5t74.5 158.5q0 95 -58 148.5t-163 53.5h-286zM363 621v-452h225q187 0 270 52.5
t83 166.5q0 111 -71.5 172t-201.5 61h-305zM859 -340h-558v128h558v-128z" />
    <glyph glyph-name="blinebelow" unicode="&#x1e07;" horiz-adv-x="1182" 
d="M869 -340h-558v128h558v-128zM664 -16q-216 0 -312 176h-7v-160h-196v1437h202v-530h7q40 72 123.5 117.5t183.5 45.5q187 0 300 -129t113 -363v-100q0 -229 -112.5 -361.5t-301.5 -132.5zM623 154q113 0 181.5 87.5t68.5 245.5v80q0 158 -68.5 245.5t-181.5 87.5
q-129 0 -201.5 -86t-72.5 -247v-78q0 -162 72 -248.5t202 -86.5z" />
    <glyph glyph-name="Ccedillaacute" unicode="&#x1e08;" horiz-adv-x="1258" 
d="M710 1510h-149l191 279h193zM624 -485q-83 0 -133 15v110q52 -13 115 -13q53 0 84.5 18.5t31.5 52.5q0 37 -31.5 52t-111.5 15h-53v86l47 125q-225 25 -347.5 187t-122.5 430v172q0 295 144.5 461.5t403.5 166.5q223 0 368 -131.5t145 -335.5v-10h-201
q-3 132 -88.5 214.5t-222.5 82.5q-164 0 -253 -116.5t-89 -331.5v-172q0 -212 89 -326.5t253 -114.5q137 0 222.5 76.5t88.5 200.5h201v-11q0 -182 -129.5 -305.5t-331.5 -137.5l-40 -107q99 0 153 -43t54 -120q0 -91 -65 -140.5t-181 -49.5z" />
    <glyph glyph-name="ccedillaacute" unicode="&#x1e09;" horiz-adv-x="1052" 
d="M617 1188h-149l191 278h193zM543 -468q-87 -3 -149 15v111q47 -14 115 -14q115 0 115 73q0 19 -7.5 31.5t-17.5 19.5t-29.5 10.5t-35.5 4t-44 0.5h-53v85l51 118q-181 21 -283 156.5t-102 340.5v98q0 219 120.5 355t327.5 136q181 0 293.5 -100t119.5 -239h-194
q-16 70 -72.5 119t-134.5 49q-121 0 -189 -86.5t-68 -238.5v-94q0 -150 70 -239t188 -89q90 0 144.5 43t68.5 110h193q-21 -136 -111 -221t-240 -100l-45 -101q94 0 146.5 -41.5t52.5 -121.5q0 -92 -63 -139t-167 -51z" />
    <glyph glyph-name="Ddotaccent" unicode="&#x1e0a;" horiz-adv-x="1303" 
d="M482 1642q0 47 34 80.5t82 33.5t82 -33.5t34 -80.5q0 -48 -34 -81.5t-82 -33.5t-82 33.5t-34 81.5zM158 1365h457q300 0 452 -173.5t152 -507.5q0 -335 -152 -509.5t-452 -174.5h-457v1365zM364 1188v-1011h233q203 0 306 122.5t103 382.5q0 506 -409 506h-233z" />
    <glyph glyph-name="ddotaccent" unicode="&#x1e0b;" horiz-adv-x="1179" 
d="M811 1714q0 47 34 80.5t82 33.5t82 -33.5t34 -80.5q0 -48 -34 -81.5t-82 -33.5t-82 33.5t-34 81.5zM519 1070q103 0 183 -45.5t119 -119.5h7v532h202v-1437h-196v160h-6q-43 -82 -123.5 -128.5t-185.5 -46.5q-198 0 -306.5 134t-108.5 362v93q0 223 111 359.5t304 136.5z
M563 900q-115 0 -184.5 -85.5t-69.5 -247.5v-80q0 -161 70 -246.5t186 -85.5q124 0 194.5 86.5t70.5 244.5v81q0 153 -72 243t-195 90z" />
    <glyph glyph-name="Ddotbelow" unicode="&#x1e0c;" horiz-adv-x="1303" 
d="M500 -268q0 44 29 73.5t71 29.5t71 -29.5t29 -73.5q0 -43 -29 -72t-71 -29t-71 29.5t-29 71.5zM158 1365h457q300 0 452 -173.5t152 -507.5q0 -335 -152 -509.5t-452 -174.5h-457v1365zM364 1188v-1011h233q203 0 306 122.5t103 382.5q0 506 -409 506h-233z" />
    <glyph glyph-name="ddotbelow" unicode="&#x1e0d;" horiz-adv-x="1179" 
d="M492 -268q0 44 29 73.5t71 29.5t71 -29.5t29 -73.5q0 -43 -29 -72t-71 -29t-71 29.5t-29 71.5zM519 1070q103 0 183 -45.5t119 -119.5h7v532h202v-1437h-196v160h-6q-43 -82 -123.5 -128.5t-185.5 -46.5q-198 0 -306.5 134t-108.5 362v93q0 223 111 359.5t304 136.5z
M563 900q-115 0 -184.5 -85.5t-69.5 -247.5v-80q0 -161 70 -246.5t186 -85.5q124 0 194.5 86.5t70.5 244.5v81q0 153 -72 243t-195 90z" />
    <glyph glyph-name="Dlinebelow" unicode="&#x1e0e;" horiz-adv-x="1303" 
d="M877 -340h-558v128h558v-128zM158 1365h457q300 0 452 -173.5t152 -507.5q0 -335 -152 -509.5t-452 -174.5h-457v1365zM364 1188v-1011h233q203 0 306 122.5t103 382.5q0 506 -409 506h-233z" />
    <glyph glyph-name="dlinebelow" unicode="&#x1e0f;" horiz-adv-x="1179" 
d="M869 -340h-558v128h558v-128zM519 1070q103 0 183 -45.5t119 -119.5h7v532h202v-1437h-196v160h-6q-43 -82 -123.5 -128.5t-185.5 -46.5q-198 0 -306.5 134t-108.5 362v93q0 223 111 359.5t304 136.5zM563 900q-115 0 -184.5 -85.5t-69.5 -247.5v-80q0 -161 70 -246.5
t186 -85.5q124 0 194.5 86.5t70.5 244.5v81q0 153 -72 243t-195 90z" />
    <glyph glyph-name="Dcommaaccent" unicode="&#x1e10;" horiz-adv-x="1303" 
d="M584 -489h-149l85 335h178zM158 1365h457q300 0 452 -173.5t152 -507.5q0 -335 -152 -509.5t-452 -174.5h-457v1365zM364 1188v-1011h233q203 0 306 122.5t103 382.5q0 506 -409 506h-233z" />
    <glyph glyph-name="dcommaaccent" unicode="&#x1e11;" horiz-adv-x="1179" 
d="M576 -489h-149l85 335h178zM519 1070q103 0 183 -45.5t119 -119.5h7v532h202v-1437h-196v160h-6q-43 -82 -123.5 -128.5t-185.5 -46.5q-198 0 -306.5 134t-108.5 362v93q0 223 111 359.5t304 136.5zM563 900q-115 0 -184.5 -85.5t-69.5 -247.5v-80q0 -161 70 -246.5
t186 -85.5q124 0 194.5 86.5t70.5 244.5v81q0 153 -72 243t-195 90z" />
    <glyph glyph-name="Dcircumflexbelow" unicode="&#x1e12;" horiz-adv-x="1303" 
d="M158 1365h457q300 0 452 -173.5t152 -507.5q0 -335 -152 -509.5t-452 -174.5h-457v1365zM364 1188v-1011h233q203 0 306 122.5t103 382.5q0 506 -409 506h-233zM321 -400l212 287h130l212 -287h-159l-116 178h-4l-116 -178h-159z" />
    <glyph glyph-name="dcircumflexbelow" unicode="&#x1e13;" horiz-adv-x="1179" 
d="M519 1070q103 0 183 -45.5t119 -119.5h7v532h202v-1437h-196v160h-6q-43 -82 -123.5 -128.5t-185.5 -46.5q-198 0 -306.5 134t-108.5 362v93q0 223 111 359.5t304 136.5zM563 900q-115 0 -184.5 -85.5t-69.5 -247.5v-80q0 -161 70 -246.5t186 -85.5q124 0 194.5 86.5
t70.5 244.5v81q0 153 -72 243t-195 90zM313 -400l212 287h130l212 -287h-159l-116 178h-4l-116 -178h-159z" />
    <glyph glyph-name="Emacrongrave" unicode="&#x1e14;" horiz-adv-x="1107" 
d="M665 1738h-166l-275 195h208zM847 1518h-552v116h552v-116zM996 177v-177h-838v1365h838v-177h-633v-408h597v-170h-597v-433h633z" />
    <glyph glyph-name="emacrongrave" unicode="&#x1e15;" horiz-adv-x="1093" 
d="M557 -18q-210 0 -332 133.5t-122 363.5v111q0 219 119.5 350.5t326.5 131.5t325.5 -134.5t118.5 -357.5v-100h-689v-22q0 -141 69.5 -227t187.5 -86q86 0 143.5 40t80.5 112h195q-28 -138 -136.5 -226.5t-286.5 -88.5zM304 628h490v3q0 120 -68 200t-176 80
q-110 0 -178 -80t-68 -200v-3zM635 1503h-149l-235 278h194zM827 1237h-558v128h558v-128z" />
    <glyph glyph-name="Emacronacute" unicode="&#x1e16;" horiz-adv-x="1107" 
d="M477 1738l233 195h208l-275 -195h-166zM847 1518h-552v116h552v-116zM996 177v-177h-838v1365h838v-177h-633v-408h597v-170h-597v-433h633z" />
    <glyph glyph-name="emacronacute" unicode="&#x1e17;" horiz-adv-x="1093" 
d="M557 -18q-210 0 -332 133.5t-122 363.5v111q0 219 119.5 350.5t326.5 131.5t325.5 -134.5t118.5 -357.5v-100h-689v-22q0 -141 69.5 -227t187.5 -86q86 0 143.5 40t80.5 112h195q-28 -138 -136.5 -226.5t-286.5 -88.5zM304 628h490v3q0 120 -68 200t-176 80
q-110 0 -178 -80t-68 -200v-3zM613 1505h-149l191 278h193zM827 1237h-558v128h558v-128z" />
    <glyph glyph-name="Ecircumflexbelow" unicode="&#x1e18;" horiz-adv-x="1107" 
d="M996 177v-177h-838v1365h838v-177h-633v-408h597v-170h-597v-433h633zM294 -400l212 287h130l212 -287h-159l-116 178h-4l-116 -178h-159z" />
    <glyph glyph-name="ecircumflexbelow" unicode="&#x1e19;" horiz-adv-x="1093" 
d="M557 -18q-210 0 -332 133.5t-122 363.5v111q0 219 119.5 350.5t326.5 131.5t325.5 -134.5t118.5 -357.5v-100h-689v-22q0 -141 69.5 -227t187.5 -86q86 0 143.5 40t80.5 112h195q-28 -138 -136.5 -226.5t-286.5 -88.5zM304 628h490v3q0 120 -68 200t-176 80
q-110 0 -178 -80t-68 -200v-3zM277 -400l212 287h130l212 -287h-159l-116 178h-4l-116 -178h-159z" />
    <glyph glyph-name="Etildebelow" unicode="&#x1e1a;" horiz-adv-x="1107" 
d="M682 -375q-43 0 -80 19t-58 42t-46 42t-46 19q-57 0 -60 -102h-123q0 90 46.5 153.5t131.5 63.5q43 0 80.5 -19t58.5 -42t46.5 -42t46.5 -19q30 0 47 31.5t20 72.5h123q0 -85 -50 -152t-137 -67zM996 177v-177h-838v1365h838v-177h-633v-408h597v-170h-597v-433h633z" />
    <glyph glyph-name="etildebelow" unicode="&#x1e1b;" horiz-adv-x="1093" 
d="M665 -375q-43 0 -80 19t-58 42t-46 42t-46 19q-57 0 -60 -102h-123q0 90 46.5 153.5t131.5 63.5q43 0 80.5 -19t58.5 -42t46.5 -42t46.5 -19q30 0 47 31.5t20 72.5h123q0 -85 -50 -152t-137 -67zM557 -18q-210 0 -332 133.5t-122 363.5v111q0 219 119.5 350.5
t326.5 131.5t325.5 -134.5t118.5 -357.5v-100h-689v-22q0 -141 69.5 -227t187.5 -86q86 0 143.5 40t80.5 112h195q-28 -138 -136.5 -226.5t-286.5 -88.5zM304 628h490v3q0 120 -68 200t-176 80q-110 0 -178 -80t-68 -200v-3z" />
    <glyph glyph-name="Ecedillabreve" unicode="&#x1e1c;" horiz-adv-x="1107" 
d="M573 -469q-81 -3 -149 15v111q47 -14 114 -14q48 0 82 16.5t34 56.5q0 23 -10.5 37t-33.5 20t-43 7.5t-56 1.5h-53v85l50 133h-350v1365h838v-177h-633v-408h597v-170h-597v-433h633v-177h-357l-44 -115q95 0 151 -42t56 -121q0 -93 -63 -140t-166 -51zM280 1762h127
q0 -67 41.5 -111t122.5 -44t122.5 44t41.5 111h126q0 -50 -17.5 -97t-51 -86.5t-91 -63.5t-130.5 -24t-130.5 24t-92 63.5t-51.5 86.5t-17 97z" />
    <glyph glyph-name="ecedillabreve" unicode="&#x1e1d;" horiz-adv-x="1093" 
d="M242 1466h130q0 -69 42 -116t123 -47t123 47t42 116h129q0 -51 -17.5 -99.5t-52 -90t-92.5 -66.5t-132 -25t-132.5 25t-93 66t-52 90t-17.5 100zM304 628h490v3q0 120 -68 200t-176 80q-110 0 -178 -80t-68 -200v-3zM559 -485q-85 -4 -149 15v110q44 -13 115 -13
q115 0 115 73q0 18 -8 31t-19.5 19.5t-33 10t-38 4t-44.5 0.5h-53v86l51 135q-183 20 -287.5 150.5t-104.5 342.5v111q0 219 119.5 350.5t326.5 131.5t325.5 -134.5t118.5 -357.5v-100h-689v-22q0 -141 69.5 -227t187.5 -86q86 0 143.5 40t80.5 112h195q-24 -124 -115 -209
t-239 -102l-44 -118q95 0 151 -42t56 -121q0 -92 -63 -139t-167 -51z" />
    <glyph glyph-name="Fdotaccent" unicode="&#x1e1e;" horiz-adv-x="1042" 
d="M451 1642q0 47 34 80.5t82 33.5t82 -33.5t34 -80.5q0 -48 -34 -81.5t-82 -33.5t-82 33.5t-34 81.5zM364 0h-206v1365h827v-178h-621v-437h569v-176h-569v-574z" />
    <glyph glyph-name="fdotaccent" unicode="&#x1e1f;" horiz-adv-x="700" 
d="M271 1728q0 47 34 80.5t82 33.5t82 -33.5t34 -80.5q0 -48 -34 -81.5t-82 -33.5t-82 33.5t-34 81.5zM217 0v890h-145v164h145v105q0 154 80 225t250 71q53 0 89 -6v-156q-30 4 -57 4q-86 0 -124.5 -34t-38.5 -120v-89h206v-164h-204v-890h-201z" />
    <glyph glyph-name="Gmacron" unicode="&#x1e20;" horiz-adv-x="1283" 
d="M1177 942h-203q-15 126 -98.5 198.5t-218.5 72.5q-165 0 -256.5 -111.5t-91.5 -312.5v-194q0 -212 90 -328t265 -116q142 0 229.5 79t87.5 204v117h-329v168h528v-278q0 -200 -144 -334.5t-375 -134.5q-273 0 -415.5 164t-142.5 459v195q0 279 147.5 441t407.5 162
q226 0 366.5 -125.5t152.5 -325.5zM933 1518h-552v116h552v-116z" />
    <glyph glyph-name="gmacron" unicode="&#x1e21;" horiz-adv-x="1177" 
d="M866 1237h-558v128h558v-128zM568 -235q119 0 189 66.5t70 183.5v163h-7q-32 -72 -113.5 -119.5t-186.5 -47.5q-188 0 -301.5 129t-113.5 362v80q0 231 113.5 359.5t301.5 128.5q104 0 186 -47t119 -119h7v150h196v-1045q0 -80 -25 -147.5t-68.5 -114t-102.5 -79
t-125.5 -47.5t-139.5 -15q-201 0 -311.5 86t-127.5 226h202q15 -65 78.5 -109t159.5 -44zM572 902q-124 0 -193.5 -86.5t-69.5 -245.5v-63q0 -157 69.5 -244.5t193.5 -87.5q120 0 187.5 88t67.5 244v63q0 153 -69 242.5t-186 89.5z" />
    <glyph glyph-name="Hdotaccent" unicode="&#x1e22;" horiz-adv-x="1377" 
d="M1220 0h-206v615h-650v-615h-206v1365h206v-572h650v572h206v-1365zM572 1642q0 47 34 80.5t82 33.5t82 -33.5t34 -80.5q0 -48 -34 -81.5t-82 -33.5t-82 33.5t-34 81.5z" />
    <glyph glyph-name="hdotaccent" unicode="&#x1e23;" horiz-adv-x="1167" 
d="M149 0v1437h202v-527h7q34 64 111 112.5t194 48.5q167 0 270.5 -103t103.5 -291v-677h-202v639q0 125 -65.5 189.5t-175.5 64.5q-119 0 -181 -73t-62 -186v-634h-202zM130 1714q0 47 34 80.5t82 33.5t82 -33.5t34 -80.5q0 -48 -34 -81.5t-82 -33.5t-82 33.5t-34 81.5z
" />
    <glyph glyph-name="Hdotbelow" unicode="&#x1e24;" horiz-adv-x="1377" 
d="M1220 0h-206v615h-650v-615h-206v1365h206v-572h650v572h206v-1365zM588 -268q0 44 29 73.5t71 29.5t71 -29.5t29 -73.5q0 -43 -29 -72t-71 -29t-71 29.5t-29 71.5z" />
    <glyph glyph-name="hdotbelow" unicode="&#x1e25;" horiz-adv-x="1167" 
d="M149 0v1437h202v-527h7q34 64 111 112.5t194 48.5q167 0 270.5 -103t103.5 -291v-677h-202v639q0 125 -65.5 189.5t-175.5 64.5q-119 0 -181 -73t-62 -186v-634h-202zM484 -268q0 44 29 73.5t71 29.5t71 -29.5t29 -73.5q0 -43 -29 -72t-71 -29t-71 29.5t-29 71.5z" />
    <glyph glyph-name="Hdieresis" unicode="&#x1e26;" horiz-adv-x="1377" 
d="M1220 0h-206v615h-650v-615h-206v1365h206v-572h650v572h206v-1365zM526 1489q-39 0 -65.5 27.5t-26.5 67.5q0 42 26.5 69.5t65.5 27.5q41 0 68 -27.5t27 -69.5q0 -40 -27.5 -67.5t-67.5 -27.5zM846 1489q-39 0 -66 27.5t-27 67.5q0 42 27 69.5t66 27.5q41 0 67.5 -27.5
t26.5 -69.5q0 -41 -27 -68t-67 -27z" />
    <glyph glyph-name="hdieresis" unicode="&#x1e27;" horiz-adv-x="1167" 
d="M149 0v1437h202v-527h7q34 64 111 112.5t194 48.5q167 0 270.5 -103t103.5 -291v-677h-202v639q0 125 -65.5 189.5t-175.5 64.5q-119 0 -181 -73t-62 -186v-634h-202zM85 1561q-39 0 -65.5 27.5t-26.5 67.5q0 42 26.5 69.5t65.5 27.5q41 0 68 -27.5t27 -69.5
q0 -40 -27 -67.5t-68 -27.5zM405 1561q-39 0 -66 27.5t-27 67.5q0 42 27 69.5t66 27.5q41 0 67.5 -27.5t26.5 -69.5q0 -41 -27 -68t-67 -27z" />
    <glyph glyph-name="Hcedilla" unicode="&#x1e28;" horiz-adv-x="1377" 
d="M283 -469q-80 0 -133 15v111q50 -14 115 -14q115 0 115 71q0 37 -31.5 52.5t-111.5 15.5h-53v85l50 133h-76v1365h206v-572h650v572h206v-1365h-206v615h-650v-615l-42 -115q98 0 152.5 -43t54.5 -120q0 -91 -65 -141t-181 -50z" />
    <glyph glyph-name="hcedilla" unicode="&#x1e29;" horiz-adv-x="1167" 
d="M279 -485q-85 -4 -149 15v110q44 -13 115 -13q115 0 115 73q0 18 -8 31t-19.5 19.5t-33 10t-38 4t-44.5 0.5h-53v86l56 149h-71v1437h202v-527h7q34 64 111 112.5t194 48.5q167 0 270.5 -103t103.5 -291v-677h-202v639q0 125 -65.5 189.5t-175.5 64.5q-119 0 -181 -73
t-62 -186v-634l-49 -132q95 0 151 -42t56 -121q0 -92 -63 -139t-167 -51z" />
    <glyph glyph-name="Hbrevebelow" unicode="&#x1e2a;" horiz-adv-x="1377" 
d="M1220 0h-206v615h-650v-615h-206v1365h206v-572h650v572h206v-1365zM862 -137h131q0 -53 -17.5 -101.5t-52.5 -90.5t-96 -67t-139 -25q-79 0 -140.5 24.5t-98 66t-55.5 90.5t-19 103h139q0 -68 45 -116t129 -48t129 48t45 116z" />
    <glyph glyph-name="hbrevebelow" unicode="&#x1e2b;" horiz-adv-x="1167" 
d="M149 0v1437h202v-527h7q34 64 111 112.5t194 48.5q167 0 270.5 -103t103.5 -291v-677h-202v639q0 125 -65.5 189.5t-175.5 64.5q-119 0 -181 -73t-62 -186v-634h-202zM756 -137h131q0 -53 -17.5 -101.5t-52.5 -90.5t-96 -67t-139 -25q-79 0 -140.5 24.5t-98 66
t-55.5 90.5t-19 103h139q0 -68 45 -116t129 -48t129 48t45 116z" />
    <glyph glyph-name="Itildebelow" unicode="&#x1e2c;" horiz-adv-x="521" 
d="M364 0h-206v1365h206v-1365zM371 -375q-43 0 -80 19t-58 42t-46 42t-46 19q-57 0 -60 -102h-123q0 90 46.5 153.5t131.5 63.5q43 0 80.5 -19t58.5 -42t46.5 -42t46.5 -19q30 0 47 31.5t20 72.5h123q0 -85 -50 -152t-137 -67z" />
    <glyph glyph-name="itildebelow" unicode="&#x1e2d;" horiz-adv-x="514" 
d="M156 0v1054h202v-1054h-202zM134 1311q0 51 36 85t87 34t87 -34t36 -85t-36 -85t-87 -34t-87 34t-36 85zM368 -375q-43 0 -80 19t-58 42t-46 42t-46 19q-57 0 -60 -102h-123q0 90 46.5 153.5t131.5 63.5q43 0 80.5 -19t58.5 -42t46.5 -42t46.5 -19q30 0 47 31.5t20 72.5
h123q0 -85 -50 -152t-137 -67z" />
    </font>
</defs>
</svg>
